<svg width="140" height="62" viewBox="0 0 140 62" fill="none" xmlns="http://www.w3.org/2000/svg">
<path d="M45.1397 53.5586C47.3896 55.1729 50.9271 56.8523 56.2462 58.5447C86.4185 68.1525 114.081 52.6473 114.081 52.6473C115.758 44.3805 114.718 34.981 111.935 31.5311C112.806 30.3073 112.234 28.8493 112.234 28.8493L140 0C124.212 13.0967 104.678 17.3799 89.4747 26.584C89.4747 26.584 89.4747 26.584 89.4617 26.584C85.0789 29.2398 81.1383 31.5701 78.2511 33.1975C73.8423 35.671 68.224 35.9184 62.7098 35.1503C51.9675 33.6661 41.6673 28.3676 41.6673 28.3676C41.6673 28.3676 7.0863 12.6802 0.609678 13.2009C-4.42336 13.5915 22.7056 41.946 45.1397 53.5586Z" fill="#21B573"/>
</svg>
