<svg width="190" height="115" viewBox="0 0 190 115" fill="none" xmlns="http://www.w3.org/2000/svg">
<path d="M139.241 70.6215C139.241 70.6215 130.355 68.0595 127.614 65.1724L121.43 79.7381L142.463 86.3057C142.476 86.3057 142.762 73.5216 139.241 70.6215Z" fill="#EA9B7A"/>
<path d="M190 112.706L162.808 52.2974C161.795 52.2193 160.522 52.4925 159.093 53.0127C153.818 54.9374 146.4 60.2435 141.632 63.3517C141.073 63.7159 140.553 64.054 140.073 64.3531C139.267 64.8473 138.579 65.2375 138.059 65.4846C133.862 67.3703 136.071 69.6332 136.071 69.6332C143.892 73.5478 139.124 85.1483 143.892 87.8534C143.892 87.8534 145.919 89.0368 152.389 91.8849C158.859 94.7331 165.368 101.613 171.396 107.244C179.178 114.527 184.063 115.372 186.856 114.709C189.091 114.189 190 112.706 190 112.706Z" fill="#EBB12B"/>
<path d="M190 112.706L162.808 52.2974C161.795 52.2193 160.521 52.4925 159.092 53.0127L186.856 114.709C189.09 114.189 190 112.706 190 112.706Z" fill="#C77E2E"/>
<path d="M165.588 58.4618L164.783 56.6671C163.549 59.3851 161.158 62.4673 156.585 64.2751C150.492 66.668 144.853 64.8993 141.644 63.3647C141.086 63.7288 140.566 64.0669 140.085 64.3661C143.346 66.1218 149.855 68.6187 157.157 65.7576C161.522 64.0149 164.081 61.1668 165.588 58.4618Z" fill="#C77E2E"/>
<path d="M155.494 89.2579C155.299 88.8157 154.805 88.5426 154.298 88.6336C153.701 88.7377 153.311 89.3099 153.415 89.9081L154.182 94.1088C154.285 94.707 154.857 95.0972 155.455 94.9931C156.052 94.8891 156.442 94.3169 156.338 93.7186L155.572 89.518C155.559 89.4269 155.533 89.3359 155.494 89.2579Z" fill="white"/>
<path d="M150.674 86.9171C150.479 86.4749 149.985 86.2018 149.479 86.2929C148.881 86.3969 148.491 86.9691 148.595 87.5673L149.362 91.768C149.466 92.3662 150.037 92.7564 150.635 92.6523C151.233 92.5483 151.622 91.9761 151.518 91.3779L150.752 87.1772C150.739 87.0862 150.713 86.9951 150.674 86.9171Z" fill="white"/>
<path d="M159.391 92.0409C159.196 91.5987 158.703 91.3257 158.196 91.4167C157.598 91.5207 157.209 92.0929 157.312 92.6912L158.079 96.8918C158.183 97.4901 158.755 97.8802 159.352 97.7762C159.95 97.6721 160.34 97.0999 160.236 96.5017L159.469 92.301C159.443 92.21 159.417 92.1189 159.391 92.0409Z" fill="white"/>
<path d="M163.198 94.8631C163.003 94.4209 162.509 94.1478 162.003 94.2388C161.405 94.3429 161.015 94.9151 161.119 95.5134L161.886 99.714C161.99 100.312 162.561 100.702 163.159 100.598C163.757 100.494 164.146 99.9221 164.042 99.3238L163.276 95.1232C163.25 95.0321 163.224 94.9411 163.198 94.8631Z" fill="white"/>
<path d="M166.992 98.1014C166.797 97.6592 166.303 97.3861 165.797 97.4772C165.199 97.5812 164.809 98.1534 164.913 98.7517L165.68 102.952C165.784 103.551 166.355 103.941 166.953 103.837C167.55 103.733 167.94 103.16 167.836 102.562L167.07 98.3615C167.057 98.2705 167.031 98.1794 166.992 98.1014Z" fill="white"/>
<path d="M170.655 101.821C170.46 101.379 169.967 101.106 169.46 101.197C168.862 101.301 168.473 101.873 168.577 102.471L169.343 106.672C169.447 107.27 170.019 107.66 170.616 107.556C171.214 107.452 171.604 106.88 171.5 106.282L170.733 102.081C170.72 101.977 170.694 101.899 170.655 101.821Z" fill="white"/>
<path d="M41.3745 6.14215C41.3745 6.14215 19.5093 -5.6665 6.85532 3.46309C-16.296 20.1617 22.9911 52.2713 67.9427 67.9555C112.894 83.6396 127.484 81.4938 127.484 81.4938C127.484 81.4938 137.254 78.8017 133.785 62.9615C133.785 62.9615 107.879 53.1036 94.3939 42.7775C80.9084 32.4515 71.7233 19.7975 41.3745 6.14215Z" fill="#21B573"/>
<path d="M132.031 67.5784C122.599 65.3155 103.397 56.4851 80.6487 43.9871C63.6295 34.6365 44.0119 22.6848 41.1278 18.5361C39.5687 16.2992 39.179 14.4655 39.9585 13.087C41.1278 11.0322 44.5057 10.8241 46.0387 10.8371C46.4284 10.8371 46.7402 11.1752 46.7142 11.5654C46.6882 11.9295 46.3895 12.2026 46.0257 12.2026C44.5186 12.1896 41.8813 12.4497 41.1408 13.7632C40.5172 14.8557 41.4006 16.5333 42.245 17.7428C44.5706 21.0851 60.9922 31.6192 81.2983 42.7776C98.7852 52.3884 121.378 63.5988 132.343 66.2389L132.031 67.5784Z" fill="#217C58"/>
<path d="M130.251 60.8676C129.186 69.1909 127.029 76.7599 122.339 82.5732C122.339 82.5732 126.367 85.4733 130.043 83.3925C132.849 81.8059 138.267 68.8008 136.201 61.856C133.85 60.5555 131.823 60.1133 130.251 60.8676Z" fill="#217C58"/>
</svg>
