<svg width="90" height="79" viewBox="0 0 90 79" fill="none" xmlns="http://www.w3.org/2000/svg">
<path d="M31.799 42.1879H8.55915L4.08925 14.9234L1.63172 0H30.499L30.962 14.9234L31.799 42.1879Z" fill="#EA9B7A"/>
<path d="M31.7986 42.1878H8.55873L5.22855 21.8863L4.08882 14.9233H30.9616L31.1753 22.1356L31.7986 42.1878Z" fill="#FAAF3A"/>
<path d="M31.1753 22.1356L5.22855 21.8863L4.08882 14.9233H30.9616L31.1753 22.1356Z" fill="#C77E2E"/>
<path d="M89.1416 78.8909H1.23971C0.580807 77.6977 0.224624 76.0238 0.082157 74.0114C-0.469901 66.5675 1.89863 54.7072 3.05617 47.2277C3.19864 46.3551 3.32329 45.5359 3.41233 44.8058C3.57261 43.5592 3.67945 42.5085 3.67945 41.7427C3.67945 35.6345 9.07537 36.6852 9.07537 36.6852C17.9617 45.4113 28.0412 32.3399 33.918 36.6139C33.918 36.6139 34.1495 36.792 34.7016 37.2016C35.2002 37.5934 35.9481 38.1989 36.981 39.0715C38.4769 40.3181 40.5783 42.1345 43.4277 44.6989C50.4085 50.9853 62.2689 55.1168 72.3662 59.3374C73.6484 59.8716 74.8415 60.4059 75.9635 60.9579C76.8004 61.3675 77.6018 61.7771 78.3498 62.1689C86.6129 66.621 89.2307 70.8949 89.8362 73.9936C90.4238 76.9676 89.1416 78.8909 89.1416 78.8909Z" fill="#0875F7"/>
<path d="M78.3675 62.1866C76.1058 63.9853 71.0661 67.6004 67.0236 67.6004C66.8455 67.6004 66.6674 67.6004 66.4893 67.5826C63.64 67.3511 53.1687 62.2045 44.6385 57.5209C39.759 54.8318 35.2891 52.1962 32.0836 50.077C26.8302 46.6044 25.9041 45.2866 25.7083 44.3605C24.9425 40.8879 30.6768 38.4838 34.7015 37.2194C35.2001 37.6112 35.948 38.2167 36.9809 39.0893C31.9946 40.4427 27.8809 42.5797 28.0768 43.7907C28.5754 44.8235 33.7754 48.777 46.2057 55.5976C55.6975 60.7976 64.6907 64.9826 66.6852 65.1607C69.3921 65.3744 73.3633 62.9168 75.9634 60.9757C76.836 61.3675 77.6196 61.777 78.3675 62.1866Z" fill="#084FC7"/>
<path d="M89.1416 78.8908H1.23966C0.580748 77.6977 0.224566 76.0237 0.082099 74.0114H89.8539C90.4238 76.9675 89.1416 78.8908 89.1416 78.8908Z" fill="#084FC7"/>
<path d="M10.2152 78.8908H7.59733C10.1973 75.9169 12.6371 71.3401 12.3166 64.8223C11.8892 56.1318 6.68913 50.2907 3.05623 47.2276C3.1987 46.355 3.32335 45.5359 3.41239 44.8057C7.31242 47.7797 13.8837 54.3154 14.4001 64.7154C14.7207 70.9483 12.6727 75.5963 10.2152 78.8908Z" fill="#084FC7"/>
<path d="M41.9675 49.899C41.3264 49.899 40.7209 49.4538 40.5606 48.7949C40.3647 48.0113 40.8455 47.2278 41.6113 47.0319L47.0963 45.6606C47.8798 45.4647 48.6634 45.9456 48.8593 46.7113C49.0552 47.4949 48.5743 48.2785 47.8086 48.4744L42.3236 49.8456C42.199 49.8812 42.0743 49.899 41.9675 49.899Z" fill="white"/>
<path d="M36.5001 45.3222C35.8412 45.3222 35.2535 44.8769 35.0932 44.218C34.8973 43.4344 35.3781 42.6509 36.1439 42.455L41.6289 41.0838C42.4124 40.8879 43.196 41.3687 43.3919 42.1344C43.5878 42.918 43.107 43.7016 42.3412 43.8975L36.8562 45.2687C36.7316 45.3043 36.6247 45.3222 36.5001 45.3222Z" fill="white"/>
<path d="M47.4524 53.0867C46.8113 53.0867 46.2059 52.6415 46.0456 51.9826C45.8497 51.199 46.3305 50.4154 47.0963 50.2373L52.5813 48.8661C53.3648 48.6702 54.1484 49.151 54.3443 49.9168C54.5402 50.7004 54.0593 51.4839 53.2936 51.6798L47.8086 53.0511C47.684 53.0689 47.5593 53.0867 47.4524 53.0867Z" fill="white"/>
<path d="M52.9375 56.1498C52.2964 56.1498 51.6909 55.7046 51.5306 55.0456C51.3347 54.2621 51.8155 53.4785 52.5813 53.3004L58.0663 51.9292C58.8498 51.7333 59.6334 52.2141 59.8293 52.9799C60.0252 53.7634 59.5444 54.547 58.7786 54.7429L53.2936 56.1142C53.169 56.132 53.0621 56.1498 52.9375 56.1498Z" fill="white"/>
<path d="M58.9209 58.9811C58.2798 58.9811 57.6743 58.5359 57.514 57.877C57.3182 57.0935 57.799 56.3099 58.5648 56.1318L64.0497 54.7606C64.8333 54.5647 65.6168 55.0455 65.8127 55.8113C66.0086 56.5948 65.5278 57.3784 64.762 57.5743L59.2771 58.9456C59.1524 58.9812 59.0456 58.9811 58.9209 58.9811Z" fill="white"/>
<path d="M65.4209 61.4031C64.762 61.4031 64.1743 60.9578 64.014 60.2989C63.8181 59.5153 64.299 58.7318 65.0647 58.5359L70.5497 57.1647C71.3333 56.9688 72.1168 57.4496 72.3127 58.2153C72.5086 58.9989 72.0278 59.7825 71.262 59.9784L65.777 61.3496C65.6524 61.3852 65.5277 61.4031 65.4209 61.4031Z" fill="white"/>
</svg>
