<svg width="88" height="108" viewBox="0 0 88 108" fill="none" xmlns="http://www.w3.org/2000/svg">
<path d="M68.9555 54.3657C68.9555 54.3657 75.9321 48.856 77.7747 56.1546C79.6172 63.4533 74.4294 76.4227 66.3079 72.4871L68.9555 54.3657Z" fill="#D96C63"/>
<path d="M62.1399 67.7824C58.6695 68.9273 55.6105 72.0041 54.8234 75.8145C53.6785 81.5031 57.3636 87.0486 63.0343 88.2114C68.723 89.3563 74.2685 85.6712 75.4313 80.0005C76.2899 75.7429 74.4474 71.5569 71.0664 69.2493C69.9394 68.4622 68.6335 67.9076 67.2024 67.6214C67.1667 67.6214 67.1309 67.6035 67.0951 67.6035C66.8983 68.3191 66.9699 68.8915 67.3813 69.3387C68.5262 69.6428 69.5638 70.1616 70.4761 70.8414C73.1058 72.8449 74.519 76.2259 73.8213 79.6785C72.8553 84.4727 68.1505 87.5853 63.3563 86.6193C58.5621 85.6533 55.4495 80.9486 56.4155 76.1544C57.131 72.666 59.707 70.1974 62.9449 69.4103L62.1399 67.7824Z" fill="#FAAF3A"/>
<path d="M47.8107 85.6533L44.8948 103.936C44.8948 103.936 31.2098 117.907 6.21913 92.8447C12.9274 87.8537 15.4855 76.2617 14.6984 68.7842C14.6984 68.7842 16.6662 69.9648 19.7073 72.7197C20.2976 73.2564 21.0668 73.6678 21.8003 74.1866C28.4013 78.6588 38.5264 84.5085 47.8107 85.6533Z" fill="#EA9B7A"/>
<path d="M47.8108 85.6533L46.4333 94.3114C38.9379 90.9662 25.6823 83.8286 19.7074 72.7017C20.3514 73.1668 21.067 73.6499 21.8004 74.1686C28.4014 78.6587 38.5265 84.5084 47.8108 85.6533Z" fill="#39393B"/>
<path d="M75.7173 49.9652C75.3237 51.8972 74.966 53.7397 74.5903 55.4929C74.1967 57.3891 73.8211 59.178 73.4454 60.8595C70.6726 73.5069 68.4008 80.2868 64.7157 82.827C46.0576 95.6533 15.7003 69.6787 14.7164 68.8379C14.6985 68.82 14.6985 68.82 14.6985 68.82C14.6806 67.3353 14.6806 65.8505 14.6985 64.4015C14.931 52.094 17.024 41.0387 20.3514 30.8241C22.015 19.6615 30.6732 10.7171 41.818 9.03556C53.3742 7.30034 62.0681 13.9908 67.5063 16.9424C75.7173 21.4146 78.9373 33.8474 75.7173 49.9652Z" fill="#EA9B7A"/>
<path d="M20.9951 19.3394C20.9951 19.3394 34.054 -5.7765 60.1001 1.23592C86.1463 8.24834 87.5237 20.3412 87.9888 26.3876C88.4539 32.434 74.5006 21.7186 74.5006 21.7186C74.5006 21.7186 74.0176 33.8115 69.3665 30.0906C63.66 25.5111 57.2916 15.6543 57.2916 15.6543C57.2916 15.6543 41.782 30.8956 27.0416 26.7812C18.6517 24.4556 20.9951 19.3394 20.9951 19.3394Z" fill="#39393B"/>
<path d="M52.9805 74.5981C49.5995 74.5981 47.2739 72.2547 47.1666 72.1295C46.8088 71.7538 46.8088 71.1635 47.1845 70.8057C47.5601 70.4479 48.1326 70.4479 48.4903 70.8236C48.6156 70.9488 51.2989 73.6142 54.8409 72.3978C55.3239 72.2368 55.8606 72.4872 56.0216 72.9702C56.1826 73.4532 55.9321 73.9899 55.4491 74.1509C54.5904 74.4729 53.7676 74.5981 52.9805 74.5981Z" fill="#D96C63"/>
<path d="M45.1987 59.3926C45.1987 59.3926 57.7567 63.1135 64.2682 63.1135C64.2682 63.1135 61.0124 72.4157 51.7102 69.16C44.4652 66.6197 45.1987 59.3926 45.1987 59.3926Z" fill="white"/>
<path d="M68.5079 33.2391C68.5079 33.2391 65.2521 32.8992 65.7709 36.0656C66.3076 39.2319 73.3737 37.2999 76.8799 43.6325C76.8799 43.6325 80.2609 36.9958 68.5079 33.2391Z" fill="#39393B"/>
<path d="M54.0004 30.3052C54.0004 30.3052 57.131 31.2712 55.4137 33.9724C53.6963 36.6736 47.9361 32.1477 42.2475 36.6199C42.2475 36.6199 41.7287 29.1961 54.0004 30.3052Z" fill="#39393B"/>
<path d="M48.3474 52.9704C48.0433 54.4552 44.7339 55.0455 40.9235 54.2763C37.1311 53.5071 34.3047 51.6824 34.6088 50.1798C34.9129 48.695 38.2223 48.1047 42.0326 48.8739C45.8251 49.6431 48.6515 51.4856 48.3474 52.9704Z" fill="#D96C63"/>
<path d="M85.4126 53.9544L75.2696 52.2192C75.216 52.6485 75.1086 53.0778 75.0192 53.4893C75.0013 53.5608 74.9834 53.6324 74.9476 53.7039L85.1621 55.4391C85.5736 55.5107 85.9672 55.2245 86.0387 54.813C86.1103 54.4195 85.8419 54.0259 85.4126 53.9544Z" fill="white"/>
<path d="M58.329 45.296C58.329 44.7772 58.3111 44.2585 58.2396 43.7576C57.8997 41.0027 56.6833 38.4625 54.8228 36.4947C53.1055 34.6879 50.8694 33.3641 48.2755 32.7917C48.2397 32.7738 48.186 32.7738 48.1503 32.7559C42.2112 31.5395 36.3615 34.6521 33.9466 39.9472C33.7319 40.4123 33.553 40.8774 33.392 41.3604C33.2489 41.7898 33.1415 42.237 33.0342 42.6842C32.3544 46.0116 33.0163 49.3031 34.68 51.9864C35.2524 52.8987 35.9322 53.7395 36.7014 54.473C38.383 56.1008 40.5117 57.2815 42.9625 57.7824C47.0948 58.6411 51.1556 57.3888 54.0715 54.7771C56.0393 53.024 57.4882 50.6269 58.0607 47.8541C58.0607 47.8362 58.0607 47.8362 58.0607 47.8183C58.2396 46.9775 58.329 46.1368 58.329 45.296ZM43.2845 56.2976C43.2129 56.2797 43.1593 56.2797 43.1056 56.2618C39.9035 55.5463 37.3097 53.507 35.7891 50.8415C34.4832 48.5339 33.9644 45.779 34.5369 42.9883C34.6621 42.4159 34.8231 41.8614 35.0199 41.3247C35.0378 41.2889 35.0557 41.2531 35.0557 41.2174C36.6478 37.085 40.5296 34.2765 44.8945 34.026C45.8605 33.9724 46.8444 34.026 47.8462 34.2407C49.9928 34.6879 51.8533 35.7076 53.338 37.1208C56.0571 39.7147 57.4167 43.6144 56.6117 47.55C55.3237 53.6322 49.3667 57.5677 43.2845 56.2976Z" fill="white"/>
<path d="M81.0658 40.0726C80.7259 39.8937 80.3681 39.7327 79.9924 39.5717C79.5631 39.3928 79.1159 39.2497 78.6687 39.1066C78.3467 39.0171 78.0425 38.9277 77.7027 38.874C77.0944 38.7488 76.5041 38.6772 75.9138 38.6415C75.1982 38.5878 74.4827 38.6057 73.785 38.6951C71.8351 38.9098 69.9926 39.5538 68.3647 40.5735C66.5758 41.6826 65.0553 43.2389 64.0177 45.1172C63.7315 45.6002 63.4989 46.1011 63.2843 46.602C63.2664 46.6378 63.2664 46.6557 63.2485 46.6914C62.9801 47.3712 62.7655 48.0868 62.6045 48.8202C61.5848 53.7575 63.5705 58.6233 67.3093 61.5213C68.5257 62.4694 69.921 63.2028 71.4594 63.65C71.692 63.7216 71.9246 63.7932 72.175 63.8289C72.3002 63.8647 72.4076 63.8826 72.5328 63.9184C73.7671 64.1688 75.0015 64.2404 76.2 64.1331C76.3968 64.1152 76.5935 64.0973 76.7724 64.0794C77.2912 64.0078 77.81 63.9184 78.3288 63.7753C79.2769 63.5248 80.2071 63.167 81.0658 62.7198C84.3394 61.0025 86.8438 57.8899 87.6488 53.9901C88.8116 48.2657 85.9673 42.6486 81.0658 40.0726ZM86.1462 53.6681C86.0925 53.9185 86.0388 54.1511 85.9673 54.3836C85.8778 54.7235 85.7705 55.0455 85.6453 55.3854C84.7509 57.7646 83.1051 59.6966 81.03 60.9667C80.2787 61.4318 79.4558 61.8075 78.5971 62.0937C78.0604 62.2726 77.5238 62.3978 76.9513 62.4873C76.7903 62.5231 76.6293 62.5409 76.4683 62.5588C75.2877 62.7019 74.0533 62.6662 72.819 62.4157C72.7117 62.3978 72.5865 62.3621 72.4791 62.3442C72.4076 62.3263 72.336 62.3084 72.2823 62.2905C70.4756 61.8254 68.8656 60.9309 67.5597 59.7324C67.3629 59.5535 67.184 59.3746 67.0051 59.1957C64.5186 56.6197 63.3022 52.881 64.0714 49.1064C64.2503 48.2656 64.5186 47.4428 64.8585 46.6914C65.9855 44.2228 67.9533 42.3087 70.3325 41.1817C71.7994 40.484 73.4272 40.1083 75.1088 40.1083C75.3771 40.1083 75.6454 40.1262 75.9317 40.1441C76.4147 40.1799 76.8977 40.2515 77.3807 40.3409C77.7384 40.4125 78.0783 40.5019 78.4182 40.6092C78.8833 40.7523 79.3305 40.9312 79.7778 41.128C80.1177 41.289 80.4575 41.4679 80.7974 41.6468C84.8582 44.026 87.148 48.8023 86.1462 53.6681Z" fill="white"/>
<path d="M17.7751 42.2548C17.6857 42.2369 17.5962 42.2011 17.5247 42.1474C17.1669 41.9149 17.0775 41.4498 17.2921 41.1099C22.3725 33.1673 34.5906 40.3049 34.698 40.3765C35.0557 40.5911 35.181 41.0563 34.9663 41.414C34.7516 41.7718 34.2865 41.897 33.9287 41.6823C33.8214 41.6108 22.8556 35.2245 18.5622 41.9328C18.4012 42.1832 18.0792 42.3084 17.7751 42.2548Z" fill="white"/>
<path d="M63.8214 47.0314C63.6246 46.9956 63.4636 46.8704 63.3384 46.7094C61.7105 44.2049 58.2401 45.3319 58.2043 45.3319C57.8107 45.4571 57.3814 45.2425 57.2562 44.8489C57.131 44.4554 57.3456 44.026 57.7392 43.9008C59.3313 43.3642 62.8196 43.0958 64.6264 45.8865C64.8589 46.2443 64.7516 46.7093 64.3938 46.924C64.2149 47.0313 64.0182 47.0671 63.8214 47.0314Z" fill="white"/>
<g opacity="0.8">
<g opacity="0.8">
<g opacity="0.8">
<g opacity="0.8">
<g opacity="0.8">
<g opacity="0.8">
<g opacity="0.8">
<path opacity="0.8" d="M74.5904 55.4927C74.1969 57.3889 73.8212 59.1778 73.4455 60.8593C69.993 60.0185 67.5065 58.3191 67.7927 56.9059C68.0968 55.5105 71.0663 54.9023 74.5904 55.4927Z" fill="#D96C63"/>
</g>
</g>
</g>
</g>
</g>
</g>
</g>
<path d="M51.0127 45.4749C50.6013 47.5321 49.3311 48.999 48.1863 48.7665C47.0414 48.5339 46.451 46.6914 46.8625 44.6341C47.2739 42.5769 48.544 41.1101 49.6889 41.3426C50.8338 41.5752 51.4241 43.4177 51.0127 45.4749Z" fill="#39393B"/>
<path d="M71.2988 49.5894C70.8874 51.6466 69.6173 53.1135 68.4724 52.8809C67.3275 52.6484 66.7372 50.8058 67.1487 48.7486C67.5601 46.6914 68.8302 45.2245 69.9751 45.4571C71.12 45.6896 71.7103 47.5322 71.2988 49.5894Z" fill="#39393B"/>
<path d="M60.8157 55.0989C61.7996 55.2957 62.4972 55.2599 62.5509 55.2599C62.7834 55.242 63.016 55.1347 63.177 54.9558C63.338 54.7769 63.3917 54.5265 63.3738 54.2939L62.0679 44.7234C61.9963 44.2583 61.567 43.9184 61.1019 43.99C60.6368 44.0615 60.2969 44.4909 60.3684 44.956L61.5312 53.4889C60.6726 53.3637 59.3846 53.0059 58.2218 52.0399C57.864 51.7358 57.3095 51.7895 57.0054 52.1473C56.7013 52.5051 56.7549 53.0596 57.1127 53.3637C58.3828 54.4013 59.7602 54.8843 60.8157 55.0989Z" fill="#39393B"/>
<path d="M23.0885 61.8613C22.9454 62.0759 18.9741 67.7825 14.7344 68.82C14.7165 68.8021 14.7165 68.8022 14.7165 68.8022C14.6808 67.3174 14.6986 65.8326 14.7165 64.3836C14.8596 64.4015 18.9025 64.5088 23.0885 61.8613Z" fill="#39393B"/>
<path d="M22.2119 46.8702C22.2119 46.8702 16.237 34.2049 8.49113 41.6288C2.10482 47.7647 7.68613 68.2295 18.7772 63.8467L22.2119 46.8702Z" fill="#EA9B7A"/>
<path d="M7.52506 57.8003C4.05463 58.9452 0.995646 62.0221 0.208537 65.8324C-0.936348 71.521 2.74874 77.0666 8.4195 78.2293C14.1082 79.3742 19.6537 75.6891 20.8165 70.0184C21.6751 65.7608 19.8326 61.5749 16.4516 59.2672C15.3246 58.4801 14.0187 57.9255 12.5876 57.6393C12.5518 57.6393 12.5161 57.6214 12.4803 57.6214C12.2835 58.337 12.3729 58.9094 12.7665 59.3567C13.9114 59.6608 14.9489 60.1795 15.8613 60.8593C18.4909 62.8629 19.9041 66.2438 19.2065 69.6964C18.2405 74.4906 13.5357 77.6032 8.74149 76.6372C3.94728 75.6712 0.834645 70.9665 1.80064 66.1723C2.49831 62.684 5.09218 60.2153 8.33005 59.4282L7.52506 57.8003Z" fill="#FAAF3A"/>
<path d="M18.3119 60.3228C18.3477 60.3228 18.3656 60.3407 18.4013 60.3407C18.8664 60.3765 19.2958 60.0366 19.3315 59.5536C20.2081 49.9831 12.981 45.1352 12.6769 44.9384C12.2834 44.6701 11.7467 44.7953 11.4783 45.1889C11.21 45.5824 11.3352 46.1191 11.7288 46.3874C11.9971 46.5663 18.4013 50.8954 17.6142 59.4105C17.5963 59.8398 17.9004 60.2334 18.3119 60.3228Z" fill="#39393B"/>
<path d="M11.4786 53.6144C11.6575 53.6502 11.8722 53.6323 12.0511 53.525C12.9097 53.0778 15.4321 52.076 16.8095 52.7379C17.2389 52.9525 17.7576 52.7737 17.9544 52.3443C18.1691 51.915 17.9902 51.3962 17.5608 51.1994C15.1637 50.0367 11.6575 51.8077 11.264 52.0044C10.8346 52.2191 10.6736 52.7379 10.9062 53.1672C11.0135 53.3998 11.2461 53.5608 11.4786 53.6144Z" fill="#39393B"/>
</svg>
