<svg width="93" height="95" viewBox="0 0 93 95" fill="none" xmlns="http://www.w3.org/2000/svg">
<path d="M44.4719 79.9608L21.0973 72.022C18.6273 71.1853 17.3086 68.5011 18.1453 66.0311C18.982 63.5611 21.6662 62.2424 24.1295 63.0791L47.5041 71.0179C49.9741 71.8546 51.2928 74.5388 50.4561 77.0021C49.6194 79.4788 46.9419 80.8042 44.4719 79.9608Z" stroke="#4D2C5E" stroke-opacity="0.1" stroke-width="3" stroke-miterlimit="10"/>
<path d="M41.3994 89.0107L18.0248 81.0719C15.5548 80.2352 14.2361 77.551 15.0728 75.0877C15.9095 72.6177 18.5937 71.299 21.0637 72.1357L44.4384 80.0679C46.9083 80.9046 48.227 83.5888 47.3903 86.0588C46.5469 88.5288 43.8694 89.8474 41.3994 89.0107Z" stroke="#4D2C5E" stroke-opacity="0.1" stroke-width="3" stroke-miterlimit="10"/>
<path d="M20.622 38.667C20.6487 38.7473 20.6688 38.8209 20.6956 38.9013C21.2177 40.568 24.2968 51.1307 23.0116 62.8515L48.0864 71.125C54.0305 60.9438 62.7926 54.2969 64.205 53.266C64.2719 53.2192 64.3389 53.1724 64.3991 53.1255C65.0819 52.6369 65.7445 52.1147 66.3871 51.5591C70.1624 48.2993 73.1344 44.0086 74.8079 38.9347C79.7412 23.9943 71.6284 7.88241 56.6879 2.94912C41.7474 -1.98418 25.6356 6.12865 20.7023 21.0691C19.0222 26.1497 18.8548 31.3641 19.9526 36.2305C20.14 37.0471 20.3609 37.8637 20.622 38.667Z" stroke="#4D2C5E" stroke-opacity="0.1" stroke-width="3" stroke-miterlimit="10"/>
<path d="M19.3035 81.6208C19.0224 86.5742 22.0747 91.2933 27.0147 92.9265C31.8878 94.533 37.0754 92.6253 39.8333 88.589L19.3035 81.6208Z" stroke="#4D2C5E" stroke-opacity="0.1" stroke-width="3" stroke-miterlimit="10"/>
<path d="M30.8632 65.3081L38.3134 42.7301C39.0497 40.5078 37.8381 38.1114 35.6158 37.3751C33.3934 36.6388 30.9971 37.8504 30.2608 40.0727C29.5244 42.295 30.736 44.6914 32.9584 45.4277L41.9012 48.3796" stroke="#4D2C5E" stroke-opacity="0.1" stroke-width="3" stroke-miterlimit="10"/>
<path d="M40.6897 68.5546L48.1399 45.9766C48.8762 43.7543 51.2726 42.5494 53.4949 43.279C55.7172 44.0153 56.9221 46.4117 56.1925 48.634C55.4562 50.8563 53.0598 52.0612 50.8375 51.3316L41.8946 48.3797" stroke="#4D2C5E" stroke-opacity="0.1" stroke-width="3" stroke-miterlimit="10"/>
<path d="M80.1028 46.7129L87.6533 49.2097" stroke="#4D2C5E" stroke-opacity="0.1" stroke-width="3" stroke-miterlimit="10" stroke-linecap="round"/>
<path d="M83.5631 37.2011L91.4283 36.0163" stroke="#4D2C5E" stroke-opacity="0.1" stroke-width="3" stroke-miterlimit="10" stroke-linecap="round"/>
<path d="M74.8211 54.8726L80.4305 60.5087" stroke="#4D2C5E" stroke-opacity="0.1" stroke-width="3" stroke-miterlimit="10" stroke-linecap="round"/>
<path d="M9.9717 23.5658L2.42117 21.0758" stroke="#4D2C5E" stroke-opacity="0.1" stroke-width="3" stroke-miterlimit="10" stroke-linecap="round"/>
<path d="M12.8572 13.8599L7.24783 8.22378" stroke="#4D2C5E" stroke-opacity="0.1" stroke-width="3" stroke-miterlimit="10" stroke-linecap="round"/>
<path d="M9.36287 33.2651L1.50442 34.4499" stroke="#4D2C5E" stroke-opacity="0.1" stroke-width="3" stroke-miterlimit="10" stroke-linecap="round"/>
</svg>
