<svg width="720" height="441" viewBox="0 0 720 441" fill="none" xmlns="http://www.w3.org/2000/svg">
<g opacity="0.8">
<g opacity="0.5">
<g opacity="0.5">
<g opacity="0.5">
<g opacity="0.5">
<path opacity="0.5" d="M385.995 160.683C354.745 156.065 325.132 143.331 299.573 124.016C261.397 95.1787 181.525 46.1028 105.329 70.5432C0.222363 104.258 -0.245426 201.798 27.1325 254.776C54.5104 307.754 248.638 462.916 500.327 438.229C725.549 416.143 769.429 163.258 649.314 117.499C545.143 77.8272 509.592 178.958 385.995 160.683Z" fill="#CED3E6"/>
</g>
</g>
</g>
</g>
<g opacity="0.5">
<g opacity="0.5">
<g opacity="0.5">
<g opacity="0.5">
<path opacity="0.5" d="M710.229 133.784C715.625 133.784 720 129.073 720 123.261C720 117.45 715.625 112.738 710.229 112.738C704.832 112.738 700.458 117.45 700.458 123.261C700.458 129.073 704.832 133.784 710.229 133.784Z" fill="#CED3E6"/>
</g>
</g>
</g>
</g>
<g opacity="0.8">
<g opacity="0.8">
<g opacity="0.8">
<g opacity="0.8">
<path opacity="0.8" d="M72.6497 53.9463C75.6513 53.4 78.6788 55.0519 79.7313 57.9135C81.5244 62.7911 76.8207 68.2671 70.4797 65.8088C65.0093 61.7636 67.4002 54.9218 72.6497 53.9463Z" fill="#CED3E6"/>
</g>
</g>
</g>
</g>
<g opacity="0.8">
<g opacity="0.8">
<path opacity="0.8" d="M692.558 38.2255C697.526 33.2526 697.526 25.19 692.558 20.2171C687.59 15.2442 679.536 15.2442 674.568 20.2171C669.6 25.19 669.6 33.2527 674.568 38.2255C679.536 43.1984 687.59 43.1984 692.558 38.2255Z" fill="#CED3E6"/>
</g>
</g>
<g opacity="0.8">
<g opacity="0.8">
<path opacity="0.8" d="M111.215 43.9047C113.125 50.7465 109.149 57.8484 102.314 59.7604C95.4797 61.6725 88.3851 57.6923 86.475 50.8505C84.5649 44.0088 88.541 36.9069 95.3758 34.9948C102.211 33.0698 109.305 37.063 111.215 43.9047Z" fill="#CED3E6"/>
</g>
</g>
<g opacity="0.8">
<g opacity="0.8">
<g opacity="0.8">
<g opacity="0.8">
<path opacity="0.8" d="M619.675 427.16C622.521 426.054 625.808 427.121 627.367 429.735C630.044 434.197 626.432 440.44 619.74 439.217C613.62 436.252 614.685 429.085 619.675 427.16Z" fill="#CED3E6"/>
</g>
</g>
</g>
</g>
<g opacity="0.8">
<g opacity="0.8">
<path opacity="0.8" d="M655.694 410.107C658.852 416.468 656.253 424.194 649.886 427.342C643.519 430.49 635.814 427.901 632.669 421.528C629.512 415.167 632.11 407.441 638.477 404.293C644.831 401.146 652.537 403.747 655.694 410.107Z" fill="#CED3E6"/>
</g>
</g>
<g opacity="0.8">
<g opacity="0.8">
<path opacity="0.8" d="M667.427 9.72195C667.427 14.0533 663.919 17.5522 659.605 17.5522C655.278 17.5522 651.783 14.0403 651.783 9.72195C651.783 5.39058 655.291 1.89166 659.605 1.89166C663.919 1.89166 667.427 5.40359 667.427 9.72195Z" fill="#CED3E6"/>
</g>
</g>
</g>
<g opacity="0.8">
<path opacity="0.8" d="M688.269 151.643C688.256 81.6643 630.044 4.97431 557.604 0.343771C556.33 0.265728 555.044 0.187686 553.745 0.135657C449.885 -4.716 441.972 122.09 348.001 136.398C254.03 150.706 182.265 78.5036 69.83 125.602C-31.1577 167.915 -58.5096 405.633 238.203 415.167C475.6 422.789 688.295 360.446 688.269 151.643Z" fill="#CED3E6"/>
</g>
</svg>
