<svg width="69" height="85" viewBox="0 0 69 85" fill="none" xmlns="http://www.w3.org/2000/svg">
<path d="M17.9475 59.8606C17.9475 59.8606 1.84965 50.8412 5.0143 32.0694C8.17895 13.2977 20.5236 2.00055 39.4462 7.4462C39.4462 7.4462 37.6154 61.7063 17.9475 59.8606Z" fill="#39393B"/>
<path d="M62.7232 25.341C62.7232 25.341 64.3709 41.4554 61.4286 43.7855C58.4993 46.1156 55.6223 39.7405 55.6223 39.7405C55.6223 39.7405 59.6239 25.5242 62.7232 25.341Z" fill="#39393B"/>
<path d="M55.3084 45.2516C55.3084 45.2516 60.1077 41.0365 61.7031 46.2072C63.2985 51.378 60.0685 60.8948 54.0922 58.3683L55.3084 45.2516Z" fill="#D46A43"/>
<path d="M61.2195 57.1901C60.5656 57.7923 59.8333 58.3159 59.0356 58.7479C56.0148 60.3711 52.0786 60.5675 47.3447 58.0803C47.3447 58.0803 41.29 50.1998 50.2347 36.2977C50.2347 36.2977 58.4341 34.1377 63.1288 39.099C63.6519 39.6488 64.1226 40.2772 64.541 41.0102C64.8026 41.4553 65.0249 41.9397 65.2342 42.4633C66.8949 46.6915 65.3518 53.4331 61.2195 57.1901Z" fill="#21B573"/>
<path d="M60.9972 37.4104C61.3765 35.5515 61.7556 33.2476 62.0041 30.695C61.8864 30.7473 61.7688 30.7866 61.638 30.7866C61.128 30.8259 60.631 30.6164 60.1341 30.2499C59.9118 32.6324 59.5718 34.7923 59.2318 36.5857L60.9972 37.4104Z" fill="white"/>
<path d="M61.2194 57.1902C60.5656 57.7924 59.8333 58.316 59.0356 58.748C63.181 50.1475 63.2987 42.2933 63.1287 39.0992C63.6518 39.649 64.1225 40.2773 64.541 41.0104C64.541 44.6233 63.9918 50.5664 61.2194 57.1902Z" fill="#217C58"/>
<path d="M41.316 68.5003L39.3414 81.8264C39.3414 81.8264 31.1944 92.2858 12.3372 75.2288C14.4819 69.8094 17.7773 62.8321 16.9273 57.4912C16.9273 57.4912 18.3004 58.761 20.6804 60.2664C21.1643 60.5806 21.6874 60.9078 22.2366 61.2351C27.1274 64.2066 34.6075 68.0291 41.316 68.5003Z" fill="#EA9B7A"/>
<path d="M41.316 68.5002L40.3875 74.7313C34.8821 72.6107 25.362 68.0159 20.6673 60.2532C21.1511 60.5674 21.6742 60.8947 22.2235 61.2219C27.1274 64.2065 34.6074 68.029 41.316 68.5002Z" fill="#39393B"/>
<path d="M59.4014 45.8408C59.1921 47.2153 58.996 48.5112 58.7868 49.7418C57.2698 58.9313 55.8836 63.8795 53.3336 65.8431C40.4265 75.7526 17.6725 58.2375 16.9401 57.6746C16.9271 57.6615 16.927 57.6615 16.927 57.6615C16.8486 56.5881 16.7963 55.5277 16.7701 54.4936C16.4694 45.6444 17.5547 37.633 19.5686 30.1584C20.3401 22.0815 26.2117 15.3268 34.1495 13.7036C42.375 12.028 48.8613 16.505 52.8759 18.4162C58.9306 21.3223 61.703 30.1322 60.0029 41.8351C59.7937 43.2358 59.5975 44.571 59.4014 45.8408Z" fill="#EA9B7A"/>
<path d="M47.8674 56.5488C40.6489 56.5488 37.7589 49.637 37.7327 49.5585C37.6019 49.2181 37.7589 48.8385 38.0989 48.7076C38.4389 48.5767 38.8181 48.7337 38.9489 49.0741C39.0796 49.3752 42.1004 56.5488 49.9728 55.0303C50.3259 54.9648 50.6659 55.2004 50.7444 55.5539C50.8098 55.9073 50.5744 56.2477 50.2213 56.3262C49.3844 56.4702 48.5998 56.5488 47.8674 56.5488Z" fill="#39393B"/>
<path d="M42.3096 31.5984C44.1666 30.957 43.7873 28.221 41.8258 28.0901C38.4911 27.8807 33.1295 27.9592 32.6849 30.6559C32.0311 34.5961 38.2558 32.9598 42.192 31.6377C42.2312 31.6246 42.2704 31.6115 42.3096 31.5984Z" fill="#39393B"/>
<path d="M52.1569 32.7633C50.7184 31.4281 52.1699 29.0718 54.0138 29.7525C57.1523 30.9045 62.03 33.143 61.35 35.7872C60.3692 39.662 55.3215 35.6432 52.2484 32.855C52.2092 32.8157 52.183 32.7895 52.1569 32.7633Z" fill="#39393B"/>
<path d="M42.5449 59.7691C43.8657 60.0963 44.9773 59.8476 45.0558 59.8214C45.2911 59.7691 45.435 59.5334 45.3827 59.2978C45.3304 59.0622 45.095 58.9182 44.8596 58.9705C44.8334 58.9705 42.6757 59.4549 41.0411 58.0149C40.858 57.8579 40.5833 57.8709 40.4264 58.0542C40.2695 58.2375 40.2826 58.5124 40.4657 58.6695C41.1326 59.2716 41.8649 59.5989 42.5449 59.7691Z" fill="#D46A43"/>
<path d="M47.0698 50.7891C46.9521 50.7367 46.8737 50.632 46.8214 50.5142C46.7429 50.2655 46.8736 49.9906 47.1221 49.912L50.2737 48.8779L48.4037 46.9798C48.2991 46.875 48.2467 46.731 48.2729 46.587L48.8483 41.3639C48.8744 41.1021 49.1099 40.9058 49.3845 40.945C49.646 40.9712 49.8422 41.2068 49.803 41.4686L49.2406 46.4561L51.4899 48.7339C51.6076 48.8517 51.6598 49.0219 51.6206 49.179C51.5814 49.336 51.4637 49.4669 51.3068 49.5193L47.4229 50.8022C47.3052 50.8676 47.1875 50.8545 47.0698 50.7891Z" fill="#39393B"/>
<path d="M38.9099 45.8016C38.753 46.8881 36.386 47.4249 33.6398 47.019C30.8936 46.6132 28.7883 45.3958 28.9583 44.3093C29.1152 43.2228 31.4821 42.6861 34.2283 43.0919C36.9614 43.5108 39.0668 44.7151 38.9099 45.8016Z" fill="#D46A43"/>
<g opacity="0.8">
<g opacity="0.8">
<g opacity="0.8">
<g opacity="0.8">
<g opacity="0.8">
<g opacity="0.8">
<g opacity="0.8">
<g opacity="0.8">
<g opacity="0.8">
<g opacity="0.8">
<g opacity="0.8">
<path opacity="0.8" d="M59.4016 47.1104C59.1924 48.4849 58.9963 49.7809 58.7871 51.0114C56.2763 50.5402 54.4324 49.4013 54.5893 48.3933C54.7331 47.3592 56.8516 46.8224 59.4016 47.1104Z" fill="#D46A43"/>
</g>
</g>
</g>
</g>
</g>
</g>
</g>
</g>
</g>
</g>
</g>
<path d="M41.5906 41.9267C41.3683 43.419 40.5183 44.5186 39.6813 44.4008C38.8444 44.283 38.3606 42.9739 38.5698 41.4816C38.7921 39.9893 39.6422 38.8897 40.4791 39.0075C41.316 39.1253 41.8129 40.4344 41.5906 41.9267Z" fill="#39393B"/>
<path d="M56.2894 44.1127C56.0671 45.605 55.2171 46.7046 54.3802 46.5868C53.5433 46.469 53.0594 45.1599 53.2686 43.6676C53.4909 42.1753 54.3409 41.0757 55.1779 41.1935C56.0279 41.3244 56.5117 42.6335 56.2894 44.1127Z" fill="#39393B"/>
<path d="M22.681 52.3598C22.5895 52.5169 19.9611 56.7582 16.9402 57.6745C16.9272 57.6614 16.9272 57.6614 16.9272 57.6614C16.8487 56.588 16.7964 55.5277 16.7702 54.4935C16.8749 54.4804 19.7779 54.4019 22.681 52.3598Z" fill="#39393B"/>
<path d="M21.4911 41.6126C21.4911 41.6126 16.731 32.7372 11.4479 38.3662C7.09323 43.0002 11.8009 57.7924 19.8172 53.8391L21.4911 41.6126Z" fill="#EA9B7A"/>
<path d="M19.2027 51.4174C18.8889 51.365 18.6665 51.1032 18.6796 50.7759C18.915 44.6234 14.1681 41.7697 13.9719 41.6518C13.6842 41.4817 13.5796 41.102 13.7496 40.801C13.9196 40.4999 14.2988 40.4083 14.5996 40.5784C14.8219 40.7093 20.1966 43.9165 19.922 50.8283C19.9089 51.1686 19.6212 51.4305 19.2812 51.4174C19.242 51.4174 19.2289 51.4174 19.2027 51.4174Z" fill="#39393B"/>
<path d="M14.0501 46.8488C13.867 46.8226 13.7101 46.7179 13.6055 46.5477C13.4355 46.2598 13.5271 45.8801 13.8278 45.6968C14.1025 45.5398 16.5479 44.126 18.3133 44.8722C18.6271 45.0031 18.771 45.3696 18.6402 45.6838C18.5094 45.9979 18.1433 46.1419 17.8294 46.011C16.8094 45.579 15.0048 46.4299 14.4555 46.7572C14.3247 46.8488 14.1809 46.875 14.0501 46.8488Z" fill="#39393B"/>
<path d="M36.2291 49.7418C31.5737 47.9615 29.2328 42.7253 31.0113 38.0651C32.7898 33.4048 38.0207 31.0617 42.6761 32.842C47.3316 34.6223 49.6723 39.8585 47.8939 44.5187C46.1154 49.1789 40.8846 51.5221 36.2291 49.7418ZM42.2054 34.0725C38.2299 32.554 33.7575 34.5568 32.2406 38.5363C30.7236 42.5158 32.7245 46.9928 36.6999 48.5113C40.6753 50.0298 45.1477 48.0269 46.6646 44.0474C48.1815 40.0679 46.1808 35.591 42.2054 34.0725Z" fill="white"/>
<path d="M31.299 39.2695C31.2205 39.2695 31.1421 39.2433 31.0636 39.204C26.1728 36.9655 21.5827 38.6673 21.5304 38.6935C21.1904 38.8244 20.8112 38.6542 20.6804 38.3139C20.5496 37.9735 20.7196 37.5939 21.0596 37.463C21.2689 37.3844 26.2251 35.5387 31.6128 38.0128C31.9398 38.1699 32.0836 38.5626 31.9398 38.8898C31.809 39.1386 31.5605 39.2826 31.299 39.2695Z" fill="white"/>
<path d="M56.2237 52.0065C51.5683 50.2262 49.2275 44.99 51.006 40.3298C52.7845 35.6695 58.0153 33.3263 62.6707 35.1066C67.3262 36.8869 69.6669 42.1231 67.8885 46.7834C66.1231 51.4436 60.8792 53.7868 56.2237 52.0065ZM62.2131 36.3372C58.2376 34.8187 53.7653 36.8215 52.2483 40.801C50.7314 44.7805 52.7321 49.2575 56.7076 50.776C60.683 52.2945 65.1554 50.2916 66.6723 46.3121C68.1762 42.3326 66.1885 37.8556 62.2131 36.3372Z" fill="white"/>
<path d="M47.4752 40.6832C47.3705 40.6308 47.2921 40.5523 47.2267 40.4475C47.0305 40.1334 47.1221 39.7276 47.436 39.5312C47.5275 39.4789 49.7245 38.1305 52.0129 39.8847C52.3006 40.1072 52.3529 40.5261 52.1306 40.8141C51.9083 41.1021 51.4898 41.1544 51.2021 40.9319C49.6328 39.7276 48.1421 40.6439 48.129 40.6439C47.9198 40.7879 47.6713 40.7879 47.4752 40.6832Z" fill="white"/>
<path d="M52.3138 10.2868C57.8061 12.7609 62.1215 17.3426 64.0438 23.05C65.2469 26.6237 66.2539 31.3494 61.2323 30.7341C47.5276 29.0717 40.1913 14.8292 40.1913 14.8292C40.1913 14.8292 37.5235 27.9459 26.7611 26.3488C15.9987 24.7387 16.3387 16.6226 22.4588 12.0278C27.4411 8.28393 40.139 4.80188 52.3138 10.2868Z" fill="#39393B"/>
<path d="M27.1798 24.8435C27.1798 24.8435 21.0598 31.4281 23.2567 38.51C25.4537 45.592 25.5976 51.2732 23.3091 55.0826C23.3091 55.0826 22.7206 47.621 19.9874 41.9659C17.7513 37.3188 15.6589 33.7844 17.2805 28.4303C18.379 24.7519 21.0728 21.2306 27.1798 24.8435Z" fill="#39393B"/>
<path d="M17.2281 56.9677C12.4811 58.1197 8.8064 57.452 6.08637 55.7372C5.65482 55.4623 5.24943 55.1612 4.85712 54.847C-0.844485 50.069 -1.26288 40.1595 2.22869 35.3029C3.45794 33.5881 4.88333 32.4361 6.38719 31.7031C6.84489 31.4674 7.30257 31.2841 7.76027 31.1402C13.658 29.2028 20.0528 32.7503 20.0528 32.7503C26.7351 51.1686 17.2281 56.9677 17.2281 56.9677Z" fill="#21B573"/>
<path d="M33.9277 65.0314C20.0529 62.1908 14.1551 52.1897 13.8805 51.7053C13.6582 51.3257 13.7889 50.8282 14.1812 50.6057C14.5605 50.3831 15.0574 50.5141 15.2798 50.9068C15.3713 51.0639 22.5768 63.1857 39.3939 64.102C39.8385 64.1282 40.1785 64.5078 40.1524 64.9529C40.1262 65.398 39.747 65.7383 39.3023 65.7121C37.3931 65.6074 35.6015 65.3718 33.9277 65.0314Z" fill="white"/>
<path d="M43.8139 65.5027C43.5262 66.8903 42.1662 67.7936 40.7801 67.5056C39.3939 67.2176 38.4915 65.8562 38.7792 64.4686C39.0669 63.081 40.4269 62.1777 41.8131 62.4657C43.1993 62.7406 44.1016 64.102 43.8139 65.5027Z" fill="#243434"/>
<path d="M6.08656 55.7502C5.65502 55.4753 5.24962 55.1742 4.85731 54.86C9.25121 44.9112 7.76047 36.2192 6.3743 31.716C6.83199 31.4804 7.28968 31.2971 7.74737 31.1531C9.22508 35.9181 10.8466 45.1992 6.08656 55.7502Z" fill="#217C58"/>
<path d="M62.4092 19.3194C61.2453 17.1332 59.9507 15.6802 59.3099 14.9602C58.7738 13.4024 58.1984 11.9363 57.3353 10.5749C54.4322 5.96703 49.8422 3.1395 43.6698 2.18389C37.0136 1.14974 31.2335 2.47187 26.4996 6.09794C25.0219 7.22372 23.7142 8.54588 22.5372 9.95965C20.9157 11.9363 19.5687 14.1224 18.4703 16.3085C14.6518 23.9534 13.7364 31.8077 13.7233 31.9124L11.9056 31.7161C11.984 30.9699 14.0371 13.3239 25.3749 4.63181C30.5142 0.691565 36.7651 -0.748383 43.9444 0.36431C50.666 1.39846 55.6877 4.51398 58.8785 9.5931C60.7354 12.5385 61.8338 15.8896 62.4092 19.3194Z" fill="white"/>
</svg>
