<svg width="424" height="308" viewBox="0 0 424 308" fill="none" xmlns="http://www.w3.org/2000/svg">
<path d="M406.511 7.60448V14.9062C406.511 19.1092 403.982 22.5107 400.848 22.5107H6.4291C3.29469 22.5107 0.765803 19.1092 0.765803 14.9062V7.60448C0.765803 3.40152 3.29469 0 6.4291 0H400.83C403.964 0 406.511 3.40152 406.511 7.60448Z" fill="#21B573"/>
<path d="M406.511 9.91957H0.765803V13.2677H406.511V9.91957Z" fill="#217C58"/>
<path d="M394.65 41.2637H23.9176C22.2613 41.2637 20.9078 39.9102 20.9078 38.2539V22.4038H397.66V38.2539C397.66 39.9102 396.306 41.2637 394.65 41.2637Z" fill="#217C58"/>
<path d="M377.999 134.298H46.4461V147.228H377.999V134.298Z" fill="#217C58"/>
<path d="M22.5464 307.403L86.7304 41.2636H64.1841L0 307.403H22.5464Z" fill="#21B573"/>
<path d="M401.471 307.403L337.269 41.2636H359.816L424 307.403H401.471Z" fill="#21B573"/>
</svg>
