<svg width="46" height="40" viewBox="0 0 46 40" fill="none" xmlns="http://www.w3.org/2000/svg">
<path d="M30.4359 39.6494C30.8636 39.7385 31.2913 39.792 31.719 39.8276C35.7109 40.1484 38.9544 38.99 41.3424 36.3882C48.2926 28.7964 45.4412 11.4743 45.3165 10.7436C45.2096 10.1555 44.6571 9.76347 44.0868 9.8704C43.4987 9.97732 43.1067 10.5298 43.2136 11.1001C43.2493 11.2783 46.0115 28.1192 39.7741 34.9446C37.8316 37.0653 35.2476 37.9742 31.9151 37.7069C17.9077 36.5842 2.20731 0.99549 2.04692 0.639068C1.81525 0.104436 1.1737 -0.145055 0.639068 0.0866193C0.104436 0.318293 -0.145055 0.959867 0.0866194 1.4945C0.692536 2.97365 15.591 36.6377 30.4359 39.6494Z" fill="white"/>
</svg>
