<svg width="502" height="467" viewBox="0 0 502 467" fill="none" xmlns="http://www.w3.org/2000/svg">
<path d="M259.883 467C391.764 467 498.675 461.479 498.675 454.668C498.675 447.857 391.764 442.335 259.883 442.335C128.002 442.335 21.0914 447.857 21.0914 454.668C21.0914 461.479 128.002 467 259.883 467Z" fill="#CED3E6"/>
<path d="M415.193 454.603H98.3108V440.865C98.3108 429.431 107.577 420.155 119 420.155H394.504C405.927 420.155 415.193 429.431 415.193 440.865V454.603Z" fill="white"/>
<path d="M313.295 346.33H198.428V420.142H313.295V346.33Z" fill="white"/>
<path d="M198.428 368.992L313.282 359.794L313.308 346.33L198.441 346.46L198.428 368.992Z" fill="#CED3E6"/>
<path d="M501.625 41.5076V330.993C501.625 339.475 494.751 346.356 486.278 346.356H15.3477C6.87463 346.356 0 339.475 0 330.993V41.5076C0 33.0259 6.87463 26.1442 15.3477 26.1442H486.278C486.512 26.1442 486.733 26.1442 486.954 26.1572C487.123 26.1702 487.291 26.1702 487.447 26.1832H487.46C487.577 26.1962 487.694 26.1962 487.811 26.2222C488.006 26.2353 488.201 26.2613 488.409 26.2873C488.539 26.3003 488.669 26.3263 488.799 26.3523C488.864 26.3653 488.916 26.3653 488.981 26.3784C489.111 26.3914 489.228 26.4174 489.358 26.4564C496.362 27.8874 501.625 34.0796 501.625 41.5076Z" fill="white"/>
<path d="M262.679 333.593C267.114 329.764 267.608 323.062 263.783 318.622C259.958 314.183 253.263 313.689 248.828 317.517C244.393 321.346 243.899 328.049 247.724 332.488C251.549 336.927 258.245 337.422 262.679 333.593Z" fill="#CED3E6"/>
<path d="M489.371 26.4564C489.241 26.4304 489.124 26.4044 488.994 26.3784C488.929 26.3653 488.877 26.3523 488.812 26.3523C488.682 26.3263 488.552 26.3003 488.422 26.2873C488.227 26.2613 488.032 26.2353 487.824 26.2222C487.707 26.2092 487.59 26.1962 487.473 26.1832H487.46C487.292 26.1702 487.136 26.1572 486.967 26.1572C486.746 26.1442 486.512 26.1442 486.291 26.1442H15.3477C6.87463 26.1442 0 33.0259 0 41.5076V309.58H501.625V41.5076C501.625 34.0796 496.362 27.8874 489.371 26.4564ZM481.729 282.795C481.729 285.111 479.858 286.971 477.558 286.971H24.0676C21.7544 286.971 19.8961 285.098 19.8961 282.795V50.2365C19.8961 47.921 21.7674 46.0607 24.0676 46.0607H477.558C479.871 46.0607 481.729 47.934 481.729 50.2365V282.795Z" fill="#39393B"/>
<path d="M481.73 50.2366V282.795C481.73 285.111 479.858 286.971 477.558 286.971H24.0678C21.7546 286.971 19.8963 285.098 19.8963 282.795V50.2366C19.8963 47.921 21.7676 46.0608 24.0678 46.0608H477.558C479.858 46.0608 481.73 47.934 481.73 50.2366Z" fill="#CED3E6"/>
<path d="M481.73 50.2366V72.1825H19.8963V50.2366C19.8963 47.921 21.7676 46.0608 24.0678 46.0608H477.558C479.858 46.0608 481.73 47.934 481.73 50.2366Z" fill="white"/>
<path d="M445.953 58.7705C445.953 60.7348 444.368 62.3219 442.405 62.3219C440.443 62.3219 438.858 60.7348 438.858 58.7705C438.858 56.8062 440.443 55.2191 442.405 55.2191C444.368 55.2191 445.953 56.8062 445.953 58.7705Z" fill="#DF615C"/>
<path d="M457.454 58.7705C457.454 60.7348 455.869 62.3219 453.906 62.3219C451.944 62.3219 450.359 60.7348 450.359 58.7705C450.359 56.8062 451.944 55.2191 453.906 55.2191C455.869 55.2191 457.454 56.8062 457.454 58.7705Z" fill="#21B573"/>
<path d="M424.459 62.53H63.3794C61.638 62.53 60.2215 61.099 60.2215 59.3688V58.185C60.2215 56.4418 61.651 55.0239 63.3794 55.0239H424.459C426.2 55.0239 427.617 56.4549 427.617 58.185V59.3688C427.63 61.099 426.2 62.53 424.459 62.53Z" fill="#D2DCEC"/>
<path d="M36.5693 58.7704V62.2437C36.5693 62.7381 36.0365 63.0373 35.6076 62.7901L32.6057 61.0469L29.6037 59.3037C29.1748 59.0566 29.1748 58.4452 29.6037 58.198L32.6057 56.4548L35.6076 54.7116C36.0365 54.4645 36.5693 54.7767 36.5693 55.258V58.7704Z" fill="black"/>
<path d="M41.8585 58.7704V62.2437C41.8585 62.7381 42.3913 63.0373 42.8201 62.7901L45.8221 61.0469L48.824 59.3037C49.2529 59.0566 49.2529 58.4452 48.824 58.198L45.8221 56.4548L42.8201 54.7116C42.3913 54.4645 41.8585 54.7767 41.8585 55.258V58.7704Z" fill="black"/>
<path d="M462.262 61.7622L462.054 61.554C461.716 61.2158 461.716 60.6825 462.054 60.3442L466.876 55.518C467.214 55.1797 467.746 55.1797 468.084 55.518L468.292 55.7261C468.63 56.0643 468.63 56.5977 468.292 56.9359L463.471 61.7622C463.133 62.1004 462.587 62.1004 462.262 61.7622Z" fill="#39393B"/>
<path d="M468.058 61.7622L468.266 61.554C468.604 61.2158 468.604 60.6825 468.266 60.3442L463.445 55.518C463.107 55.1797 462.574 55.1797 462.236 55.518L462.028 55.7261C461.691 56.0643 461.691 56.5977 462.028 56.9359L466.85 61.7622C467.188 62.1004 467.733 62.1004 468.058 61.7622Z" fill="#39393B"/>
<path d="M419.936 277.618H80.4418C75.8284 277.618 72.0987 273.871 72.0987 269.266V85.8417C72.0987 81.2236 75.8414 77.49 80.4418 77.49H419.936C424.549 77.49 428.279 81.2366 428.279 85.8417V269.279C428.292 273.884 424.549 277.618 419.936 277.618Z" fill="white"/>
<path d="M170.358 224.854H87.9012C85.744 224.854 83.9896 223.098 83.9896 220.938V178.048C83.9896 175.889 85.744 174.132 87.9012 174.132H170.358C172.515 174.132 174.269 175.889 174.269 178.048V220.938C174.269 223.098 172.515 224.854 170.358 224.854Z" fill="#CED3E6"/>
<path d="M410.748 140.14H328.292C326.134 140.14 324.38 138.384 324.38 136.225V93.3347C324.38 91.1752 326.134 89.419 328.292 89.419H410.748C412.905 89.419 414.66 91.1752 414.66 93.3347V136.225C414.66 138.384 412.905 140.14 410.748 140.14Z" fill="#CED3E6"/>
<path d="M172.203 136.836H85.9257C84.7821 136.836 83.8464 135.913 83.8464 134.755V134.56C83.8464 133.415 84.7691 132.478 85.9257 132.478H172.203C173.346 132.478 174.282 133.402 174.282 134.56V134.755C174.269 135.9 173.346 136.836 172.203 136.836Z" fill="#CED3E6"/>
<path d="M172.203 118.455H85.9257C84.7821 118.455 83.8464 117.531 83.8464 116.373V116.178C83.8464 115.034 84.7691 114.097 85.9257 114.097H172.203C173.346 114.097 174.282 115.021 174.282 116.178V116.373C174.269 117.531 173.346 118.455 172.203 118.455Z" fill="#CED3E6"/>
<path d="M172.203 155.205H85.9257C84.7821 155.205 83.8464 154.281 83.8464 153.123V152.928C83.8464 151.784 84.7691 150.847 85.9257 150.847H172.203C173.346 150.847 174.282 151.771 174.282 152.928V153.123C174.269 154.281 173.346 155.205 172.203 155.205Z" fill="#CED3E6"/>
<path d="M412.593 179.882H326.459C325.316 179.882 324.38 178.959 324.38 177.801V177.606C324.38 176.461 325.303 175.525 326.459 175.525H412.593C413.737 175.525 414.673 176.448 414.673 177.606V177.801C414.66 178.959 413.737 179.882 412.593 179.882Z" fill="#CED3E6"/>
<path d="M412.593 161.514H326.459C325.316 161.514 324.38 160.59 324.38 159.433V159.238C324.38 158.093 325.303 157.156 326.459 157.156H412.593C413.737 157.156 414.673 158.08 414.673 159.238V159.433C414.66 160.577 413.737 161.514 412.593 161.514Z" fill="#CED3E6"/>
<path d="M412.593 198.264H326.459C325.316 198.264 324.38 197.34 324.38 196.183V195.988C324.38 194.843 325.303 193.906 326.459 193.906H412.593C413.737 193.906 414.673 194.83 414.673 195.988V196.183C414.66 197.327 413.737 198.264 412.593 198.264Z" fill="#CED3E6"/>
<path d="M72.0987 246.54H428.292V275.771C428.292 276.785 427.46 277.618 426.446 277.618H73.944C72.9174 277.618 72.0987 276.785 72.0987 275.771V246.54Z" fill="#39393B"/>
<path d="M402.743 258.066V255.425H406.031V253.083H401.56C400.91 253.083 400.391 253.604 400.391 254.254V258.066H402.743Z" fill="white"/>
<path d="M402.743 262.749H400.404V266.755C400.404 267.406 400.924 267.926 401.573 267.926H406.044V265.585H402.756V262.749H402.743Z" fill="white"/>
<path d="M412.892 258.066H415.232V254.254C415.232 253.604 414.712 253.083 414.062 253.083H409.773V255.425H412.892V258.066Z" fill="white"/>
<path d="M412.892 262.749V265.585H409.773V267.926H414.062C414.712 267.926 415.232 267.406 415.232 266.755V262.749H412.892Z" fill="white"/>
<path d="M428.292 240.699H72.0987V246.54H428.292V240.699Z" fill="#CED3E6"/>
<path d="M97.9727 83.5911H101.988V92.3981H107.368V95.5202H97.9727V83.5911Z" fill="#39393B"/>
<path d="M108.473 83.5911H112.489V95.5202H108.473V83.5911Z" fill="#39393B"/>
<path d="M127.173 83.5911L122.131 95.5202H118.18L113.138 83.5911H117.466L120.312 90.5638L123.223 83.5911H127.173Z" fill="#39393B"/>
<path d="M137.479 92.4762V95.5073H127.564V83.5782H137.258V86.6092H131.514V88.0012H136.556V90.9021H131.514V92.4762H137.479Z" fill="#39393B"/>
<path d="M91.3578 89.4582C91.3578 92.1641 89.1615 94.3626 86.4585 94.3626C83.7554 94.3626 81.5592 92.1641 81.5592 89.4582C81.5592 86.7524 83.7554 84.5539 86.4585 84.5539C89.1615 84.5539 91.3578 86.7394 91.3578 89.4582Z" fill="#DF615C"/>
<path d="M381.872 220.886C381.872 223.267 379.948 225.192 377.57 225.192C375.192 225.192 373.269 223.267 373.269 220.886C373.269 218.506 375.192 216.58 377.57 216.58C379.948 216.567 381.872 218.506 381.872 220.886Z" fill="#DF615C"/>
<path d="M385.614 231.788H369.526C369.526 231.788 371.358 226.675 377.453 226.675C377.492 226.675 377.531 226.675 377.57 226.675C377.609 226.675 377.648 226.675 377.687 226.675C383.782 226.662 385.614 231.788 385.614 231.788Z" fill="#DF615C"/>
<path d="M400.455 218.272V220.977L396.115 231.319H391.306L395.439 221.68H392.931V223.579H389.305V218.272H400.455Z" fill="#39393B"/>
<path d="M411.891 227.911V231.319H401.443V228.613L406.147 224.256C407.044 223.423 407.174 222.916 407.174 222.46C407.174 221.823 406.745 221.433 405.913 221.433C405.133 221.433 404.393 221.862 403.99 222.642L400.676 220.99C401.625 219.195 403.509 217.972 406.316 217.972C409.409 217.972 411.579 219.572 411.579 222.057C411.579 223.345 411.241 224.503 409.344 226.22L407.486 227.911H411.891Z" fill="#39393B"/>
<path d="M347.057 125.571C347.057 125.571 350.267 135.9 358.311 136.719C364.809 137.37 369.89 130.501 371.605 127.834C372.021 127.197 372.229 126.806 372.229 126.806C372.229 126.806 372.697 126.793 373.399 126.676C375.036 126.429 377.895 125.688 378.753 123.502C379.974 120.406 373.789 119.261 373.789 119.261C373.789 119.261 376.44 116.126 375.413 114.266C374.399 112.432 370.267 112.601 370.267 112.601C370.267 112.601 374.243 109.14 372.437 106.864C369.708 103.443 365.757 108.178 365.42 108.451C365.666 108.087 375.868 92.5542 372.619 91.9297C369.786 91.3834 360.39 103.924 357.882 107.358C357.479 107.905 357.258 108.217 357.258 108.217C357.258 108.217 357.063 108.113 356.726 107.944C355.127 107.163 350.254 105.173 347.72 107.97C344.666 111.339 347.057 125.571 347.057 125.571Z" fill="#EA9B7A"/>
<path d="M366.875 121.161C365.653 122.136 364.64 123.359 364.406 124.491C364.263 125.219 364.432 125.857 364.913 126.338C365.238 126.676 365.757 126.936 366.381 127.132C367.941 127.639 370.124 127.782 371.592 127.821C372.008 127.184 372.216 126.793 372.216 126.793C372.216 126.793 372.697 126.78 373.386 126.676C373.282 126.611 373.165 126.585 373.048 126.585C370.722 126.637 366.693 126.377 365.783 125.466C365.666 125.349 365.536 125.154 365.614 124.751C365.874 123.515 367.876 121.629 369.734 120.9C370.033 120.783 370.189 120.471 370.111 120.159C370.033 119.847 369.721 119.652 369.409 119.704C367.889 119.938 363.652 120.276 362.327 118.936C362.132 118.741 362.158 118.624 362.171 118.559C362.236 118.26 362.547 117.921 362.989 117.57C363.899 116.855 365.368 116.113 366.459 115.684C366.589 115.632 366.68 115.554 366.745 115.45C366.862 115.281 366.888 115.072 366.81 114.877C366.68 114.552 366.329 114.396 366.004 114.526C365.523 114.721 363.821 115.411 362.508 116.373C362.041 116.725 361.612 117.102 361.326 117.518C361.144 117.778 361.014 118.038 360.949 118.312C360.871 118.702 360.884 119.274 361.443 119.834C362.625 120.991 364.991 121.213 366.875 121.161Z" fill="#D46A43"/>
<path d="M360.845 112.093C361.027 112.275 361.092 112.536 360.988 112.783C360.676 113.537 360.507 114.24 360.585 114.747C360.65 115.15 360.832 115.294 360.988 115.359C361.235 115.476 361.612 115.515 362.067 115.502C363.197 115.463 364.835 115.046 366.303 114.578C366.238 114.682 366.134 114.76 366.017 114.812C364.926 115.241 363.457 115.983 362.548 116.698C362.405 116.711 362.249 116.725 362.106 116.725C361.651 116.738 361.235 116.711 360.871 116.633C360.715 116.594 360.572 116.542 360.442 116.49C359.818 116.204 359.442 115.658 359.338 114.929C359.221 114.162 359.429 113.225 359.818 112.288C359.987 111.885 360.494 111.794 360.806 112.08C360.832 112.093 360.832 112.093 360.845 112.093Z" fill="#D46A43"/>
<path d="M349.695 114.175C349.825 114.266 351.865 115.593 354.126 116.334C355.387 116.738 356.712 116.972 357.817 116.686C358.74 116.464 359.429 115.931 359.87 115.112C361.456 112.211 359.312 108.997 357.882 107.345C357.479 107.892 357.258 108.204 357.258 108.204C357.258 108.204 357.063 108.1 356.725 107.931C357.947 109.284 360.065 112.146 358.779 114.5C358.506 115.007 358.09 115.32 357.518 115.463C355.374 115.996 351.631 113.954 350.371 113.121C350.085 112.926 349.695 113.004 349.513 113.303C349.331 113.602 349.409 113.993 349.695 114.175Z" fill="#D46A43"/>
<path d="M356.076 130.93C356.284 130.995 356.518 130.956 356.687 130.8C356.947 130.566 356.96 130.176 356.739 129.915C355.504 128.537 354.971 127.014 355.153 125.414C355.634 121.317 360.533 117.83 360.585 117.791C360.871 117.596 360.936 117.206 360.741 116.92C360.546 116.633 360.156 116.568 359.871 116.764C359.65 116.92 354.451 120.601 353.906 125.258C353.672 127.236 354.321 129.07 355.803 130.735C355.881 130.839 355.972 130.904 356.076 130.93Z" fill="#D46A43"/>
<path d="M278.363 79.7145L284.692 95.7413C285.64 98.4211 286.602 101.101 287.577 103.768C288.538 106.435 289.513 109.088 290.501 111.729C291.501 114.37 292.476 116.998 293.477 119.586C294.477 122.175 295.517 124.738 296.556 127.223C297.583 129.707 298.649 132.14 299.701 134.312C300.221 135.392 300.754 136.394 301.196 137.187L301.495 137.708L301.612 137.916C301.638 137.968 301.638 137.968 301.651 138.007C301.69 138.111 301.703 138.176 301.716 138.228C301.729 138.332 301.69 138.397 301.742 138.488C301.781 138.592 301.937 138.722 302.261 138.879C302.924 139.178 304.354 139.386 306.147 139.308C307.94 139.23 310.085 138.866 312.307 138.293C314.529 137.721 316.881 136.979 319.247 136.082C323.977 134.286 328.824 132.01 333.607 129.46C338.402 126.923 341.924 124.881 346.589 121.967C348.084 128.888 352.97 134.482 360.052 137.148C355.517 141.285 350.761 145.123 345.757 148.778C340.728 152.408 335.452 155.842 329.643 158.873C326.732 160.382 323.704 161.826 320.416 163.062C317.128 164.298 313.633 165.378 309.682 166.054C307.707 166.392 305.614 166.626 303.379 166.665C301.144 166.691 298.766 166.548 296.271 166.067C293.775 165.586 291.163 164.766 288.642 163.517C286.121 162.281 283.717 160.603 281.664 158.678C280.637 157.715 279.701 156.701 278.844 155.66L278.233 154.879L277.726 154.203C277.557 153.969 277.414 153.761 277.258 153.553C277.115 153.344 276.946 153.11 276.816 152.915C275.699 151.263 274.776 149.754 273.918 148.271C272.216 145.331 270.773 142.534 269.37 139.75C267.992 136.966 266.706 134.208 265.458 131.451C264.211 128.706 263.002 125.961 261.846 123.203C260.689 120.458 259.545 117.713 258.428 114.955C257.323 112.197 256.244 109.453 255.192 106.695C254.152 103.937 253.113 101.166 252.099 98.3951L250.604 94.2193L249.877 92.1119C249.63 91.3964 249.396 90.7199 249.149 89.9654L278.363 79.7145Z" fill="#21B573"/>
<path d="M295.595 146.398C295.842 146.398 296.075 146.294 296.231 146.072C296.257 146.033 299.311 141.988 301.962 140.088C302.326 139.828 302.404 139.334 302.144 138.97C301.884 138.605 301.391 138.527 301.027 138.787C298.168 140.83 295.075 144.941 294.945 145.11C294.685 145.461 294.75 145.968 295.101 146.229C295.257 146.346 295.426 146.398 295.595 146.398Z" fill="#217C58"/>
<path d="M301.027 147.191C301.079 147.191 301.144 147.191 301.196 147.178C301.625 147.087 301.897 146.658 301.807 146.229C301.794 146.19 301.066 142.794 301.794 140.232C301.91 139.802 301.664 139.36 301.248 139.243C300.819 139.126 300.377 139.373 300.26 139.789C299.415 142.742 300.208 146.424 300.247 146.58C300.325 146.944 300.65 147.191 301.027 147.191Z" fill="#217C58"/>
<path d="M293.606 232.607C278.817 241.128 243.067 245.512 219.753 236.25C211.202 232.854 209.694 230.76 210.344 215.384C210.37 214.811 210.396 214.239 210.422 213.666C210.487 212.457 210.565 211.247 210.656 210.05C210.695 209.464 210.747 208.892 210.786 208.32C210.955 206.173 211.163 204.066 211.397 202.049C211.462 201.49 211.527 200.944 211.579 200.397C212.112 195.896 212.969 191.851 213.749 188.715C213.892 188.156 214.035 187.61 214.165 187.115C214.997 184.045 215.659 182.198 215.659 182.198C219.415 182.809 223.288 183.161 227.186 183.317C227.732 183.343 228.291 183.356 228.837 183.369C249.006 183.902 269.526 179.336 279.038 176.851C279.61 176.708 280.143 176.565 280.637 176.422C283.106 175.759 284.509 175.329 284.509 175.329C284.509 175.329 285.38 176.851 286.602 179.375C286.823 179.843 287.07 180.338 287.303 180.871C289.24 185.034 291.709 191.07 293.112 197.366C293.138 197.444 293.151 197.522 293.164 197.6C293.281 198.147 293.398 198.693 293.515 199.24C293.541 199.344 293.567 199.461 293.58 199.565C294.542 204.131 295.426 208.931 296.023 213.51C296.101 214.096 296.166 214.681 296.244 215.266C297.427 225.335 297.609 230.305 293.606 232.607Z" fill="#39393B"/>
<path d="M293.606 199.578C293.567 199.565 293.528 199.539 293.502 199.526C290.501 197.887 287.849 195.402 285.575 192.111C285.263 191.668 284.964 191.2 284.666 190.719C282.378 186.998 280.494 182.367 279.052 176.864C279.623 176.721 280.156 176.578 280.65 176.435C282.066 181.873 283.912 186.4 286.16 189.99C286.459 190.472 286.771 190.927 287.083 191.382C288.863 193.932 290.89 195.935 293.139 197.379C293.165 197.457 293.178 197.535 293.191 197.613C293.308 198.16 293.425 198.706 293.541 199.253C293.554 199.357 293.58 199.474 293.606 199.578Z" fill="#585859"/>
<path d="M228.85 183.382C228.2 189.184 226.901 194.088 225.004 198.082C224.757 198.602 224.497 199.122 224.211 199.604C222.651 202.427 220.741 204.729 218.493 206.498C215.738 208.658 212.931 209.634 210.657 210.05C210.695 209.464 210.747 208.892 210.786 208.32C212.775 207.903 215.166 207.006 217.505 205.171C219.454 203.649 221.118 201.672 222.508 199.278C222.794 198.784 223.067 198.277 223.327 197.756C225.25 193.893 226.537 189.08 227.213 183.317C227.746 183.343 228.291 183.369 228.85 183.382Z" fill="#585859"/>
<path d="M287.317 180.884C286.173 181.392 284.952 181.912 283.639 182.445C283.132 182.653 282.612 182.862 282.08 183.07C274.464 186.049 264.497 189.106 253.736 190.212C253.321 190.251 252.905 190.29 252.502 190.329C242.742 191.226 232.801 190.81 224.614 190.042C224.029 189.99 223.457 189.938 222.885 189.873C219.428 189.522 216.323 189.119 213.749 188.729C213.892 188.169 214.035 187.623 214.165 187.128C216.816 187.519 220 187.935 223.561 188.299C224.12 188.351 224.692 188.403 225.263 188.455C233.606 189.21 243.73 189.587 253.568 188.572C264.068 187.493 273.802 184.514 281.274 181.613C281.807 181.405 282.314 181.196 282.82 181.001C284.172 180.455 285.432 179.922 286.602 179.401C286.836 179.856 287.07 180.364 287.317 180.884Z" fill="#585859"/>
<path d="M310.28 302.933C308.122 269.552 303.223 238.604 296.05 213.523L256.4 232.009C257.635 262.384 263.73 283.433 270.747 302.933H310.28Z" fill="#39393B"/>
<path d="M277.154 302.933C265.653 270.086 263.639 243.209 263.613 242.858C263.574 242.403 263.184 242.065 262.729 242.091C262.274 242.117 261.923 242.52 261.962 242.975C261.988 243.313 264.003 270.099 275.413 302.933H277.154Z" fill="#585859"/>
<path d="M248.512 302.933C250.955 279.218 253.775 250.091 254.139 238.812L210.344 215.37C210.344 215.37 202.625 242.038 207.693 302.92H248.512V302.933Z" fill="#39393B"/>
<path d="M244.509 302.933L251.852 242.208C251.917 241.687 251.553 241.219 251.033 241.167C250.513 241.102 250.045 241.466 249.993 241.986L242.625 302.933H244.509Z" fill="#585859"/>
<path d="M257.947 233.44C257.999 233.895 258.415 234.207 258.856 234.168C258.856 234.168 258.856 234.168 258.869 234.168C259.324 234.116 259.649 233.7 259.597 233.245C259.233 230.162 258.882 227 258.545 223.852C258.48 223.293 258.428 222.746 258.376 222.187C257.31 211.858 256.439 201.698 255.867 194.504C255.828 193.919 255.776 193.36 255.738 192.813C255.608 191.239 255.504 189.834 255.413 188.65C254.854 188.65 254.308 188.663 253.749 188.663C253.84 189.847 253.944 191.265 254.074 192.852C254.113 193.399 254.165 193.958 254.204 194.543C254.776 201.672 255.634 211.741 256.699 222.005C256.751 222.577 256.816 223.137 256.868 223.709C257.206 226.974 257.57 230.253 257.947 233.44Z" fill="#585859"/>
<path d="M253.827 223.059C254.1 223.137 255.335 223.501 256.868 223.696C257.401 223.774 257.973 223.826 258.544 223.839C259.077 223.852 259.597 223.839 260.117 223.787C261.118 223.67 262.04 223.41 262.781 222.877C263.691 222.213 264.185 221.212 264.198 219.976C264.263 216.724 263.327 203.494 262.612 194.153C262.573 193.581 262.534 193.021 262.482 192.475C262.365 190.979 262.261 189.626 262.17 188.468C261.624 188.494 261.066 188.52 260.52 188.533C260.611 189.691 260.715 191.07 260.832 192.592C260.871 193.139 260.91 193.698 260.962 194.27C261.663 203.598 262.599 216.802 262.534 219.95C262.521 220.678 262.287 221.186 261.793 221.55C261.001 222.122 259.701 222.252 258.363 222.187C257.791 222.161 257.219 222.096 256.686 222.005C255.698 221.849 254.828 221.641 254.295 221.485C253.853 221.355 253.398 221.602 253.268 222.044C253.138 222.473 253.385 222.929 253.827 223.059Z" fill="#585859"/>
<path d="M203.924 93.1785L267.134 91.5524C265.172 88.8076 265.354 62.5818 264.483 57.1701C263.574 51.5893 264.275 40.5058 265.107 31.4517C266.719 14.0719 252.618 -0.823214 235.205 0.035368C234.945 0.0483769 234.685 0.0613841 234.412 0.0743929C207.836 1.76554 205.887 24.557 208.356 38.3594C210.617 50.9129 212.19 85.1651 203.924 93.1785Z" fill="#39393B"/>
<path d="M217.635 175.355L222.729 196.755C235.465 195.74 250.526 193.893 261.871 188.026C261.871 188.026 276.985 193.112 284.653 190.745L279.039 175.368H217.635V175.355Z" fill="white"/>
<path d="M292.463 191.187C277.778 191.083 268.967 189.184 260.962 182.614C245.939 198.238 208.837 198.836 208.837 198.836C212.554 186.842 213.762 165.625 213.762 165.625C213.463 163.426 213.307 161.137 213.073 158.808C212.84 156.492 212.528 154.138 211.93 151.822C208.265 141.246 203.99 133.662 200.182 122.722C199.935 122.006 199.688 121.304 199.428 120.601C199.259 120.133 199.09 119.677 198.921 119.222C197.674 115.801 196.322 112.392 194.919 109.114C188.772 94.7916 187.784 78.6346 202.56 73.7043C203.639 73.353 204.691 73.0018 205.718 72.6766C212.71 70.4651 218.532 69.0081 220.156 68.6178C220.455 68.5528 220.598 68.5137 220.598 68.5137L251.618 71.0895L254.568 71.3367C258.908 71.818 263.496 71.7009 266.394 72.3383C268.941 72.8977 270.487 72.7676 273.087 73.5351C279.194 75.3434 279.025 83.5779 280.923 93.8029C280.949 93.972 280.988 94.1541 281.014 94.3362C281.027 94.3883 281.04 94.4533 281.053 94.5054C281.391 96.2486 281.781 97.9657 282.235 99.6699C282.742 101.569 283.301 103.455 283.886 105.277C287.46 116.503 291.774 121.655 291.033 128.732C290.358 135.132 283.847 143.861 282.118 145.721C281.716 146.15 281.482 146.385 281.482 146.385C281.482 146.411 281.495 146.45 281.495 146.489C281.521 146.736 281.547 147.009 281.586 147.295C281.716 148.375 281.91 149.65 282.144 151.107C282.677 156.505 283.444 161.41 284.302 165.768C284.77 168.122 285.263 170.321 285.783 172.35C288.889 184.643 292.463 191.187 292.463 191.187Z" fill="#21B573"/>
<path d="M285.783 172.324C281.586 174.549 278.194 176.032 278.194 176.032L275.062 170.126C278.064 169.046 281.274 167.446 284.302 165.729C284.991 167.563 285.627 169.423 285.783 172.324Z" fill="#217C58"/>
<path d="M218.102 166.782C218.102 166.782 232.216 172.779 242.664 173.794L241.065 180.285C241.065 180.285 223.95 177.463 217.102 172.571L218.102 166.782Z" fill="#217C58"/>
<path d="M284.016 144.758C284.224 144.758 284.432 144.68 284.601 144.511C284.991 144.108 293.944 134.534 290.825 125.805C289.955 123.372 288.954 120.926 287.876 118.338C284.627 110.454 280.949 101.53 280.013 89.9523C279.974 89.51 279.584 89.1848 279.156 89.2238C278.714 89.2629 278.389 89.6401 278.428 90.0824C279.389 101.907 283.119 110.962 286.407 118.949C287.473 121.525 288.473 123.957 289.331 126.351C292.125 134.156 283.548 143.327 283.457 143.419C283.158 143.744 283.171 144.251 283.483 144.55C283.613 144.693 283.808 144.758 284.016 144.758Z" fill="#217C58"/>
<path d="M257.947 110.636C257.947 111.599 257.167 112.38 256.205 112.38C255.244 112.38 254.464 111.599 254.464 110.636C254.464 109.674 255.244 108.893 256.205 108.893C257.167 108.893 257.947 109.674 257.947 110.636Z" fill="#217C58"/>
<path d="M260.546 126.078C260.546 127.04 259.766 127.821 258.804 127.821C257.843 127.821 257.063 127.04 257.063 126.078C257.063 125.115 257.843 124.335 258.804 124.335C259.766 124.335 260.546 125.115 260.546 126.078Z" fill="#217C58"/>
<path d="M262.092 141.766C262.092 142.729 261.312 143.51 260.351 143.51C259.389 143.51 258.609 142.729 258.609 141.766C258.609 140.804 259.389 140.023 260.351 140.023C261.325 140.023 262.092 140.804 262.092 141.766Z" fill="#217C58"/>
<path d="M262.768 157.91C262.768 158.873 261.988 159.654 261.027 159.654C260.065 159.654 259.285 158.873 259.285 157.91C259.285 156.948 260.065 156.167 261.027 156.167C261.988 156.167 262.768 156.948 262.768 157.91Z" fill="#217C58"/>
<path d="M262.69 174.692C262.69 175.654 261.911 176.435 260.949 176.435C259.987 176.435 259.207 175.654 259.207 174.692C259.207 173.729 259.987 172.949 260.949 172.949C261.911 172.949 262.69 173.729 262.69 174.692Z" fill="#217C58"/>
<path d="M248.044 71.0634C248.044 71.0634 254.776 70.4519 259.506 71.7138L258.999 89.4318L254.971 90.3034L258.363 93.6467L254.295 105.537C254.295 105.511 248.733 85.7373 248.044 71.0634Z" fill="#217C58"/>
<path d="M220.585 68.5137L208.265 71.883L222.742 91.1361L233.593 90.2645L229.786 98.5771L254.295 105.498C254.295 105.498 225.913 78.5175 223.639 68.7609L220.585 68.5137Z" fill="#217C58"/>
<path d="M222.742 69.9578C222.742 69.9578 229.824 85.0481 254.295 105.498C254.295 105.498 252.982 89.406 248.057 72.1563C248.057 72.1693 233.645 77.1907 222.742 69.9578Z" fill="white"/>
<path d="M257.7 118.142C249.643 118.142 233.19 106.591 232.489 106.096C232.19 105.888 232.125 105.472 232.333 105.173C232.541 104.873 232.957 104.808 233.255 105.017C233.424 105.134 250.059 116.829 257.7 116.829C265.016 116.829 266.628 108.828 266.654 108.75C266.719 108.386 267.07 108.152 267.434 108.23C267.797 108.295 268.031 108.646 267.953 109.01C267.94 109.075 266.095 118.142 257.7 118.142Z" fill="#217C58"/>
<path d="M248.044 71.0635L248.369 75.2394C248.993 83.0316 243.444 85.2431 235.387 81.1193C229.019 77.8541 223.613 72.9888 222.729 69.9708L248.044 71.0635Z" fill="#EA9B7A"/>
<path d="M236.504 150.665C236.634 150.899 236.881 151.029 237.128 151.029C237.245 151.029 237.375 151.003 237.479 150.938C237.596 150.873 249.24 144.303 263.457 147.087C270.682 148.492 276.816 148.349 281.585 147.282C281.546 146.996 281.521 146.736 281.495 146.476C281.495 146.437 281.482 146.411 281.482 146.372C281.482 146.372 281.715 146.137 282.118 145.721C277.453 146.905 271.215 147.139 263.73 145.669C248.967 142.781 237.258 149.403 236.764 149.689C236.426 149.884 236.309 150.313 236.504 150.665Z" fill="#217C58"/>
<path d="M261.339 19.0283C261.339 19.0283 264.912 33.0908 262.625 35.5365C260.338 37.9951 256.946 32.7266 256.946 32.7266C256.946 32.7266 258.623 19.6007 261.339 19.0283Z" fill="#39393B"/>
<path d="M257.401 37.6568C257.401 37.6568 261.105 33.2858 263.197 37.6568C265.289 42.0278 263.678 50.8868 258.051 49.4428L257.401 37.6568Z" fill="#D46A43"/>
<path d="M254.152 48.5322C252.099 49.4948 250.669 51.5762 250.669 53.9959C250.669 57.3261 253.372 60.032 256.699 60.032C260.026 60.032 262.729 57.3261 262.729 53.9959C262.729 51.6023 261.339 49.5339 259.324 48.5582C258.636 48.22 257.869 48.0118 257.063 47.9728C256.92 47.5955 256.79 47.2183 256.634 46.854C256.66 46.854 256.686 46.854 256.699 46.854C257.687 46.854 258.636 47.0622 259.48 47.4264C262.027 48.5192 263.834 51.0559 263.834 53.9959C263.834 57.9376 260.637 61.1377 256.699 61.1377C252.762 61.1377 249.565 57.9376 249.565 53.9959C249.565 51.3421 251.02 49.0265 253.164 47.7907L254.152 48.5322Z" fill="white"/>
<path d="M248.057 60.0971V72.1563C248.057 72.1563 241.702 82.5763 222.742 69.9578C226.329 65.938 226.446 58.1848 224.99 53.5536C224.99 53.5536 226.381 54.4903 228.681 55.518C229.149 55.7261 229.655 55.9473 230.188 56.1684C234.919 58.1718 242.053 60.5654 248.057 60.0971Z" fill="#EA9B7A"/>
<path d="M248.057 60.097V65.7428C242.898 64.598 233.866 61.7751 228.681 55.5179C229.149 55.726 229.656 55.9472 230.188 56.1683C234.919 58.1717 242.053 60.5653 248.057 60.097Z" fill="#39393B"/>
<path d="M258.363 56.1554C248.239 66.6405 225.77 54.126 225.042 53.7228C225.029 53.7097 225.029 53.7098 225.029 53.7098C224.821 52.7731 224.639 51.8365 224.47 50.9259C223.041 43.1206 222.95 35.8877 223.743 29.006C223.366 21.7471 227.68 14.9955 234.503 12.4978C241.573 9.92206 247.914 13.0312 251.722 14.202C257.466 15.9712 261.092 23.4122 261.118 34.0144C261.131 47.0102 260.871 53.5536 258.363 56.1554Z" fill="#EA9B7A"/>
<path d="M259.896 21.9162C257.557 22.2414 255.153 22.4885 252.683 22.6837L251.332 16.2053L250.89 22.8138C246.342 23.126 241.624 23.243 236.777 23.243L236.179 16.4264L234.854 23.243C231.267 23.23 227.628 23.152 223.963 23.0479C221.026 9.45371 235.75 3.53469 248.135 6.3576C260.507 9.19353 259.896 21.9162 259.896 21.9162Z" fill="#39393B"/>
<path d="M233.359 19.0282C233.359 19.0282 228.798 25.1163 231.293 30.7752C233.788 36.434 232.047 41.9758 230.864 46.0996C230.864 46.0996 228.278 36.9934 222.183 35.3022C216.088 33.5981 219.233 16.9078 233.359 19.0282Z" fill="#39393B"/>
<path d="M249.669 50.4315C251.007 50.6396 252.086 50.2753 252.151 50.2493C252.372 50.1713 252.502 49.9241 252.424 49.703C252.346 49.4818 252.099 49.3517 251.878 49.4298C251.852 49.4428 249.76 50.1192 248.018 48.8444C247.823 48.7013 247.55 48.7403 247.407 48.9354C247.264 49.1306 247.303 49.4038 247.498 49.5339C248.226 50.0802 248.98 50.3274 249.669 50.4315Z" fill="#D46A43"/>
<path d="M256.101 43.654C256.101 43.654 249.058 46.1127 243.769 42.6263C243.769 42.6263 245.627 47.3875 250.189 47.8429C254.75 48.2852 256.101 43.654 256.101 43.654Z" fill="white"/>
<path d="M244.886 24.3617C244.886 24.3617 246.992 24.5699 246.251 26.4952C245.51 28.4205 241.3 26.3 238.285 29.8515C238.285 29.8645 236.998 25.2333 244.886 24.3617Z" fill="#39393B"/>
<path d="M254.412 24.3617C254.412 24.3617 252.307 24.5699 253.048 26.4952C253.788 28.4205 257.999 26.3 261.014 29.8515C261.014 29.8645 262.3 25.2333 254.412 24.3617Z" fill="#39393B"/>
<g opacity="0.8">
<g opacity="0.8">
<g opacity="0.8">
<g opacity="0.8">
<g opacity="0.8">
<g opacity="0.8">
<g opacity="0.8">
<path opacity="0.8" d="M243.743 38.6585C243.743 39.6342 241.729 40.4407 239.234 40.4407C236.738 40.4407 234.724 39.6472 234.724 38.6585C234.724 37.6829 236.738 36.8763 239.234 36.8763C241.729 36.8763 243.743 37.6829 243.743 38.6585Z" fill="#D46A43"/>
</g>
</g>
</g>
</g>
</g>
</g>
</g>
<path d="M262.118 40.3887C261.767 40.4277 261.403 40.4407 261.027 40.4407C258.531 40.4407 256.517 39.6472 256.517 38.6585C256.517 37.6829 258.531 36.8763 261.027 36.8763C261.365 36.8763 261.689 36.8893 262.001 36.9153L262.118 40.3887Z" fill="#D46A43"/>
<path d="M244.262 34.0012C244.262 35.3541 243.652 36.4469 242.898 36.4469C242.144 36.4469 241.533 35.3541 241.533 34.0012C241.533 32.6483 242.144 31.5556 242.898 31.5556C243.652 31.5686 244.262 32.6613 244.262 34.0012Z" fill="#39393B"/>
<path d="M257.583 34.0012C257.583 35.3541 256.972 36.4469 256.218 36.4469C255.465 36.4469 254.854 35.3541 254.854 34.0012C254.854 32.6483 255.465 31.5556 256.218 31.5556C256.972 31.5686 257.583 32.6613 257.583 34.0012Z" fill="#39393B"/>
<path d="M252.359 39.1398C253.008 39.1398 253.437 39.0357 253.476 39.0227C253.632 38.9837 253.749 38.8796 253.827 38.7495C253.905 38.6064 253.918 38.4503 253.866 38.3072L251.813 32.4272C251.709 32.141 251.397 31.9849 251.111 32.089C250.825 32.1931 250.669 32.5053 250.773 32.7915L252.593 38.021C252.034 38.047 251.176 37.995 250.318 37.5267C250.046 37.3836 249.708 37.4877 249.565 37.7478C249.422 38.021 249.526 38.3592 249.786 38.5023C250.734 39.0227 251.67 39.1398 252.359 39.1398Z" fill="#39393B"/>
<path d="M229.422 48.259C229.357 48.4151 227.589 52.5259 225.042 53.7227C225.029 53.7097 225.029 53.7097 225.029 53.7097C224.821 52.7731 224.64 51.8365 224.471 50.9259C224.549 50.8998 227.122 50.4575 229.422 48.259Z" fill="#39393B"/>
<path d="M226.953 38.8927C226.953 38.8927 221.573 31.6598 217.622 37.3447C214.373 42.0278 220.494 54.5163 227.07 49.9502L226.953 38.8927Z" fill="#EA9B7A"/>
<path d="M221.377 50.0282C219.324 50.9908 217.895 53.1113 217.895 55.5179C217.895 58.8482 220.598 61.554 223.925 61.554C227.251 61.554 229.954 58.8482 229.954 55.5179C229.954 53.1243 228.564 51.0559 226.55 50.0802C225.861 49.742 225.094 49.5338 224.288 49.4948C224.145 49.1176 224.016 48.7403 223.86 48.3761C223.886 48.3761 223.912 48.3761 223.925 48.3761C224.912 48.3761 225.861 48.5842 226.706 48.9485C229.253 50.0412 231.059 52.5779 231.059 55.5179C231.059 59.4596 227.862 62.6598 223.925 62.6598C219.987 62.6598 216.79 59.4596 216.79 55.5179C216.79 52.8641 218.285 50.5095 220.429 49.2737C220.728 49.5599 221.04 49.82 221.377 50.0282Z" fill="white"/>
<path d="M226.212 47.8818C226.238 47.8818 226.251 47.8818 226.277 47.8818C226.576 47.8428 226.797 47.5696 226.771 47.2704C226.095 41.1172 220.923 38.9838 220.702 38.8927C220.416 38.7757 220.091 38.9188 219.987 39.205C219.87 39.4911 220.013 39.8164 220.299 39.9204C220.507 39.9985 225.081 41.9108 225.679 47.3875C225.692 47.6737 225.939 47.8818 226.212 47.8818Z" fill="#39393B"/>
<path d="M221.04 44.5255C221.157 44.5255 221.287 44.4864 221.39 44.3954C221.871 44.0051 223.327 43.0425 224.288 43.2896C224.587 43.3677 224.886 43.1856 224.964 42.8863C225.042 42.5871 224.86 42.2879 224.561 42.2099C222.898 41.7806 220.91 43.3547 220.689 43.5238C220.455 43.7189 220.416 44.0701 220.611 44.3043C220.728 44.4474 220.884 44.5255 221.04 44.5255Z" fill="#39393B"/>
<path d="M184.276 153.474C184.276 153.474 186.043 157.299 184.003 165.638C181.962 173.989 178.545 179.219 178.545 179.219C178.545 179.219 169.981 166.223 184.276 153.474Z" fill="#217C58"/>
<path d="M146.536 145.487C146.562 145.903 146.588 146.333 146.627 146.736C146.679 147.152 146.744 147.555 146.809 147.972C146.848 148.167 146.874 148.375 146.926 148.583L147.069 149.168C147.433 150.756 148.005 152.173 148.629 153.474C148.94 154.099 149.291 154.736 149.629 155.283C149.811 155.556 149.98 155.842 150.162 156.115L150.708 156.883C152.189 158.899 153.762 160.408 155.282 161.696C156.816 162.984 158.336 164.038 159.818 164.987C160.558 165.468 161.299 165.898 162.04 166.327C162.781 166.756 163.495 167.147 164.223 167.537C165.679 168.291 167.108 169.007 168.538 169.657C171.397 170.971 174.23 172.077 177.063 173.079C179.883 174.08 182.716 174.978 185.523 175.797C188.343 176.63 191.15 177.385 193.97 178.074C196.79 178.763 199.61 179.388 202.456 179.986C203.482 180.194 204.899 180.338 206.38 180.455C208.642 180.624 211.098 180.754 212.709 181.027C213.099 178.685 211.124 176.799 211.514 174.458C211.969 171.726 212.423 168.981 212.917 166.249L211.787 163.803C210.071 163.387 208.356 162.945 206.627 162.489C206.575 162.476 206.523 162.463 206.471 162.45C203.963 161.774 201.481 161.019 199.012 160.213C196.504 159.406 194.009 158.535 191.553 157.611C189.109 156.688 186.718 155.699 184.392 154.645C182.079 153.591 179.818 152.486 177.725 151.302C176.686 150.716 175.659 150.118 174.723 149.481C174.256 149.168 173.788 148.856 173.359 148.531C172.93 148.206 172.514 147.881 172.124 147.555C171.527 147.061 170.981 146.541 170.539 146.059C170.409 145.916 170.292 145.786 170.175 145.643L170.149 145.617L170.552 145.071L171.28 144.082C171.657 143.562 172.02 143.054 172.436 142.521C173.242 141.467 174.022 140.426 174.84 139.373L177.323 136.225C179.012 134.13 180.688 132.01 182.417 129.915L183.703 128.341L185.003 126.767L186.835 124.556L187.615 123.619L188.564 122.474L190.24 120.458L192.891 117.31C194.646 115.215 196.413 113.108 198.193 111.027L208.811 98.4861L208.876 98.408C213.346 93.1264 212.696 85.2041 207.42 80.729C202.183 76.293 194.373 76.9044 189.876 82.0559L187.095 85.2561L184.366 88.4563C183.456 89.523 182.56 90.6027 181.663 91.6694C180.766 92.7362 179.857 93.8159 178.973 94.8956C177.193 97.0551 175.412 99.2276 173.645 101.413L171.007 104.704L170.656 105.147L168.382 108.022C167.511 109.127 166.64 110.246 165.783 111.352L164.483 113.03L163.898 113.797L163.196 114.721C161.481 116.972 159.779 119.248 158.089 121.551L155.568 125.05C154.736 126.221 153.905 127.444 153.073 128.641C152.657 129.226 152.241 129.85 151.825 130.488L150.591 132.361L150.279 132.829L150.201 132.946L150.162 133.011L150.097 133.103L149.837 133.519C149.668 133.805 149.499 134.078 149.33 134.364C149.252 134.507 149.161 134.664 149.083 134.82L148.849 135.288C148.694 135.6 148.538 135.899 148.382 136.225C148.239 136.563 148.096 136.901 147.966 137.239L147.771 137.76C147.706 137.929 147.641 138.124 147.589 138.306C147.472 138.67 147.355 139.048 147.251 139.412C147.147 139.789 147.069 140.192 146.978 140.583C146.9 140.973 146.809 141.363 146.757 141.779C146.705 142.196 146.653 142.599 146.614 143.015C146.575 143.432 146.562 143.848 146.549 144.277L146.536 144.902C146.523 145.071 146.536 145.279 146.536 145.487Z" fill="#EA9B7A"/>
<path d="M201.352 160.941C201.352 160.941 199.324 158.964 196.829 159.471C196.829 159.471 190.929 169.475 193.996 178.061C193.996 178.061 195.361 179.297 198.233 179.063C198.22 179.063 195.361 168.747 201.352 160.941Z" fill="black"/>
<path d="M189.903 169.683C190.084 172.974 192.905 175.485 196.179 175.303C199.467 175.121 201.975 172.298 201.793 169.02C201.611 165.728 198.791 163.218 195.517 163.4C192.229 163.569 189.708 166.392 189.903 169.683Z" fill="black"/>
<path d="M196.102 173.794C198.558 173.651 200.442 171.544 200.299 169.098C200.156 166.639 198.051 164.753 195.595 164.896C193.139 165.039 191.254 167.147 191.397 169.592C191.54 172.038 193.645 173.937 196.102 173.794Z" fill="white"/>
<path d="M206.368 180.142C208.629 180.312 211.085 180.442 212.697 180.715C213.087 178.373 211.111 176.487 211.501 174.145C211.956 171.414 212.411 168.669 212.905 165.937L211.774 163.491C210.059 163.075 208.343 162.633 206.615 162.177C206.563 162.164 206.511 162.151 206.459 162.138C205.757 166.015 204.665 174.171 206.368 180.142Z" fill="#D46A43"/>
<path d="M211.917 86.8952C213.125 90.7978 212.203 95.0647 209.526 98.1478C204.509 103.95 194.919 115.163 189.604 122.201C182.17 132.036 172.787 144.381 172.787 144.381C172.787 144.381 179.545 150.326 184.288 153.461C184.288 153.461 172.696 163.27 178.557 179.206C178.557 179.206 157.726 167.745 147.186 156.74C139.493 148.7 141.624 138.67 148.655 129.07C152.203 124.23 179.584 92.9963 189.305 82.0689C192.891 78.0362 198.557 76.4231 203.652 78.1792C206.901 79.324 210.331 81.7697 211.917 86.8952Z" fill="#21B573"/>
<path d="M206.848 165.104C206.848 165.104 207.667 160.33 208.902 155.751C209.928 151.926 212.008 150.742 212.008 150.742C212.463 153.344 213.099 154.918 213.177 159.653C213.177 159.653 214.334 158.574 216.439 159.003C218.544 159.432 225.796 160.967 225.9 162.645C226.108 166.483 217.024 164.662 217.024 164.662C217.024 164.662 226.758 166.496 226.511 169.189C226.316 171.361 217.505 171.778 217.505 171.778C217.505 171.778 226.004 171.856 224.977 174.913C223.899 178.152 216.01 176.11 216.01 176.11C216.01 176.11 221.689 178.841 221.143 179.986C220.351 181.638 216.985 182.094 211.553 180.767C205.965 179.401 206.848 165.104 206.848 165.104Z" fill="#EA9B7A"/>
<path d="M196.816 115.189C196.608 115.215 196.387 115.163 196.218 115.02C195.906 114.747 195.854 114.279 196.127 113.966L208.707 99.0194C208.98 98.7072 209.448 98.6551 209.76 98.9283C210.071 99.2015 210.123 99.6698 209.851 99.982L197.271 114.929C197.154 115.072 196.985 115.163 196.816 115.189Z" fill="#217C58"/>
<path d="M210.487 104.106L205.731 104.834C205.315 104.899 204.938 104.613 204.873 104.21C204.808 103.794 205.094 103.416 205.497 103.351L210.253 102.623C210.669 102.558 211.046 102.844 211.111 103.247C211.176 103.663 210.89 104.041 210.487 104.106Z" fill="#217C58"/>
<path d="M159.298 147.62C159.376 147.724 159.48 147.789 159.597 147.802C159.727 147.828 159.87 147.802 159.987 147.711C163.573 145.045 169.954 144.758 173.112 144.797C172.982 144.654 172.865 144.524 172.748 144.381L172.722 144.355L173.125 143.796C172.839 143.796 172.527 143.783 172.189 143.796C170.214 141.896 164.886 140.049 164.652 139.971C164.392 139.88 164.119 140.023 164.028 140.27C163.937 140.53 164.08 140.804 164.327 140.895C164.379 140.908 168.434 142.313 170.669 143.835C167.186 143.991 162.43 144.641 159.389 146.918C159.181 147.1 159.142 147.399 159.298 147.62Z" fill="#217C58"/>
</svg>
