<svg width="120" height="70" viewBox="0 0 120 70" fill="none" xmlns="http://www.w3.org/2000/svg">
<path d="M62.4739 55.2464H52.932C52.0682 55.2464 51.3744 54.552 51.3744 53.6873V2.77107C51.3744 1.9063 52.0682 1.21187 52.932 1.21187H62.4739C63.3378 1.21187 64.0315 1.9063 64.0315 2.77107V53.6873C64.0315 54.552 63.3378 55.2464 62.4739 55.2464Z" fill="#0875F7"/>
<path d="M60.5893 30.0766H54.8301C53.9924 30.0766 53.2987 29.3952 53.2987 28.5436V27.9016C53.2987 27.063 53.9793 26.3686 54.8301 26.3686H60.5893C61.427 26.3686 62.1207 27.0499 62.1207 27.9016V28.5436C62.1076 29.3952 61.427 30.0766 60.5893 30.0766Z" fill="#084FC7"/>
<path d="M64.0315 5.57509H51.3744V7.65838H64.0315V5.57509Z" fill="#084FC7"/>
<path d="M64.0315 9.93807H51.3744V12.0214H64.0315V9.93807Z" fill="#084FC7"/>
<path d="M64.0315 42.144H51.3744V44.2274H64.0315V42.144Z" fill="#084FC7"/>
<path d="M64.0315 46.507H51.3744V48.5903H64.0315V46.507Z" fill="#084FC7"/>
<path d="M38.338 55.2464H26.4662C26.2568 55.2464 26.0735 55.0761 26.0735 54.8534V1.60495C26.0735 1.39531 26.2437 1.21187 26.4662 1.21187H38.338C38.5474 1.21187 38.7306 1.38221 38.7306 1.60495V54.8534C38.7306 55.0761 38.5474 55.2464 38.338 55.2464Z" fill="#21B573"/>
<path d="M35.2751 30.0766H29.5159C28.6782 30.0766 27.9845 29.3952 27.9845 28.5436V27.9016C27.9845 27.063 28.6651 26.3686 29.5159 26.3686H35.2751C36.1128 26.3686 36.8065 27.0499 36.8065 27.9016V28.5436C36.8065 29.3952 36.1128 30.0766 35.2751 30.0766Z" fill="#217C58"/>
<path d="M38.7306 5.57509H26.0735V7.65838H38.7306V5.57509Z" fill="#217C58"/>
<path d="M38.7306 9.93807H26.0735V12.0214H38.7306V9.93807Z" fill="#217C58"/>
<path d="M38.7306 42.144H26.0735V44.2274H38.7306V42.144Z" fill="#217C58"/>
<path d="M38.7306 46.507H26.0735V48.5903H38.7306V46.507Z" fill="#217C58"/>
<path d="M49.8168 55.2464H40.2749C39.4111 55.2464 38.7173 54.552 38.7173 53.6873V2.77107C38.7173 1.9063 39.4111 1.21187 40.2749 1.21187H49.8168C50.6807 1.21187 51.3744 1.9063 51.3744 2.77107V53.6873C51.3744 54.552 50.6807 55.2464 49.8168 55.2464Z" fill="#DF615C"/>
<path d="M47.9322 30.0766H42.173C41.3353 30.0766 40.6416 29.3952 40.6416 28.5436V27.9016C40.6416 27.063 41.3222 26.3686 42.173 26.3686H47.9322C48.7699 26.3686 49.4636 27.0499 49.4636 27.9016V28.5436C49.4636 29.3952 48.7699 30.0766 47.9322 30.0766Z" fill="#A92F4B"/>
<path d="M51.3877 5.57509H38.7306V7.65838H51.3877V5.57509Z" fill="#A92F4B"/>
<path d="M51.3877 9.93807H38.7306V12.0214H51.3877V9.93807Z" fill="#A92F4B"/>
<path d="M51.3877 42.144H38.7306V44.2274H51.3877V42.144Z" fill="#A92F4B"/>
<path d="M51.3877 46.507H38.7306V48.5903H51.3877V46.507Z" fill="#A92F4B"/>
<path d="M84.5947 53.3466L72.867 55.2334C72.6575 55.2727 72.4481 55.1285 72.4219 54.9058L63.9533 2.33869C63.9141 2.12905 64.058 1.91942 64.2806 1.89321L76.0083 0.0064525C76.2177 -0.0328549 76.4272 0.111272 76.4533 0.334014L84.922 52.9011C84.9481 53.1108 84.8042 53.3073 84.5947 53.3466Z" fill="#FAAF3A"/>
<path d="M78.7438 28.7926L70.7202 30.0897C70.537 30.1159 70.3668 29.998 70.3276 29.8146L69.8433 26.8272C69.8171 26.6438 69.9349 26.4734 70.1181 26.4341L78.1417 25.137C78.325 25.1108 78.4951 25.2287 78.5344 25.4121L79.0187 28.3995C79.0449 28.5829 78.9271 28.7664 78.7438 28.7926Z" fill="#C77E2E"/>
<path d="M77.0968 4.24134L64.6004 6.25842L64.9318 8.31527L77.4281 6.29819L77.0968 4.24134Z" fill="#C77E2E"/>
<path d="M77.7912 8.55215L65.2948 10.5692L65.6261 12.6261L78.1225 10.609L77.7912 8.55215Z" fill="#C77E2E"/>
<path d="M82.9083 40.3423L70.412 42.3594L70.7433 44.4162L83.2397 42.3991L82.9083 40.3423Z" fill="#C77E2E"/>
<path d="M83.6067 44.6496L71.1103 46.6667L71.4416 48.7236L83.938 46.7065L83.6067 44.6496Z" fill="#C77E2E"/>
<g opacity="0.8">
<g opacity="0.8">
<g opacity="0.8">
<path opacity="0.8" d="M117.134 69.7248H2.51309L0 63.0556H120L117.134 69.7248Z" fill="#CED3E6"/>
</g>
</g>
</g>
<path d="M120 55.1287H0V63.0556H120V55.1287Z" fill="#39393B"/>
<path d="M12.225 63.0556L15.4318 69.7903H22.9973L25.157 63.0556H12.225Z" fill="#39393B"/>
<path d="M107.775 63.0556L104.568 69.7903H97.0027L94.8561 63.0556H107.775Z" fill="#39393B"/>
</svg>
