<svg width="131" height="138" viewBox="0 0 131 138" fill="none" xmlns="http://www.w3.org/2000/svg">
<path d="M39.584 14.8331L65.691 110.303L56.376 99.5785C59.8201 101.417 63.8173 102.826 68.225 103.808C72.6327 104.807 77.4508 105.378 82.4831 105.628C87.5153 105.896 92.7618 105.842 98.1331 105.628C103.504 105.396 108.983 105.003 114.55 104.522H114.586C122.795 103.826 130.022 109.911 130.718 118.119C131.378 125.953 125.828 132.877 118.209 134.126C112.463 135.036 106.627 135.911 100.649 136.607C94.6533 137.303 88.5147 137.82 82.1619 137.963C75.8091 138.106 69.2243 137.856 62.4076 136.874C55.6087 135.893 48.56 134.108 41.6718 131.146C37.2641 129.237 34.1234 125.632 32.6959 121.403L32.3568 120.404L1.039 26.5215C-2.47644 15.9752 3.21608 4.55445 13.7803 1.039C24.3266 -2.47644 35.7473 3.21608 39.2628 13.7803C39.3698 14.1015 39.4948 14.4941 39.584 14.8331Z" fill="#EA9B7A"/>
</svg>
