<svg width="53" height="69" viewBox="0 0 53 69" fill="none" xmlns="http://www.w3.org/2000/svg">
<path d="M48.0133 48.3736L1.37988 58.7473L3.66062 69L50.294 58.6263L48.0133 48.3736Z" fill="#FDC00F"/>
<path d="M15.8521 55.5279L6.18179 57.6791L8.46253 67.9318L18.1329 65.7806L15.8521 55.5279Z" fill="#FFF2CF"/>
<path d="M19.231 54.7762L17.2454 55.2179L19.5261 65.4706L21.5117 65.0289L19.231 54.7762Z" fill="#FFF2CF"/>
<path d="M50.6873 37.0188L4.0539 47.3926L6.33464 57.6452L52.968 47.2715L50.6873 37.0188Z" fill="#16B6C6"/>
<path d="M18.5354 44.1712L8.86512 46.3224L11.1459 56.5751L20.8162 54.4239L18.5354 44.1712Z" fill="#118995"/>
<path d="M21.915 43.4195L19.9294 43.8612L22.2102 54.1138L24.1958 53.6721L21.915 43.4195Z" fill="#118995"/>
<path d="M46.6334 27.1707L0 37.5444L2.28074 47.7971L48.9141 37.4234L46.6334 27.1707Z" fill="#184F78"/>
<path d="M14.4723 34.325L4.80191 36.4762L7.08264 46.7288L16.753 44.5776L14.4723 34.325Z" fill="#D1DCE4"/>
<path d="M17.8609 33.5711L15.8753 34.0128L18.156 44.2655L20.1416 43.8238L17.8609 33.5711Z" fill="#D1DCE4"/>
<path d="M25.5391 6.92693C23.3759 9.9028 18.8329 10.7832 18.8329 10.7832C18.8329 10.7832 17.8041 6.83422 19.9769 3.85624C22.1402 0.880371 26.6832 1.34757e-05 26.6832 1.34757e-05C26.6832 1.34757e-05 27.7119 3.94894 25.5391 6.92693Z" fill="#184F78"/>
<path d="M25.7499 1.29961C25.7499 1.29961 25.4859 1.86928 24.9949 2.6798C24.5135 3.48819 23.8169 4.54485 23.0735 5.57182C22.3302 6.59878 21.5284 7.58863 20.89 8.32174C20.2612 9.05273 19.7797 9.50048 19.7797 9.50048C19.7797 9.50048 20.0437 8.9308 20.5346 8.12028C21.016 7.31189 21.7127 6.25523 22.4561 5.22826C23.1994 4.2013 24.0011 3.21144 24.6417 2.48788C25.2705 1.75688 25.7499 1.29961 25.7499 1.29961Z" fill="#467293"/>
<path d="M18.7987 10.6304C7.72546 10.2584 4.47072 18.2359 8.08199 25.3273C10.9165 30.9083 17.406 35.0851 23.5491 31.9854C30.4366 32.1864 34.5339 25.6545 34.7351 19.3982C34.9996 11.4447 28.6794 5.59713 18.7987 10.6304Z" fill="#FC611F"/>
<path opacity="0.2" d="M1.37964 58.7474L48.0035 48.3758L48.5068 50.6383L1.37964 58.7474Z" fill="black"/>
<path opacity="0.2" d="M4.05365 47.3926L50.687 37.0189L51.1903 39.2813L4.05365 47.3926Z" fill="black"/>
<path opacity="0.3" d="M17.6007 32.8978C17.4117 32.3186 17.2472 31.714 17.1113 31.1031C15.1491 22.2824 18.9531 13.5314 26.0177 8.76397C23.9195 8.69972 21.499 9.2582 18.8082 10.6282C7.735 10.2562 4.48028 18.2337 8.09155 25.3251C10.0028 29.0977 13.5824 32.2187 17.6007 32.8978Z" fill="white"/>
</svg>
