<svg width="147" height="150" viewBox="0 0 147 150" fill="none" xmlns="http://www.w3.org/2000/svg">
<path d="M70.1614 126.87L32.8104 114.184C28.8635 112.847 26.7564 108.558 28.0934 104.611C29.4304 100.664 33.7196 98.5573 37.6558 99.8943L75.0067 112.58C78.9536 113.917 81.0608 118.206 79.7238 122.142C78.3868 126.1 74.1083 128.218 70.1614 126.87Z" stroke="white" stroke-opacity="0.1" stroke-width="3" stroke-miterlimit="10"/>
<path d="M65.2517 141.331L27.9008 128.646C23.9539 127.309 21.8467 123.019 23.1837 119.083C24.5207 115.136 28.8099 113.029 32.7568 114.366L70.1078 127.041C74.0547 128.378 76.1618 132.667 74.8248 136.614C73.4771 140.561 69.1986 142.668 65.2517 141.331Z" stroke="white" stroke-opacity="0.1" stroke-width="3" stroke-miterlimit="10"/>
<path d="M32.051 60.8854C32.0937 61.0138 32.1258 61.1314 32.1686 61.2598C33.0029 63.9231 37.9232 80.8016 35.8695 99.5306L75.9372 112.751C85.4354 96.4823 99.4367 85.8609 101.694 84.2137C101.801 84.1388 101.908 84.064 102.004 83.9891C103.095 83.2083 104.154 82.374 105.181 81.4862C111.213 76.2772 115.962 69.421 118.636 61.3133C126.519 37.4394 113.556 11.6938 89.6818 3.81072C65.808 -4.07235 40.0624 8.8914 32.1793 32.7652C29.4946 40.8836 29.2272 49.2159 30.9813 56.992C31.2808 58.297 31.6338 59.6019 32.051 60.8854Z" stroke="white" stroke-opacity="0.1" stroke-width="3" stroke-miterlimit="10"/>
<path d="M29.9437 129.523C29.4945 137.438 34.372 144.979 42.2657 147.588C50.0525 150.156 58.3421 147.107 62.7489 140.657L29.9437 129.523Z" stroke="white" stroke-opacity="0.1" stroke-width="3" stroke-miterlimit="10"/>
<path d="M48.4161 103.456L60.3209 67.378C61.4975 63.8269 59.5614 59.9976 56.0103 58.8211C52.4592 57.6445 48.63 59.5805 47.4534 63.1316C46.2768 66.6828 48.2128 70.512 51.764 71.6886L66.054 76.4056" stroke="white" stroke-opacity="0.1" stroke-width="3" stroke-miterlimit="10"/>
<path d="M64.1179 108.644L76.0227 72.5657C77.1993 69.0146 81.0285 67.0893 84.5796 68.2551C88.1307 69.4317 90.0561 73.2609 88.8902 76.8121C87.7136 80.3632 83.8844 82.2885 80.3333 81.1226L66.0432 76.4056" stroke="white" stroke-opacity="0.1" stroke-width="3" stroke-miterlimit="10"/>
<path d="M127.097 73.7422L139.162 77.7319" stroke="white" stroke-opacity="0.1" stroke-width="3" stroke-miterlimit="10" stroke-linecap="round"/>
<path d="M132.627 58.543L145.195 56.6498" stroke="white" stroke-opacity="0.1" stroke-width="3" stroke-miterlimit="10" stroke-linecap="round"/>
<path d="M118.658 86.7808L127.621 95.787" stroke="white" stroke-opacity="0.1" stroke-width="3" stroke-miterlimit="10" stroke-linecap="round"/>
<path d="M15.0332 36.7549L2.96801 32.776" stroke="white" stroke-opacity="0.1" stroke-width="3" stroke-miterlimit="10" stroke-linecap="round"/>
<path d="M19.6432 21.2455L10.6799 12.2393" stroke="white" stroke-opacity="0.1" stroke-width="3" stroke-miterlimit="10" stroke-linecap="round"/>
<path d="M14.06 52.2537L1.50271 54.1469" stroke="white" stroke-opacity="0.1" stroke-width="3" stroke-miterlimit="10" stroke-linecap="round"/>
</svg>
