<svg width="91" height="121" viewBox="0 0 91 121" fill="none" xmlns="http://www.w3.org/2000/svg">
<path d="M40.014 12.6354L8.77443 27.3099C7.10392 28.1001 5.11336 27.3799 4.32312 25.7094L2.32251 21.4481C1.53227 19.7776 2.25246 17.787 3.92297 16.9967L35.1625 2.32226C36.833 1.53202 38.8237 2.25224 39.6139 3.92275L41.6146 8.18405C42.4048 9.86457 41.6845 11.8552 40.014 12.6354Z" stroke="#4D2C5E" stroke-opacity="0.1" stroke-width="4" stroke-miterlimit="10" stroke-linecap="round"/>
<path d="M52.1478 45.9656L36.8632 14.1359L12.1355 26.0095L27.4203 57.8393L37.0632 111.096C40.2342 117.708 48.1666 120.488 54.7686 117.317L81.4668 104.494C88.0788 101.323 90.8597 93.3902 87.6887 86.7881L52.1478 45.9656Z" stroke="#4D2C5E" stroke-opacity="0.1" stroke-width="4" stroke-miterlimit="10" stroke-linecap="round"/>
<path d="M31.7617 81.8567C31.7617 81.8567 36.8633 73.5941 50.4274 74.0643C63.9916 74.5344 66.2722 62.1806 66.2722 62.1806" stroke="#4D2C5E" stroke-opacity="0.1" stroke-width="4" stroke-miterlimit="10" stroke-linecap="round"/>
</svg>
