<svg width="195" height="398" viewBox="0 0 195 398" fill="none" xmlns="http://www.w3.org/2000/svg">
<path d="M176.789 310.085C176.397 310.085 176.006 310.014 175.614 309.872L39.191 260.689C37.4109 260.048 36.4853 258.072 37.1261 256.292C37.767 254.512 39.7428 253.569 41.5229 254.227L177.946 303.41C179.726 304.051 180.67 306.027 180.011 307.807C179.53 309.213 178.195 310.085 176.789 310.085Z" fill="#C77E2E"/>
<path d="M34.6879 310.085C33.2816 310.085 31.9644 309.213 31.4482 307.807C30.8073 306.027 31.733 304.051 33.513 303.392L171.556 253.39C173.336 252.75 175.312 253.675 175.971 255.455C176.611 257.235 175.686 259.211 173.906 259.87L35.8627 309.872C35.4711 310.014 35.0795 310.085 34.6879 310.085Z" fill="#C77E2E"/>
<path d="M188.929 397.984C186.028 397.984 183.5 395.83 183.09 392.875L158.455 208.871H55.3361L31.074 392.875C30.6468 396.097 27.6919 398.376 24.47 397.949C21.2481 397.521 18.9696 394.566 19.3969 391.345L44.3354 202.25C44.727 199.312 47.2191 197.123 50.174 197.123H163.617C166.572 197.123 169.064 199.313 169.455 202.232L194.785 391.327C195.213 394.549 192.952 397.521 189.73 397.949C189.445 397.966 189.196 397.984 188.929 397.984Z" fill="#FAAF3A"/>
<path d="M130.757 202.997H57.0807C33.7442 202.997 8.75229 190.216 5.15658 167.165C0.368243 136.316 -0.824379 106.465 0.51066 79.0521C2.0237 48.0614 16.8337 19.2246 41.1848 0C41.1848 0 55.9059 64.1353 37.3933 152.657C44.4779 186.265 130.757 202.997 130.757 202.997Z" fill="#FAAF3A"/>
</svg>
