<svg width="50" height="49" viewBox="0 0 50 49" fill="none" xmlns="http://www.w3.org/2000/svg">
<path d="M1.1961 24.427C1.1961 37.9094 12.1165 48.854 25.5981 48.854C39.0666 48.854 50 37.9224 50 24.427C50 10.9447 39.0796 0 25.5981 0C12.1165 0 1.1961 10.9317 1.1961 24.427Z" fill="#DF615C"/>
<path d="M13.1175 44.4032L0 47.1751L5.68121 35.8661L13.1175 44.4032Z" fill="#DF615C"/>
<path d="M27.665 19.1824C27.665 18.0372 26.56 17.4515 25.195 17.4515C23.6089 17.4515 22.1398 18.4146 21.3598 19.9632L14.7946 16.6837C16.6796 13.144 20.3977 10.7104 26.3 10.7104C32.0852 10.7104 36.4014 13.144 36.4014 17.7639C36.4014 23.4119 30.4991 24.4009 30.4991 27.251H22.9069C22.9069 22.7612 27.665 21.4338 27.665 19.1824ZM21.8408 33.0552C21.8408 30.5825 23.8299 28.6955 26.703 28.6955C29.5761 28.6955 31.5652 30.5825 31.5652 33.0552C31.5652 35.4888 29.5761 37.4799 26.703 37.4799C23.8299 37.4799 21.8408 35.4888 21.8408 33.0552Z" fill="white"/>
</svg>
