<svg width="216" height="218" viewBox="0 0 216 218" fill="none" xmlns="http://www.w3.org/2000/svg">
<path d="M212.714 217.747H179.715C179.715 217.747 172.077 181.126 169.525 160.602C166.955 140.061 165.634 91.3928 165.634 91.3928C165.634 91.3928 139.346 99.9413 84.307 96.711C-37.6392 89.5902 8.60144 0 8.60144 0C12.724 5.69308 43.6344 13.5278 60.8743 16.2583C113.825 21.3446 154.07 30.3393 181.625 42.2252C188.264 45.0807 194.153 48.1146 199.329 51.3091C205.968 55.396 210.126 67.8351 212.642 84.1648C220.156 133.261 212.714 217.747 212.714 217.747Z" fill="#39393B"/>
<path d="M183.802 200.115C183.249 200.115 182.767 199.722 182.642 199.169C177.877 175.611 176.288 146.289 175.003 122.732C173.933 103.19 172.933 84.7361 170.417 82.5231C168.382 80.7206 159.941 82.1305 149.269 83.8973C128.013 87.4309 95.8892 92.7492 60.4815 84.5219C41.1892 80.0246 27.0012 70.6551 18.3277 56.6633C3.35435 32.5346 10.1896 2.60578 10.261 2.30238C10.4038 1.6599 11.0463 1.2673 11.6887 1.42792C12.3312 1.57069 12.7238 2.21315 12.5632 2.85563C12.4918 3.14117 5.90642 32.142 20.3622 55.4319C28.6966 68.8704 42.385 77.883 61.0347 82.2197C95.9963 90.3578 127.835 85.0752 148.912 81.5773C161.529 79.4892 169.15 78.222 172.023 80.7563C175.128 83.5046 176.003 96.9967 177.395 122.607C178.68 146.093 180.268 175.308 184.998 198.705C185.123 199.347 184.712 199.972 184.07 200.097C183.962 200.097 183.891 200.115 183.802 200.115Z" fill="#585859"/>
<path d="M213.338 200.721H213.32L176.627 199.936C175.967 199.918 175.45 199.383 175.467 198.722C175.485 198.062 176.021 197.544 176.681 197.562L213.374 198.348C214.034 198.365 214.552 198.901 214.534 199.561C214.498 200.221 213.981 200.721 213.338 200.721Z" fill="#585859"/>
</svg>
