<svg width="106" height="145" viewBox="0 0 106 145" fill="none" xmlns="http://www.w3.org/2000/svg">
<path d="M62.8516 68.6204C62.8516 68.6204 52.8501 52.8914 28.5831 38.5982C11.4358 28.5081 1.4473 0 1.4473 0C1.4473 0 34.2945 1.43584 48.573 21.4463C62.8516 41.4699 62.8516 68.6204 62.8516 68.6204Z" fill="#21B573"/>
<path d="M62.9688 69.0512C62.7471 69.0512 62.5515 68.9076 62.4993 68.6857C57.8833 51.2336 47.7774 38.5851 40.1101 31.0404C31.8037 22.8691 24.5145 18.7835 24.4363 18.7443C24.2016 18.6138 24.1103 18.3136 24.2407 18.0786C24.3711 17.8437 24.671 17.7523 24.9057 17.8828C24.9839 17.922 32.3905 22.0729 40.7881 30.3486C48.5468 37.9716 58.77 50.7767 63.4382 68.4377C63.5034 68.6987 63.3469 68.9729 63.0861 69.0381C63.047 69.0381 63.0079 69.0512 62.9688 69.0512Z" fill="#39393B"/>
<path d="M58.5485 68.2681C58.5485 68.2681 55.6928 62.5508 42.8356 63.9736C29.9784 65.4095 22.8457 72.5495 0 59.6791C0 59.6791 17.1343 45.3859 35.7029 48.2445C54.2585 51.1162 55.6928 58.2564 58.5485 68.2681Z" fill="#21B573"/>
<path d="M58.6139 68.751C58.4574 68.751 58.2879 68.6726 58.1966 68.516C58.1445 68.4246 52.3939 59.3788 43.1487 57.6949C26.9925 54.758 15.9869 59.927 15.8826 59.9792C15.6348 60.0967 15.348 59.9923 15.2306 59.7443C15.1132 59.4963 15.2175 59.2091 15.4653 59.0916C15.5827 59.0394 26.849 53.7267 43.3313 56.729C53.0068 58.4911 58.7964 67.6023 59.0312 67.9938C59.1746 68.2288 59.1094 68.5291 58.8747 68.6726C58.7834 68.7379 58.7052 68.751 58.6139 68.751Z" fill="#39393B"/>
<path d="M64.1554 66.8844C64.1554 66.8844 63.034 60.5928 74.1961 54.0531C85.3581 47.5135 95.3466 48.9755 106 24.9968C106 24.9968 83.7281 23.7698 70.5449 37.1624C57.3617 50.568 60.4782 57.1468 64.1554 66.8844Z" fill="#21B573"/>
<path d="M64.1035 67.4066C63.8558 67.4066 63.6341 67.2109 63.621 66.9628C63.5819 66.506 62.7865 55.7371 69.502 48.5448C80.9378 36.2879 93.1431 33.8078 93.2604 33.7817C93.5212 33.7295 93.782 33.8992 93.8342 34.1733C93.8863 34.4343 93.7168 34.6954 93.443 34.7476C93.3256 34.7737 81.4203 37.2016 70.2061 49.2105C63.7906 56.0896 64.573 66.7801 64.586 66.8845C64.6121 67.1586 64.4034 67.3936 64.1426 67.4066C64.1296 67.4066 64.1166 67.4066 64.1035 67.4066Z" fill="#39393B"/>
<path d="M77.2998 74.651H46.0044C44.1528 74.651 42.6532 73.1368 42.6532 71.2963V69.8866C42.6532 68.033 44.1658 66.5319 46.0044 66.5319H77.2998C79.1515 66.5319 80.651 68.0461 80.651 69.8866V71.2963C80.6641 73.1499 79.1515 74.651 77.2998 74.651Z" fill="#DF615C"/>
<path d="M61.8083 144.655C36.2764 144.655 20.0289 140.583 22.6368 122.582C24.2929 111.161 33.1991 99.9611 39.4842 93.304C40.3709 92.3642 41.2054 91.5157 41.9487 90.7717C44.2828 88.4613 45.8476 87.1429 45.8476 87.1429L45.9259 86.7252L46.3692 84.1929L46.8777 81.2821L48.0513 74.638L48.4556 72.3145L61.8083 71.7271L75.7348 72.3145L76.0477 74.638L76.5432 78.2798L77.3517 84.1799L77.7038 86.7121L77.7559 87.1298C77.7559 87.1298 79.3337 88.4613 81.6548 90.7586C82.4111 91.5026 83.2457 92.3511 84.1324 93.2909C90.4175 99.948 99.3237 111.135 100.98 122.569C103.588 140.596 87.3402 144.655 61.8083 144.655Z" fill="#DF615C"/>
<path d="M77.704 86.7382H45.913L46.3564 84.2059H77.3519L77.704 86.7382Z" fill="#A92F4B"/>
<path d="M84.1325 93.304H39.4713C40.358 92.3642 41.1925 91.5158 41.9358 90.7717H81.6549C82.4112 91.5288 83.2458 92.3773 84.1325 93.304Z" fill="#A92F4B"/>
<path d="M76.5434 78.3058L46.8779 81.295L48.0515 74.6509H76.0478L76.5434 78.3058Z" fill="#A92F4B"/>
</svg>
