<svg width="109" height="68" viewBox="0 0 109 68" fill="none" xmlns="http://www.w3.org/2000/svg">
<path d="M6.80652 65.7672L0.518511 53.8025C-1.0535 50.8243 1.14213 47.2479 4.50702 47.2739L103.284 48.3403L100.374 63.6604L6.80652 65.7672Z" fill="#39393B"/>
<path d="M98.6587 62.3989H10.2622C8.13153 62.3989 6.58548 60.6692 6.83232 58.5364L12.8606 3.86254C13.0944 1.72969 15.0172 0 17.1479 0H105.544C107.675 0 109.221 1.72969 108.974 3.86254L102.946 58.5364C102.712 60.6692 100.789 62.3989 98.6587 62.3989Z" fill="#39393B"/>
<path d="M8.95038 64.7528C8.92439 64.7528 8.88541 64.7528 8.85943 64.7528C8.45668 64.7008 8.15787 64.3236 8.20983 63.9205L15.5503 5.37116C15.6022 4.968 15.979 4.66888 16.3818 4.7209C16.7845 4.77292 17.0833 5.15005 17.0313 5.55321L9.69092 64.1026C9.63896 64.4797 9.31415 64.7528 8.95038 64.7528Z" fill="#564C54"/>
<path d="M51.9531 32.1749C51.6153 36.5707 54.8504 40.3552 59.1637 40.6283C63.49 40.9014 67.2706 37.5721 67.6084 33.1763C67.9462 28.7806 64.7111 24.9961 60.3978 24.723C56.0715 24.4369 52.2909 27.7792 51.9531 32.1749Z" fill="#585859"/>
<path d="M99.0877 67.1588H9.47002C7.49526 67.1588 5.98815 65.4161 6.24798 63.4653L7.10549 57.2098H103.284L102.31 64.3367C102.089 65.9623 100.712 67.1588 99.0877 67.1588Z" fill="#39393B"/>
<path d="M34.1415 49.5108L33.4919 52.6321H36.4411L36.1163 56.3515H32.6994L31.9848 59.7459H28.0743L28.7889 56.3515H26.3724L25.6578 59.7459H21.7472L22.4618 56.3515H19.5127L19.8375 52.6451H23.2543L23.9039 49.5238H20.9547L21.2795 45.8043H24.6964L25.4109 42.41H29.3215L28.607 45.8043H31.0234L31.738 42.41H35.6485L34.934 45.8043H37.8832L37.5584 49.5238L34.1415 49.5108ZM30.2439 49.5108H27.8275L27.1779 52.6321H29.5943L30.2439 49.5108Z" fill="#EBB12B"/>
</svg>
