<svg width="108" height="55" viewBox="0 0 108 55" fill="none" xmlns="http://www.w3.org/2000/svg">
<path d="M107.799 40.7883C56.271 69.1378 0 46.3156 0 46.3156C2.7458 38.8092 4.79622 30.34 6.2761 22.6375C7.98776 13.6691 8.95057 5.75271 9.39632 1.59836C31.3092 0.403759 85.0483 -1.8963 106.105 3.09606L106.266 11.5296L107.799 40.7883Z" fill="#EA9B7A"/>
<path d="M69.7323 27.2022C69.3579 29.8589 68.1455 31.8915 67.0578 31.731C65.9524 31.5706 65.3818 29.2884 65.7562 26.6317C66.1307 23.9751 67.3431 21.9425 68.4307 22.1029C69.5362 22.2634 70.1068 24.5456 69.7323 27.2022Z" fill="#D96C63"/>
<path d="M106.248 11.5298C84.2995 10.1926 41.1335 9.72901 6.25831 22.62C7.96998 13.6516 8.93279 5.7351 9.37853 1.58074C31.2914 0.386145 85.0306 -1.91391 106.088 3.07844L106.248 11.5298Z" fill="#D96C63"/>
</svg>
