<svg width="129" height="115" viewBox="0 0 129 115" fill="none" xmlns="http://www.w3.org/2000/svg">
<path d="M64.4672 87.3151C99.2415 87.3151 127.432 73.9526 127.432 57.4692C127.432 40.9858 99.2415 27.6233 64.4672 27.6233C29.6929 27.6233 1.50278 40.9858 1.50278 57.4692C1.50278 73.9526 29.6929 87.3151 64.4672 87.3151Z" fill="#4D2C5E" fill-opacity="0.5" stroke="white" stroke-opacity="0.1" stroke-width="3" stroke-miterlimit="10" stroke-linecap="round" stroke-linejoin="round"/>
<path d="M89.9303 73.0266C108.013 43.3259 111.259 12.3002 97.1804 3.72881C83.1019 -4.84257 57.0302 12.2862 38.9475 41.9869C20.8649 71.6876 17.6189 102.713 31.6974 111.285C45.7759 119.856 71.8476 102.727 89.9303 73.0266Z" fill="#4D2C5E" fill-opacity="0.5" stroke="white" stroke-opacity="0.1" stroke-width="3" stroke-miterlimit="10" stroke-linecap="round" stroke-linejoin="round"/>
<path d="M97.1682 111.271C111.247 102.7 108.001 71.6741 89.9181 41.9734C71.8354 12.2726 45.7637 -4.85606 31.6852 3.71532C17.6067 12.2867 20.8527 43.3124 38.9353 73.0131C57.018 102.714 83.0897 119.843 97.1682 111.271Z" fill="#4D2C5E" fill-opacity="0.5" stroke="white" stroke-opacity="0.1" stroke-width="3" stroke-miterlimit="10" stroke-linecap="round" stroke-linejoin="round"/>
<path d="M64.4672 65.3698C68.8306 65.3698 72.3679 61.8326 72.3679 57.4692C72.3679 53.1058 68.8306 49.5685 64.4672 49.5685C60.1038 49.5685 56.5665 53.1058 56.5665 57.4692C56.5665 61.8326 60.1038 65.3698 64.4672 65.3698Z" fill="#4D2C5E" fill-opacity="0.5" stroke="white" stroke-opacity="0.1" stroke-width="3" stroke-miterlimit="10" stroke-linecap="round" stroke-linejoin="round"/>
</svg>
