<svg width="69" height="13" viewBox="0 0 69 13" fill="none" xmlns="http://www.w3.org/2000/svg">
<path d="M0.0514666 3.81242C0.177154 4.18948 0.500373 4.4588 0.859481 4.53062C1.03904 4.56653 1.23654 4.56655 1.41609 4.49473C1.6136 4.42291 20.8079 -1.78965 40.9898 6.57756C51.2423 10.833 60.3637 12.449 67.7433 12.3053C67.7792 11.8744 67.8151 11.4793 67.851 11.0843C67.851 11.0305 67.869 10.9766 67.869 10.9407C67.869 10.9407 68.282 10.6714 69.0002 10.1686C61.7462 10.5278 52.4633 8.98356 41.8157 4.58449C20.8618 -4.10592 1.54177 2.17846 0.73378 2.44779C0.177163 2.6453 -0.128087 3.2558 0.0514666 3.81242Z" fill="#084FC7"/>
</svg>
