<svg width="76" height="21" viewBox="0 0 76 21" fill="none" xmlns="http://www.w3.org/2000/svg">
<path d="M35.8743 16.7975H23.8643C22.6685 16.7975 21.7067 15.8347 21.7067 14.6376V6.3495C21.7067 5.15247 22.6685 4.18964 23.8643 4.18964H35.8743C37.0701 4.18964 38.032 5.15247 38.032 6.3495V14.6376C38.045 15.8347 37.0701 16.7975 35.8743 16.7975Z" fill="white"/>
<path d="M42.763 4.18964V16.7975L37.6809 12.5168V8.47033L42.763 4.18964Z" fill="white"/>
<path d="M64.6902 21.0001C70.4833 21.0001 75.1794 16.2991 75.1794 10.5C75.1794 4.70103 70.4833 0 64.6902 0C58.8971 0 54.2009 4.70103 54.2009 10.5C54.2009 16.2991 58.8971 21.0001 64.6902 21.0001Z" fill="#DD615C"/>
<path d="M59.738 16.5503C60.0239 16.5503 60.2968 16.4462 60.5178 16.225L70.4092 6.32349C70.8381 5.89412 70.8381 5.1915 70.4092 4.76213C69.9803 4.33276 69.2784 4.33276 68.8494 4.76213L58.9581 14.6637C58.5292 15.093 58.5292 15.7956 58.9581 16.225C59.179 16.4462 59.452 16.5503 59.738 16.5503Z" fill="white"/>
<path d="M69.6293 16.5503C69.9153 16.5503 70.1882 16.4462 70.4092 16.225C70.8381 15.7956 70.8381 15.093 70.4092 14.6637L60.5178 4.76213C60.0889 4.33276 59.387 4.33276 58.9581 4.76213C58.5292 5.1915 58.5292 5.89412 58.9581 6.32349L68.8494 16.225C69.0704 16.4462 69.3563 16.5503 69.6293 16.5503Z" fill="white"/>
<path d="M5.30314 15.8216H6.30396C7.61674 15.8216 8.68258 14.7417 8.68258 13.4406V3.16177C8.68258 1.84764 7.60374 0.780701 6.30396 0.780701H5.30314C3.99035 0.780701 2.92451 1.86065 2.92451 3.16177V13.4406C2.91151 14.7417 3.99035 15.8216 5.30314 15.8216Z" fill="white"/>
<path d="M5.69322 19.3868H5.90119C6.17415 19.3868 6.39512 19.1656 6.39512 18.8923V12.8031C6.39512 12.5299 6.17415 12.3087 5.90119 12.3087H5.69322C5.42027 12.3087 5.1993 12.5299 5.1993 12.8031V18.8923C5.2123 19.1656 5.43326 19.3868 5.69322 19.3868Z" fill="white"/>
<path d="M1.02684 19.9333H10.5673C11.1262 19.9333 11.5941 19.4779 11.5941 18.9054V18.476C11.5941 17.9165 11.1392 17.4481 10.5673 17.4481H1.02684C0.467934 17.4481 0 17.9165 0 18.476V18.9054C0 19.4648 0.467934 19.9333 1.02684 19.9333Z" fill="white"/>
</svg>
