<svg width="39" height="64" viewBox="0 0 39 64" fill="none" xmlns="http://www.w3.org/2000/svg">
<path d="M5.8675 63.6132C5.47266 63.6132 5.09575 63.4158 4.89833 63.0389C4.50349 62.3569 -4.54196 46.0787 2.97798 24.6496C7.68018 11.2609 16.9231 5.28441 23.8687 2.61025C31.3707 -0.279268 37.6702 0.00789455 37.9394 0.00789455C38.5496 0.0437892 39.0342 0.564241 38.9983 1.1924C38.9624 1.80261 38.4599 2.28721 37.8317 2.25131C37.7779 2.25131 31.6578 2.00003 24.5866 4.72803C15.1822 8.37134 8.63138 15.317 5.09575 25.3854C-2.06524 45.8095 6.76487 61.7647 6.85461 61.9262C7.15971 62.4646 6.98022 63.1466 6.4418 63.4517C6.24438 63.5594 6.06492 63.6132 5.8675 63.6132Z" fill="#FAAF3A"/>
</svg>
