<svg width="59" height="52" viewBox="0 0 59 52" fill="none" xmlns="http://www.w3.org/2000/svg">
<path d="M29.4295 10.6813L46.2772 0.782566V9.39192L29.4295 10.6813Z" fill="#B8E8F2"/>
<path d="M29.4295 10.6814L49.8694 3.10357V9.24277L29.4295 10.6814Z" fill="#88CFE5"/>
<path d="M29.4294 10.6814L7.53281 0V8.3741L29.4294 10.6814Z" fill="#B8E8F2"/>
<path d="M29.4294 10.6813L2.91822 1.93168V7.83563L29.4294 10.6813Z" fill="#88CFE5"/>
<path d="M29.4654 52L0.0316685 46.3041L0 4.97649L29.4338 10.6769L29.4654 52Z" fill="#472758"/>
<path d="M58.9673 34.1297C58.9673 41.4406 53.2308 47.3355 46.1324 48.7199L29.434 51.9682L29.4295 10.6813L44.9924 7.65467C51.9188 6.30649 57.5467 9.87148 57.5467 17.0105C57.5467 20.4307 56.2393 23.3985 54.0858 25.7646C57.0355 27.1309 58.9628 29.9404 58.9673 34.1297ZM38.5184 17.7615V25.0724L44.9924 23.8102C47.0373 23.4121 48.4578 21.6025 48.4578 19.4807C48.4578 17.3589 47.0961 16.0921 44.9924 16.4993L38.5184 17.7615ZM49.8784 35.1883C49.8784 32.8901 48.4035 31.5238 46.1279 31.9672L38.5184 33.4465V41.3501L46.1279 39.8708C48.4035 39.4319 49.8784 37.4911 49.8784 35.1883Z" fill="#4D2C5E"/>
</svg>
