<svg width="27" height="15" viewBox="0 0 27 15" fill="none" xmlns="http://www.w3.org/2000/svg">
<path d="M26.9478 10.9476C26.3341 5.45844 21.8298 1.0148 16.2157 0.400539C11.8549 -0.083032 6.80222 -0.266002 2.89845 0.648863C1.84091 0.897183 0.861702 1.22392 0 1.66828L0.221951 2.67464C3.26402 1.04095 8.72147 0.583505 16.0982 1.39381C18.4613 1.6552 20.6156 2.64849 22.3128 4.13841C23.9971 5.62834 25.2244 7.60183 25.7466 9.83671C25.838 10.2419 25.9163 10.647 25.9555 11.0652C25.9816 11.3136 26.0077 11.5619 26.0077 11.7971L27 11.5227C26.9869 11.3136 26.9608 11.1306 26.9478 10.9476ZM4.58268 11.3136C3.81237 11.8625 3.08124 12.3199 2.38927 12.6728L2.59817 13.6922C3.40764 13.2871 4.26935 12.7643 5.17022 12.1239C9.40039 9.06561 12.1813 11.6011 15.1451 14.2934C15.2756 14.411 15.4062 14.5417 15.5367 14.6594L16.6726 14.3457C16.3854 14.0843 16.0982 13.8229 15.8109 13.5615C12.8472 10.8692 9.46565 7.78481 4.58268 11.3136Z" fill="#A92F4B"/>
</svg>
