<svg width="244" height="605" viewBox="0 0 244 605" fill="none" xmlns="http://www.w3.org/2000/svg">
<path d="M144.862 605C199.412 605 243.633 600.632 243.633 595.244C243.633 589.856 199.412 585.488 144.862 585.488C90.3131 585.488 46.0922 589.856 46.0922 595.244C46.0922 600.632 90.3131 605 144.862 605Z" fill="#CED3E6"/>
<path d="M205.339 524.691H80.6474C78.2797 524.691 76.3569 522.769 76.3569 520.401V518.425C76.3569 516.057 78.2797 514.134 80.6474 514.134H205.339C207.706 514.134 209.629 516.057 209.629 518.425V520.401C209.629 522.769 207.706 524.691 205.339 524.691Z" fill="#39393B"/>
<path d="M82.2144 397.187H204.039C206.069 397.187 207.707 398.825 207.707 400.855V415.827C207.707 417.856 206.069 419.494 204.039 419.494H82.2144C80.1848 419.494 78.547 417.856 78.547 415.827V400.855C78.547 398.825 80.1848 397.187 82.2144 397.187Z" fill="#585859"/>
<path d="M110.984 302.298C110.984 302.298 59.6225 292.151 45.2912 256.313C30.9599 220.476 83.3715 193.594 110.984 212.839C140.536 233.419 110.984 302.298 110.984 302.298Z" fill="#21B573"/>
<path d="M141.533 396.458C141.088 396.458 140.679 396.119 140.608 395.656C135.694 362.365 115.844 314.475 100.088 280.169C82.9799 242.961 66.8505 213.266 66.6903 212.964C66.4411 212.518 66.6191 211.949 67.0642 211.7C67.5093 211.45 68.0789 211.628 68.3281 212.073C68.4884 212.376 84.6533 242.125 101.797 279.386C117.624 313.817 137.528 361.884 142.477 395.389C142.548 395.906 142.21 396.369 141.694 396.44C141.623 396.44 141.569 396.458 141.533 396.458Z" fill="#39393B"/>
<path d="M109.061 298.827C108.723 298.827 108.402 298.649 108.242 298.346C85.8995 256.741 49.6172 226.547 49.2612 226.245C48.8695 225.924 48.8161 225.337 49.1366 224.945C49.457 224.553 50.0445 224.5 50.4361 224.82C50.81 225.123 87.3593 255.53 109.88 297.474C110.129 297.919 109.951 298.489 109.506 298.738C109.346 298.791 109.203 298.827 109.061 298.827Z" fill="#39393B"/>
<path d="M110.076 301.818C109.809 301.818 109.559 301.711 109.364 301.497C93.0739 282.323 76.3749 270.395 65.2481 263.773C53.1778 256.598 44.8639 253.91 44.7926 253.892C44.312 253.732 44.0271 253.216 44.1873 252.717C44.3475 252.237 44.8639 251.952 45.3624 252.112C45.7006 252.219 53.9255 254.854 66.1561 262.135C77.4253 268.829 94.3202 280.899 110.788 300.286C111.126 300.678 111.073 301.266 110.681 301.604C110.503 301.746 110.272 301.818 110.076 301.818Z" fill="#39393B"/>
<path d="M105.554 290.905C105.162 290.905 104.806 290.655 104.681 290.281C92.1482 253.519 96.7591 208.851 96.8125 208.406C96.8659 207.89 97.3288 207.534 97.8273 207.587C98.3436 207.641 98.6997 208.103 98.6462 208.602C98.5928 209.047 94.0353 253.323 106.426 289.676C106.586 290.157 106.337 290.691 105.839 290.851C105.75 290.887 105.643 290.905 105.554 290.905Z" fill="#39393B"/>
<path d="M108.705 298.186C108.26 298.186 107.868 297.865 107.797 297.402C103.97 274.134 106.907 255.156 110.058 243.335C113.476 230.499 117.749 223.271 117.927 222.969C118.194 222.524 118.764 222.381 119.209 222.648C119.654 222.915 119.796 223.485 119.529 223.93C119.494 224.001 115.185 231.283 111.838 243.905C108.758 255.53 105.874 274.223 109.631 297.118C109.72 297.616 109.364 298.097 108.865 298.186C108.794 298.168 108.741 298.186 108.705 298.186Z" fill="#39393B"/>
<path d="M165.158 311.662C165.158 311.662 217.035 304.559 233.467 269.648C249.899 234.719 199.161 204.792 170.463 222.363C139.735 241.163 165.158 311.662 165.158 311.662Z" fill="#21B573"/>
<path d="M145.485 393.413C144.969 393.413 144.542 392.986 144.56 392.47C144.756 375.325 148.494 355.796 155.669 334.432C161.401 317.359 169.306 299.076 179.204 280.098C196.028 247.786 212.976 224.304 213.154 224.072C213.457 223.663 214.044 223.556 214.454 223.859C214.863 224.161 214.97 224.749 214.667 225.158C214.507 225.39 197.63 248.783 180.86 280.97C165.407 310.648 146.892 354.069 146.447 392.487C146.411 393.004 146.002 393.413 145.485 393.413Z" fill="#39393B"/>
<path d="M167.347 308.316C167.187 308.316 167.009 308.28 166.867 308.173C166.422 307.906 166.297 307.336 166.564 306.891C191.524 266.354 229.818 238.155 230.209 237.87C230.619 237.567 231.206 237.656 231.509 238.066C231.812 238.475 231.722 239.063 231.313 239.365C230.939 239.65 192.93 267.636 168.166 307.853C167.97 308.155 167.668 308.316 167.347 308.316Z" fill="#39393B"/>
<path d="M166.155 311.235C165.923 311.235 165.692 311.146 165.514 310.986C165.14 310.63 165.122 310.042 165.478 309.669C183.085 291.278 200.656 280.24 212.299 274.223C224.939 267.689 233.289 265.535 233.645 265.446C234.144 265.322 234.642 265.624 234.767 266.123C234.891 266.621 234.589 267.12 234.09 267.244C234.001 267.262 225.545 269.452 213.083 275.897C201.582 281.843 184.224 292.774 166.813 310.95C166.653 311.128 166.404 311.235 166.155 311.235Z" fill="#39393B"/>
<path d="M171.317 300.607C171.193 300.607 171.086 300.589 170.961 300.536C170.481 300.34 170.267 299.806 170.445 299.325C184.972 263.755 183.032 219.301 183.014 218.856C182.996 218.34 183.388 217.913 183.904 217.877C184.402 217.842 184.847 218.251 184.883 218.767C184.901 219.212 186.859 264.076 172.19 300.037C172.029 300.393 171.691 300.607 171.317 300.607Z" fill="#39393B"/>
<path d="M167.739 307.692C167.668 307.692 167.597 307.692 167.526 307.675C167.027 307.568 166.707 307.069 166.831 306.571C171.959 283.926 170.178 265.108 167.793 253.322C165.193 240.54 161.348 233.009 161.312 232.92C161.081 232.458 161.259 231.906 161.704 231.674C162.167 231.443 162.719 231.621 162.95 232.066C163.111 232.368 166.938 239.846 169.591 252.877C172.03 264.876 173.846 283.997 168.647 306.98C168.558 307.39 168.167 307.692 167.739 307.692Z" fill="#39393B"/>
<path d="M145.183 244.083C145.183 244.083 101.228 215.634 101.174 177.037C101.121 138.441 159.764 132.886 178.296 160.979C198.147 191.048 145.183 244.083 145.183 244.083Z" fill="#21B573"/>
<path d="M139.041 342.907C138.97 342.907 138.899 342.907 138.827 342.889C138.329 342.764 138.026 342.266 138.133 341.767C145.895 309.028 145.201 257.186 143.26 219.479C141.16 178.586 137.154 145.01 137.118 144.69C137.065 144.173 137.421 143.71 137.937 143.657C138.436 143.604 138.916 143.96 138.97 144.476C139.005 144.814 143.011 178.444 145.13 219.39C147.088 257.221 147.764 309.241 139.967 342.195C139.842 342.622 139.468 342.907 139.041 342.907Z" fill="#39393B"/>
<path d="M145.023 240.219C144.56 240.219 144.15 239.863 144.097 239.4C138.756 192.472 116.236 150.992 116.004 150.582C115.755 150.137 115.915 149.567 116.378 149.318C116.823 149.069 117.393 149.229 117.642 149.692C117.873 150.101 140.572 191.902 145.949 239.205C146.002 239.721 145.646 240.184 145.13 240.237C145.094 240.219 145.058 240.219 145.023 240.219Z" fill="#39393B"/>
<path d="M144.863 243.353C144.471 243.353 144.115 243.104 143.99 242.712C135.961 218.856 124.87 201.605 116.984 191.333C108.438 180.188 101.709 174.634 101.637 174.58C101.246 174.26 101.175 173.672 101.513 173.281C101.833 172.889 102.421 172.818 102.812 173.156C103.097 173.388 109.738 178.871 118.408 190.158C126.401 200.555 137.617 218.002 145.735 242.124C145.895 242.605 145.646 243.139 145.148 243.299C145.059 243.335 144.97 243.353 144.863 243.353Z" fill="#39393B"/>
<path d="M144.702 231.55C144.684 231.55 144.666 231.55 144.649 231.55C144.132 231.532 143.741 231.087 143.776 230.57C145.752 191.796 166.582 152.006 166.778 151.597C167.027 151.134 167.579 150.974 168.042 151.205C168.505 151.437 168.665 152.006 168.433 152.469C168.22 152.861 147.586 192.294 145.646 230.659C145.61 231.158 145.201 231.55 144.702 231.55Z" fill="#39393B"/>
<path d="M144.934 239.472C144.862 239.472 144.809 239.472 144.738 239.454C144.239 239.347 143.919 238.849 144.026 238.35C149.082 215.313 158.873 198.65 166.208 188.716C174.166 177.927 180.824 172.676 181.109 172.462C181.519 172.141 182.106 172.213 182.409 172.622C182.729 173.032 182.658 173.619 182.248 173.922C182.177 173.975 175.466 179.28 167.65 189.873C160.44 199.647 150.809 216.061 145.842 238.742C145.753 239.187 145.361 239.472 144.934 239.472Z" fill="#39393B"/>
<path d="M198.894 337.922L197.363 341.981L196.402 344.562L193.624 351.932L192.645 354.514L189.797 362.098L188.835 364.661L176.587 397.169H109.684L97.4357 364.661L96.4742 362.098L93.6258 354.514L92.6467 351.932L89.8694 344.562L88.908 341.981L87.377 337.922C86.3266 335.126 88.3917 332.153 91.3648 332.153H194.924C197.879 332.153 199.944 335.126 198.894 337.922Z" fill="#0875F7"/>
<path d="M197.363 341.981L196.402 344.562H89.8695L88.8902 341.981H197.363Z" fill="#084FC7"/>
<path d="M193.606 351.932L192.645 354.514H93.6079L92.6466 351.932H193.606Z" fill="#084FC7"/>
<path d="M189.779 362.098L188.818 364.662H97.4357L96.4742 362.098H189.779Z" fill="#084FC7"/>
<path d="M125.208 419.476L121.505 431.44L69.859 597.897H59.7648L92.5043 434.84L95.602 419.476H125.208Z" fill="#39393B"/>
<path d="M226.791 597.897H216.697L163.537 426.508L161.348 419.476H190.954L191.701 423.215L226.791 597.897Z" fill="#39393B"/>
<path d="M205.339 501.743H80.6474C78.2797 501.743 76.3569 499.821 76.3569 497.453V495.477C76.3569 493.109 78.2797 491.186 80.6474 491.186H205.321C207.689 491.186 209.611 493.109 209.611 495.477V497.453C209.629 499.821 207.706 501.743 205.339 501.743Z" fill="#585859"/>
<path d="M48.2814 101.547C74.9464 101.547 96.5627 80.2021 96.5627 53.8714C96.5627 27.5406 74.9464 6.19534 48.2814 6.19534C21.6163 6.19534 0 27.5406 0 53.8714C0 80.2021 21.6163 101.547 48.2814 101.547Z" fill="#CED3E6"/>
<path d="M48.2814 95.3521C74.9464 95.3521 96.5627 74.0068 96.5627 47.676C96.5627 21.3453 74.9464 0 48.2814 0C21.6163 0 0 21.3453 0 47.676C0 74.0068 21.6163 95.3521 48.2814 95.3521Z" fill="#0875F7"/>
<path d="M48.2812 86.4329C69.9515 86.4329 87.5188 69.0809 87.5188 47.6761C87.5188 26.2713 69.9515 8.91929 48.2812 8.91929C26.611 8.91929 9.04374 26.2713 9.04374 47.6761C9.04374 69.0809 26.611 86.4329 48.2812 86.4329Z" fill="white"/>
<path d="M87.5187 47.6761C87.5187 48.7087 87.4831 49.7234 87.394 50.7382C85.8096 30.799 68.8613 15.0435 48.2633 15.0435C27.6654 15.0435 10.7349 30.799 9.13268 50.7382C9.06147 49.7234 9.00808 48.7087 9.00808 47.6761C9.00808 26.2949 26.6151 8.91929 48.2456 8.91929C69.9116 8.91929 87.5187 26.2949 87.5187 47.6761Z" fill="#CED3E6"/>
<path d="M48.2812 51.6994C47.9786 51.6994 47.6759 51.557 47.4979 51.3078L28.253 25.7073C27.9326 25.28 28.0216 24.6747 28.4488 24.3543C28.8761 24.0338 29.4992 24.1228 29.8196 24.5501L48.6017 49.5275L69.9473 40.27C70.4458 40.0564 71.0154 40.27 71.2469 40.7685C71.4605 41.267 71.2469 41.8367 70.7484 42.0503L48.6907 51.6104C48.5483 51.6816 48.4058 51.6994 48.2812 51.6994Z" fill="#39393B"/>
</svg>
