<svg width="150" height="85" viewBox="0 0 150 85" fill="none" xmlns="http://www.w3.org/2000/svg">
<path fill-rule="evenodd" clip-rule="evenodd" d="M142.958 59.2549C141.976 58.2901 140.416 58.305 139.443 59.2726C127.781 70.4894 115.502 76.1949 102.982 76.3379C90.7912 76.4754 78.475 71.1867 66.3913 60.7078C63.7053 58.4206 59.5535 53.6584 55.9013 48.0357C58.9658 43.6279 61.0078 38.408 62.0161 33.379C63.5033 25.9515 62.4204 19.1222 59.9694 15.7399C58.6113 13.8669 56.86 12.7192 54.8124 12.2407C52.1914 11.632 48.63 12.1751 44.5426 15.642C38.9033 20.4479 37.5325 27.3099 39.2172 34.8619C40.107 38.832 41.9034 42.9982 44.1412 47.0019C41.5519 49.0688 38.3305 50.2645 34.41 49.834C26.1113 48.979 19.889 42.1647 15.4631 34.1472C11.6246 27.2112 7.00047 16.9648 8.22282 8.823C8.63664 6.05619 9.84703 3.67826 7.56355 1.417C4.06748 -2.08161 0.862757 1.54001 0.289026 5.34018C-0.939172 13.5038 1.97068 23.3377 4.84251 30.8686C10.1131 44.7274 20.0035 57.1921 33.3583 58.9105C39.6191 59.6874 44.9315 58.0226 49.2347 54.9292C53.3192 60.5976 57.7243 65.2873 60.6147 67.641C74.9165 79.0534 89.3101 84.3607 103.236 83.5534C117.149 82.7542 130.642 75.9233 142.975 62.769C143.94 61.7876 143.939 60.2198 142.958 59.2549ZM50.1936 37.031C49.3251 34.7278 48.7382 32.4649 48.5661 30.3131C48.3518 27.5769 48.8796 25.0395 51.0122 23.2362C51.3736 22.9353 51.8137 22.5151 52.175 22.2142C52.4468 23.1644 52.917 25.0334 52.9239 26.5794C52.9234 30.0301 52.139 34.1365 50.5644 37.9609C50.4163 37.6405 50.298 37.3398 50.1936 37.031Z" fill="#4D2C5E"/>
<path fill-rule="evenodd" clip-rule="evenodd" d="M52.5033 21.9518C52.7477 22.0875 52.982 22.1737 52.9633 21.9815C52.9345 21.7398 52.7721 21.7782 52.5033 21.9518Z" fill="#4D2C5E"/>
<path fill-rule="evenodd" clip-rule="evenodd" d="M136.125 64.7119C134.988 67.25 133.89 69.9505 133.107 72.5248C131.902 76.5418 131.385 80.2168 132.376 82.8921C132.685 84.2267 134.031 85.0551 135.358 84.7321C136.692 84.4229 137.521 83.0774 137.197 81.7508C137.129 81.0891 137.36 80.4023 137.579 79.6303C138.078 77.8106 139.195 75.9107 140.411 73.8618C141.965 71.2485 143.834 68.6377 145.429 66.2224C146.88 64.0377 148.09 62.0106 148.86 60.4037C150.076 57.8751 150.141 55.7521 149.866 54.5086C149.79 54.1838 147.094 49.3557 142.485 51.279C140.837 51.9721 136.753 53.9426 136.551 54.0406C134.097 55.3835 129.539 57.812 125.198 59.082C123.827 59.4865 122.502 59.8452 121.295 59.8961C121.231 59.7854 121.167 59.6747 121.09 59.572C119.963 57.9716 117.771 57.5948 116.162 58.708C115.271 59.2411 114.108 60.7428 113.797 61.642C113.2 63.3889 113.865 64.7952 115.495 65.9573C117.716 67.5351 120.929 67.9865 124.541 67.691C128.337 67.3629 132.638 66.0237 136.125 64.7119ZM140.134 56.6033C140.403 56.0789 140.495 55.6939 140.131 55.6084C139.725 55.5111 139.995 56.2036 140.134 56.6033Z" fill="#4D2C5E"/>
</svg>
