<svg width="60" height="76" viewBox="0 0 60 76" fill="none" xmlns="http://www.w3.org/2000/svg">
<path d="M59.4839 68.8412H8.02673V75.4331H59.4839V68.8412Z" fill="#D1DCE4"/>
<path d="M0 55.3163L6.83349 74.4103C7.075 75.0922 7.84216 75.5326 8.5525 75.4047L28.4989 71.7678L33.1019 63.7977L4.603 47.3462L0 55.3163Z" fill="#FEDFD2"/>
<path d="M12.3315 66.8522C9.81692 65.4031 6.76245 65.5167 4.11998 66.8806L6.81927 74.4244C7.06079 75.1064 7.82799 75.5468 8.53833 75.4189L16.4089 73.984C16.281 71.0006 14.8603 68.3013 12.3315 66.8522Z" fill="#184F78"/>
<path d="M11.8201 53.9382L0 55.3162L24.8193 12.3263L33.0877 17.0998L11.8201 53.9382Z" fill="#FC611F"/>
<path d="M23.7821 60.8427L14.2494 63.542L11.82 53.9382L33.0876 17.0999L45.0498 24.0044L23.7821 60.8427Z" fill="#FD814C"/>
<path d="M28.4993 71.782L23.7827 60.8427L45.0503 24.0044L53.3187 28.7779L28.4993 71.782Z" fill="#FDA079"/>
<path d="M27.1877 8.18971L24.801 12.3235L53.3074 28.7822L55.6941 24.6483L27.1877 8.18971Z" fill="#D1DCE4"/>
<path d="M58.575 13.9886L34.9917 0.378406C33.6278 -0.402971 31.8946 0.0658491 31.1132 1.4155L27.1921 8.20637L55.691 24.6579L59.6121 17.867C60.4077 16.5173 59.9389 14.7699 58.575 13.9886Z" fill="#184F78"/>
</svg>
