<svg width="19" height="19" viewBox="0 0 19 19" fill="none" xmlns="http://www.w3.org/2000/svg">
<path d="M9.49966 0C4.26144 0 0 4.26167 0 9.49989C0 14.7383 4.26144 19 9.49966 19C14.7379 19 18.9995 14.7383 18.9995 9.49989C18.9995 4.26167 14.7376 0 9.49966 0ZM9.49966 17.6265C5.01892 17.6265 1.37325 13.9809 1.37325 9.49989C1.37325 5.01892 5.01869 1.37348 9.49966 1.37348C13.9806 1.37348 17.6261 5.01892 17.6261 9.49989C17.6261 13.9809 13.9806 17.6265 9.49966 17.6265Z" fill="black"/>
<path d="M12.248 10.3744C12.2444 10.3744 12.2412 10.3744 12.2375 10.3744L10.186 10.405V5.0361C10.186 4.6568 9.87855 4.34937 9.49924 4.34937C9.11993 4.34937 8.8125 4.6568 8.8125 5.0361V11.1023C8.8125 11.1037 8.81296 11.105 8.81296 11.1064C8.81296 11.1087 8.8125 11.1108 8.8125 11.1126C8.81296 11.1405 8.81822 11.1668 8.82189 11.1936C8.82417 11.2103 8.8244 11.2275 8.82761 11.244C8.83379 11.2735 8.84409 11.301 8.85393 11.3287C8.85897 11.3431 8.86217 11.3582 8.86813 11.372C8.88003 11.4001 8.89605 11.4257 8.91139 11.4521C8.91849 11.4637 8.92375 11.4766 8.93131 11.488C8.9487 11.5134 8.96953 11.5361 8.99014 11.5592C8.99884 11.5688 9.00593 11.5798 9.01509 11.5892C9.03729 11.6112 9.06224 11.6297 9.0872 11.6487C9.09727 11.6563 9.1062 11.6654 9.1165 11.6725C9.14351 11.6908 9.17304 11.7053 9.20257 11.7194C9.21287 11.7243 9.22202 11.7311 9.23255 11.7355C9.26689 11.7499 9.30352 11.76 9.3406 11.7689C9.34747 11.7705 9.35388 11.7737 9.36098 11.7751C9.40538 11.784 9.4514 11.789 9.49855 11.789C9.50199 11.789 9.50565 11.789 9.50908 11.789L12.2579 11.7478C12.6369 11.7421 12.9398 11.4299 12.9343 11.0508C12.929 10.6751 12.6225 10.3744 12.248 10.3744Z" fill="black"/>
</svg>
