<svg width="189" height="130" viewBox="0 0 189 130" fill="none" xmlns="http://www.w3.org/2000/svg">
<path d="M47.8035 81.0691C47.8035 81.0691 56.7797 79.3321 59.3239 76.2499L66.4865 90.4202L45.8596 98.413C45.8465 98.4261 44.4636 84.2036 47.8035 81.0691Z" fill="#EA9B7A"/>
<path d="M0 128.059L23.1972 65.7103C24.2148 65.5536 25.4934 65.7495 26.9676 66.1804C32.3821 67.7607 40.171 72.5669 45.1548 75.3748C45.7419 75.7013 46.2769 76.0017 46.7857 76.2629C47.6337 76.7069 48.3383 77.0596 48.8863 77.2555C53.2178 78.8619 51.4173 80.0895 51.4173 80.0895C42.8848 84.099 49.1341 97.0286 44.5417 100.072C44.5417 100.072 42.5847 101.391 36.2961 104.682C30.0076 107.973 23.9408 115.3 18.2785 121.347C10.9723 129.157 6.13201 130.345 3.28781 129.862C1.01767 129.483 0 128.059 0 128.059Z" fill="#EBB12B"/>
<path d="M0 128.059L23.1972 65.7103C24.2148 65.5536 25.4934 65.7495 26.9676 66.1804L3.27475 129.862C1.01766 129.483 0 128.059 0 128.059Z" fill="#C77E2E"/>
<path d="M20.8225 72.0705L21.5139 70.216C22.936 72.8542 25.5323 75.7927 30.2422 77.2815C36.5047 79.2797 42.0365 77.1248 45.1546 75.3617C45.7418 75.6882 46.2767 75.9886 46.7855 76.2498C43.6412 78.235 37.2744 81.1735 29.7725 78.7835C25.2714 77.3599 22.5055 74.6826 20.8225 72.0705Z" fill="#C77E2E"/>
<path d="M32.9955 102.253C33.1651 101.796 33.6347 101.482 34.1435 101.547C34.7437 101.613 35.1743 102.161 35.1091 102.762L34.6263 107.02C34.5611 107.62 34.0131 108.051 33.4129 107.986C32.8128 107.921 32.3822 107.372 32.4475 106.771L32.9302 102.514C32.9432 102.422 32.9694 102.331 32.9955 102.253Z" fill="white"/>
<path d="M37.6791 99.5883C37.8487 99.1312 38.3184 98.8177 38.8272 98.883C39.4274 98.9483 39.8579 99.4968 39.7927 100.098L39.3099 104.355C39.2447 104.956 38.6968 105.387 38.0966 105.322C37.4965 105.256 37.0659 104.708 37.1312 104.107L37.6139 99.8495C37.6269 99.7581 37.653 99.6666 37.6791 99.5883Z" fill="white"/>
<path d="M29.2899 105.296C29.4595 104.839 29.9292 104.538 30.438 104.59C31.0381 104.656 31.4687 105.204 31.4034 105.805L30.9207 110.063C30.8555 110.663 30.3075 111.094 29.7074 111.029C29.1072 110.964 28.6767 110.415 28.7419 109.814L29.2247 105.557C29.2377 105.465 29.2507 105.387 29.2899 105.296Z" fill="white"/>
<path d="M25.6628 108.391C25.8324 107.934 26.3021 107.633 26.8109 107.686C27.4111 107.751 27.8417 108.3 27.7765 108.9L27.2937 113.158C27.2284 113.759 26.6805 114.19 26.0803 114.124C25.4802 114.059 25.0496 113.511 25.1149 112.91L25.5976 108.652C25.6106 108.561 25.6367 108.469 25.6628 108.391Z" fill="white"/>
<path d="M22.075 111.878C22.2446 111.421 22.7143 111.121 23.2231 111.173C23.8233 111.238 24.2539 111.787 24.1886 112.387L23.7058 116.645C23.6406 117.246 23.0927 117.677 22.4925 117.611C21.8923 117.546 21.4618 116.998 21.5271 116.397L22.0098 112.139C22.0228 112.048 22.0489 111.969 22.075 111.878Z" fill="white"/>
<path d="M18.6437 115.848C18.8133 115.391 19.283 115.078 19.7918 115.143C20.3919 115.208 20.8225 115.757 20.7573 116.358L20.2746 120.615C20.2094 121.216 19.6613 121.647 19.0612 121.582C18.461 121.516 18.0305 120.968 18.0957 120.367L18.5784 116.109C18.5915 116.018 18.6176 115.927 18.6437 115.848Z" fill="white"/>
<path d="M146.711 8.33698C146.711 8.33698 167.481 -5.49375 180.985 2.47294C205.682 17.035 169.347 52.7676 125.836 72.5929C82.3382 92.4183 67.5432 91.6216 67.5432 91.6216C67.5432 91.6216 57.5363 89.8324 59.5325 73.6639C59.5325 73.6639 84.5301 61.4135 97.068 49.8422C109.606 38.2839 117.63 24.7797 146.711 8.33698Z" fill="#21B573"/>
<path d="M108.719 80.0504C106.318 80.834 103.891 81.6306 101.373 82.4273C91.6405 85.4964 80.5246 88.7093 70.4656 91.1776L70.4265 92.6143C79.5201 90.394 90.1792 87.3902 101.778 83.7333C104.048 83.015 106.357 82.2706 108.68 81.5L108.719 80.0504Z" fill="#217C58"/>
<path d="M61.7244 78.1173C70.9484 74.9829 89.3444 64.3911 110.937 49.7898C127.089 38.8716 145.615 25.1061 148.107 20.6918C149.451 18.3149 149.686 16.4473 148.772 15.1412C147.416 13.1953 144.023 13.2867 142.484 13.4434C142.092 13.4826 141.805 13.8483 141.871 14.2401C141.936 14.5927 142.249 14.8409 142.614 14.8147C144.128 14.6711 146.776 14.6841 147.65 15.9249C148.368 16.9566 147.65 18.7197 146.92 20.0127C144.911 23.5651 129.45 35.6065 110.167 48.6536C93.5715 59.8723 72.0053 73.1676 61.2808 76.8244L61.7244 78.1173Z" fill="#217C58"/>
<path d="M62.8723 71.2478C64.6989 79.4757 67.5561 86.8417 72.7879 92.2224C72.7879 92.2224 69.0304 95.5006 65.1686 93.7505C62.22 92.4184 55.6053 79.9067 57.0274 72.7759C59.2584 71.274 61.2415 70.634 62.8723 71.2478Z" fill="#217C58"/>
</svg>
