<svg width="133" height="156" viewBox="0 0 133 156" fill="none" xmlns="http://www.w3.org/2000/svg">
<path d="M89.0826 14.0635C89.0826 14.0635 122.78 59.8298 130.469 82.6348C138.159 105.427 119.501 121.629 119.501 121.629L102.171 128.141C102.171 128.128 84.3597 47.6394 89.0826 14.0635Z" fill="#084FC7"/>
<path d="M86.1032 142.272C71.3752 147.156 35.3878 159.971 19.762 154.788C19.0985 154.566 18.487 154.319 17.9015 154.032C16.1971 153.199 14.831 152.079 13.8682 150.62C7.74022 141.282 1.66421 102.093 4.39645 79.0663C4.73472 76.188 4.90385 73.0622 4.95589 69.7802C5.03396 64.9483 4.87787 59.7778 4.6697 54.5812C3.90207 35.0192 0.818514 21.5133 9.18435 16.7595C16.6915 12.4876 26.1893 9.15348 32.2392 7.70782C35.9863 6.80916 42.1273 4.9337 46.4338 5.01184L65.065 8.39809C65.065 8.39809 81.1462 11.081 84.8542 13.8291C88.5623 16.5641 90.4618 28.6374 97.1623 39.6947C103.863 50.7521 105.32 61.8486 98.9187 73.9869C93.3502 84.5494 94.3259 80.538 93.5973 97.8599C92.6996 119.089 114.87 132.725 86.1032 142.272Z" fill="white"/>
<g opacity="0.8">
<g opacity="0.8">
<path opacity="0.8" d="M36.6368 42.8075C36.6368 42.8075 56.8293 37.5849 82.6033 42.4038L83.2279 60.2336C83.2279 60.2336 54.8907 57.0818 37.0401 61.6272L36.6368 42.8075Z" fill="#CED3E6"/>
</g>
</g>
<g opacity="0.8">
<path opacity="0.8" d="M59.8346 27.7517C59.5614 27.7517 59.2883 27.7386 59.002 27.7256C47.969 27.1525 37.8467 17.4106 37.4304 16.9938C37.1311 16.7073 37.1311 16.2254 37.4173 15.9259C37.7036 15.6263 38.185 15.6263 38.4842 15.9129C38.5883 16.004 48.6195 25.6808 59.0801 26.2148C69.0983 26.7488 70.3082 16.7985 70.3603 16.3687C70.4123 15.9519 70.7766 15.6524 71.193 15.7045C71.6093 15.7436 71.9086 16.1212 71.8565 16.538C71.8565 16.6422 70.5294 27.7517 59.8346 27.7517Z" fill="#CED3E6"/>
</g>
<g opacity="0.8">
<path opacity="0.8" d="M28.5571 117.005C28.479 116.94 28.414 116.875 28.349 116.784C28.1278 116.406 28.2448 115.924 28.6091 115.703C42.9598 107.003 56.7251 103.942 65.7415 102.9C75.5385 101.767 81.8487 102.679 82.1089 102.718C82.5383 102.783 82.8374 103.187 82.7724 103.616C82.7073 104.046 82.304 104.346 81.8746 104.281C81.8096 104.268 75.4604 103.356 65.8586 104.476C57.0113 105.505 43.4933 108.526 29.4158 117.057C29.1556 117.226 28.8173 117.2 28.5571 117.005Z" fill="#CED3E6"/>
</g>
<path d="M47.3183 149.37C34.0604 145.163 22.0647 136.697 13.881 129.156C13.2305 128.557 12.606 127.971 12.0075 127.385C7.76601 123.257 4.77357 125.379 3.47251 123.009C-1.48454 113.931 1.32575 78.3108 3.47251 65.2217C5.61926 52.1456 -3.39717 28.1815 1.4558 19.6117C6.30876 11.0419 23.0274 8.04638 23.0274 8.04638C23.0274 8.04638 20.6595 5.28527 25.1482 2.12044C29.6369 -1.04439 41.5806 0.271059 41.5806 0.271059C42.1531 56.8733 50.1546 109.464 47.3183 149.37Z" fill="#0875F7"/>
<path d="M34.2819 133.142C33.9176 133.142 33.6053 132.881 33.5533 132.517C27.5163 93.2492 33.4882 19.3771 33.5533 18.6348C33.5923 18.231 33.9436 17.9315 34.3469 17.9575C34.7502 17.9966 35.0625 18.3482 35.0235 18.752C34.9584 19.4944 29.0126 93.1841 35.0235 132.282C35.0885 132.686 34.8022 133.064 34.3989 133.129C34.3599 133.129 34.3209 133.142 34.2819 133.142Z" fill="white"/>
<path d="M46.4206 139.029C46.0693 139.029 45.757 138.781 45.692 138.417C37.7945 93.3145 37.17 15.4831 37.17 14.7016C37.17 14.2979 37.4953 13.9593 37.8986 13.9593C38.302 13.9593 38.6402 14.2849 38.6402 14.6886C38.6402 15.4701 39.2777 93.1712 47.1492 138.156C47.2142 138.56 46.9541 138.937 46.5507 139.016C46.4987 139.029 46.4596 139.029 46.4206 139.029Z" fill="#084FC7"/>
<path d="M33.3187 14.2457C33.2536 14.2457 33.1886 14.2327 33.1235 14.2197C26.8784 12.5526 23.0533 8.86682 22.8841 8.71054C22.5979 8.42401 22.5849 7.95512 22.8711 7.66859C23.1573 7.38206 23.6257 7.36903 23.9119 7.65556C23.951 7.69463 27.633 11.2372 33.4878 12.8C33.8781 12.9042 34.1123 13.308 34.0082 13.7117C33.9432 14.0373 33.644 14.2457 33.3187 14.2457Z" fill="#084FC7"/>
<path d="M104.76 124.65C104.76 124.65 100.038 140.579 82.4472 148.172C80.2614 104.984 75.3174 55.6622 68.9292 3.20158C68.9292 3.20158 75.6556 2.01638 78.4529 5.87148C79.6629 7.52552 79.9231 10.3387 79.9231 10.3387C79.9231 10.3387 83.358 11.0029 87.1181 12.7612C90.8781 14.5194 90.4488 16.9288 91.3465 23.0501C92.2442 29.1714 101.69 38.6398 104.76 51.4685C107.831 64.2971 99.6864 72.4762 97.1493 83.247C94.5992 93.9918 104.76 124.65 104.76 124.65Z" fill="#0875F7"/>
<path d="M89.6549 131.331C89.2516 131.331 88.9263 131.019 88.9133 130.615C87.2089 71.8638 76.4881 19.3641 76.384 18.8432C76.306 18.4394 76.5532 18.0487 76.9565 17.9705C77.3598 17.8924 77.7501 18.1399 77.8282 18.5436C77.9323 19.0646 88.6791 71.6815 90.3835 130.576C90.3965 130.98 90.0713 131.331 89.6679 131.331C89.6679 131.331 89.6679 131.331 89.6549 131.331Z" fill="white"/>
<path d="M73.4698 15.8738C73.1185 15.8738 72.8063 15.6133 72.7412 15.2616C72.6762 14.8579 72.9493 14.4802 73.3397 14.402C73.3917 14.389 78.1276 13.5294 79.2075 10.1041C79.3246 9.71338 79.7409 9.49198 80.1312 9.62222C80.5216 9.73944 80.7297 10.1562 80.6126 10.5469C79.2465 14.8448 73.808 15.8217 73.5869 15.8607C73.5478 15.8737 73.5088 15.8738 73.4698 15.8738Z" fill="#084FC7"/>
<path d="M87.9378 131.332C87.5735 131.332 87.2482 131.058 87.2092 130.68C82.0049 87.3626 73.7822 18.1401 73.7041 17.4498C73.6521 17.0461 73.9513 16.6814 74.3547 16.6293C74.758 16.5772 75.1223 16.8767 75.1743 17.2805C75.2524 17.9708 83.4751 87.2063 88.6794 130.511C88.7314 130.915 88.4452 131.279 88.0289 131.332C87.9898 131.332 87.9638 131.332 87.9378 131.332Z" fill="#084FC7"/>
</svg>
