<svg width="67" height="58" viewBox="0 0 67 58" fill="none" xmlns="http://www.w3.org/2000/svg">
<path d="M62.854 44.3781L4.12777 44.3421C1.85659 44.3421 0 42.4855 0 40.2143L0.0180153 4.12777C0.0180153 1.85659 1.87463 0 4.14581 0L62.872 0.0360582C65.1432 0.0360582 66.9998 1.89265 66.9998 4.16383L66.9818 40.2504C66.9818 42.5396 65.1432 44.3781 62.854 44.3781Z" fill="#DF615C"/>
<path d="M59.357 37.7269L54.0035 57.9512L44.6484 38.9345L59.357 37.7269Z" fill="#DF615C"/>
<path d="M48.3436 18.9264C47.1539 26.497 33.0041 35.9782 33.0041 35.9782C33.0041 35.9782 19.3951 26.4789 18.62 18.8903C17.7728 10.6708 27.5064 8.1653 33.617 14.366C40.052 8.18332 49.6414 10.7069 48.3436 18.9264Z" fill="white"/>
</svg>
