<svg width="233" height="150" viewBox="0 0 233 150" fill="none" xmlns="http://www.w3.org/2000/svg">
<path d="M232.828 7.95227L209.203 107.873L208.579 110.494L206.992 117.216C206.296 120.141 203.711 122.191 200.715 122.191H41.5444C37.3721 122.191 34.3053 118.304 35.2681 114.257L61.1042 4.97462C61.7996 2.06828 64.385 0.0177978 67.3805 0.0177978H226.534C230.706 0.0177978 233.773 3.9048 232.828 7.95227Z" fill="#39393B"/>
<path d="M209.185 107.855L208.579 110.494H43.3097V107.855H209.185Z" fill="#585859"/>
<path d="M105.68 24.7307C104.36 31.8093 97.5493 37.5507 90.4706 37.5507C83.392 37.5507 78.7205 31.8093 80.0399 24.7307C81.3593 17.6521 88.1705 11.9107 95.2491 11.9107C102.346 11.9107 106.999 17.6521 105.68 24.7307Z" fill="#FAAF3A"/>
<path d="M91.2018 22.2879C90.9343 23.6965 90.2211 24.8554 89.6149 24.8554C88.9908 24.8554 88.7055 23.7143 88.973 22.2879C89.2404 20.8793 89.9536 19.7203 90.5599 19.7203C91.1839 19.7203 91.4692 20.8614 91.2018 22.2879Z" fill="#39393B"/>
<path d="M97.8883 22.2879C97.6208 23.6965 96.9076 24.8555 96.3014 24.8555C95.6951 24.8555 95.392 23.7143 95.6595 22.2879C95.9269 20.8793 96.6401 19.7204 97.2464 19.7204C97.8704 19.7204 98.1557 20.8615 97.8883 22.2879Z" fill="#39393B"/>
<path d="M91.8079 30.989C86.2983 30.989 86.0665 25.4794 86.0665 25.426C86.0487 25.1228 86.2983 24.8197 86.6192 24.7662C86.9402 24.6949 87.1898 24.891 87.2076 25.1941C87.2076 25.3903 87.4216 29.8835 92.0397 29.8835C96.6399 29.8835 98.5299 25.3903 98.619 25.1941C98.7438 24.891 99.0826 24.7127 99.3679 24.7662C99.6532 24.8376 99.7958 25.1228 99.671 25.426C99.6175 25.4616 97.3174 30.989 91.8079 30.989Z" fill="#39393B"/>
<path d="M179.266 84.6049C179.408 91.2377 190.641 99.5467 190.641 99.5467C190.641 99.5467 203.693 91.2377 205.28 84.6049C206.992 77.4193 198.79 75.2083 192.71 80.6287C187.806 75.2083 179.105 77.4193 179.266 84.6049Z" fill="#DF615C"/>
<path d="M155.48 65.3658C154.713 72.2483 148.526 77.8114 141.662 77.8114C134.797 77.8114 129.822 72.2305 130.589 65.3658C131.356 58.4833 137.543 52.9203 144.407 52.9203C151.29 52.9203 156.247 58.5011 155.48 65.3658Z" fill="#585859"/>
<path d="M73.6924 0.0178205L46.1803 122.191H41.5444C37.3721 122.191 34.3053 118.304 35.2681 114.257L61.1042 4.97464C61.7996 2.0683 64.385 0 67.3805 0H73.6924V0.0178205Z" fill="#585859"/>
<path d="M119.784 122.191L114.952 149.347H130.91L135.742 122.191H119.784Z" fill="white"/>
<path d="M91.0946 144.675L94.3576 140.093C95.5166 138.452 97.4066 137.49 99.4214 137.49H143.141C145.459 137.49 147.581 138.773 148.651 140.824L150.844 145.032C151.878 146.993 150.452 149.365 148.223 149.365H93.5017C91.0947 149.347 89.7039 146.619 91.0946 144.675Z" fill="white"/>
<path d="M0 149.329H131.338L132.764 144.372C133.656 141.252 131.32 138.149 128.075 138.149H6.8825C4.7072 138.149 2.79935 139.593 2.19312 141.68L0 149.329Z" fill="white"/>
</svg>
