<svg width="168" height="148" viewBox="0 0 168 148" fill="none" xmlns="http://www.w3.org/2000/svg">
<path d="M124.114 139.515L12.9165 106.299C4.82912 103.886 0.238705 95.374 2.65173 87.2866L24.8591 12.9165C27.2721 4.82911 35.7837 0.238706 43.8711 2.65173L155.068 35.8685C163.156 38.2815 167.746 46.7931 165.333 54.8805L143.126 129.251C140.703 137.329 132.191 141.928 124.114 139.515Z" stroke="white" stroke-opacity="0.1" stroke-width="4" stroke-miterlimit="10" stroke-linecap="round"/>
<path d="M5.27203 78.4923L145.746 120.456" stroke="white" stroke-opacity="0.1" stroke-width="4" stroke-miterlimit="10" stroke-linecap="round"/>
<path d="M75.853 111.662C75.2497 113.679 73.1195 114.829 71.1024 114.226C69.0852 113.623 67.9353 111.492 68.5385 109.475C69.1418 107.458 71.272 106.308 73.2892 106.911C75.3063 107.515 76.4562 109.645 75.853 111.662Z" fill="#4D2C5E" fill-opacity="0.5"/>
<path d="M84.2743 127.626L52.7801 118.219L48.5367 132.426L80.0308 141.833L84.2743 127.626Z" stroke="white" stroke-opacity="0.1" stroke-width="4" stroke-miterlimit="10" stroke-linecap="round"/>
<path d="M36.8581 129.75L91.2266 145.991" stroke="white" stroke-opacity="0.1" stroke-width="4" stroke-miterlimit="10" stroke-linecap="round"/>
</svg>
