<svg width="79" height="78" viewBox="0 0 79 78" fill="none" xmlns="http://www.w3.org/2000/svg">
<path d="M10.8078 21.933C10.8078 24.6359 8.61247 26.8313 5.90958 26.8313C3.20669 26.8313 1.01129 24.6359 1.01129 21.933C1.01129 19.2301 3.20669 17.0347 5.90958 17.0347C8.61247 17.0347 10.8078 19.2244 10.8078 21.933Z" stroke="#4D2C5E" stroke-opacity="0.1" stroke-width="2" stroke-miterlimit="10" stroke-linecap="round" stroke-linejoin="round"/>
<path d="M58.331 64.4151C61.0363 64.4151 63.2293 62.2221 63.2293 59.5169C63.2293 56.8116 61.0363 54.6186 58.331 54.6186C55.6258 54.6186 53.4327 56.8116 53.4327 59.5169C53.4327 62.2221 55.6258 64.4151 58.331 64.4151Z" stroke="#4D2C5E" stroke-opacity="0.1" stroke-width="2" stroke-miterlimit="10" stroke-linecap="round" stroke-linejoin="round"/>
<path d="M39.8894 49.4466C45.6589 49.4466 50.3361 44.7695 50.3361 39C50.3361 33.2305 45.6589 28.5534 39.8894 28.5534C34.1199 28.5534 29.4428 33.2305 29.4428 39C29.4428 44.7695 34.1199 49.4466 39.8894 49.4466Z" stroke="#4D2C5E" stroke-opacity="0.1" stroke-width="2" stroke-miterlimit="10" stroke-linecap="round" stroke-linejoin="round"/>
<path d="M58.0916 39L54.6075 45.0901L52.76 51.8701L45.9856 53.712L39.8899 57.2018L33.7941 53.712L27.0141 51.8701L25.1722 45.0901L21.6824 39L25.1722 32.9043L27.0141 26.1243L33.7941 24.2824L39.8899 20.7926L45.9856 24.2824L52.76 26.1243L54.6075 32.9043L58.0916 39Z" stroke="#4D2C5E" stroke-opacity="0.1" stroke-width="2" stroke-miterlimit="10" stroke-linecap="round" stroke-linejoin="round"/>
<path d="M53.4326 59.5169C53.4326 56.814 55.628 54.6186 58.3309 54.6186C59.7907 54.6186 61.1022 55.2629 61.9975 56.2779C65.7268 51.5108 67.9564 45.5177 67.9564 38.9942C67.9564 23.4897 55.3885 10.9218 39.884 10.9218C24.3794 10.9218 11.8115 23.4897 11.8115 38.9942C11.8115 54.4988 24.3794 67.0667 39.884 67.0667C45.3354 67.0667 50.4161 65.51 54.7213 62.8242C53.9287 61.9517 53.4326 60.7942 53.4326 59.5169Z" stroke="#4D2C5E" stroke-opacity="0.1" stroke-width="2" stroke-miterlimit="10" stroke-linecap="round" stroke-linejoin="round"/>
<path d="M39.8896 1.01129C26.7914 1.01129 15.2385 7.64307 8.41288 17.7304C9.84416 18.5858 10.8078 20.1482 10.8078 21.9387C10.8078 24.6416 8.61245 26.837 5.90956 26.837C5.24239 26.837 4.60945 26.7002 4.03351 26.4607C2.65926 30.3896 1.90653 34.6035 1.90653 39C1.90653 59.9788 18.9165 76.9888 39.8953 76.9888C60.874 76.9888 77.884 59.9788 77.884 39C77.884 18.0213 60.8683 1.01129 39.8896 1.01129Z" stroke="#4D2C5E" stroke-opacity="0.1" stroke-width="2" stroke-miterlimit="10" stroke-linecap="round" stroke-linejoin="round"/>
</svg>
