<svg width="236" height="221" viewBox="0 0 236 221" fill="none" xmlns="http://www.w3.org/2000/svg">
<path d="M142.354 220.745C88.6117 218.853 33.0191 211.511 4.23915 112.367C-4.32057 82.8919 1.24256 60.5773 10.6361 43.7532C12.9552 39.5929 15.5088 35.7847 18.1405 32.2764C19.1307 30.9592 20.134 29.6811 21.1372 28.4421C42.1391 2.6583 77.3551 -6.58839 108.584 4.81021C126.095 11.2007 148.556 20.643 168.581 32.9285C208.813 57.6168 218.258 85.7611 231.404 134.029C232.538 138.176 233.658 142.819 234.518 147.762C234.974 150.397 235.352 153.122 235.612 155.887C238.531 186.757 226.636 223.705 142.354 220.745Z" fill="#39393B"/>
<path d="M235.612 155.887C233.827 160.909 231.287 166.021 227.899 170.872C217.737 185.453 196.566 203.06 153.468 204.208C151.565 204.26 149.702 204.286 147.852 204.286C131.384 204.286 116.857 202.29 103.581 198.234C89.6931 193.996 77.5765 187.579 66.5284 178.658C48.067 163.739 32.8367 141.92 17.1894 107.919C11.0009 94.4862 7.79589 80.8705 7.66561 67.4504C7.58744 59.4557 8.57758 51.5132 10.6491 43.7664C12.9682 39.606 15.5218 35.7977 18.1535 32.2895C17.4891 33.8284 16.8377 35.4456 16.2253 37.128C10.597 52.5827 6.71455 77.1796 20.2251 106.524C47.7022 166.217 79.5569 202.812 153.389 200.882C195.107 199.786 215.457 182.923 225.176 168.981C230.258 161.704 233.124 154.335 234.531 147.775C234.974 150.397 235.352 153.123 235.612 155.887Z" fill="#585859"/>
</svg>
