<svg width="70" height="74" viewBox="0 0 70 74" fill="none" xmlns="http://www.w3.org/2000/svg">
<path d="M34.9999 73.7146C54.3299 73.7146 69.9999 58.2207 69.9999 39.108C69.9999 19.9954 54.3299 4.5015 34.9999 4.5015C15.67 4.5015 0 19.9954 0 39.108C0 58.2207 15.67 73.7146 34.9999 73.7146Z" fill="#CED3E6"/>
<path d="M34.9999 69.2131C54.3299 69.2131 69.9999 53.7192 69.9999 34.6066C69.9999 15.4939 54.3299 0 34.9999 0C15.67 0 0 15.4939 0 34.6066C0 53.7192 15.67 69.2131 34.9999 69.2131Z" fill="#21B573"/>
<path d="M34.9998 62.734C50.7193 62.734 63.4625 50.1409 63.4625 34.6064C63.4625 19.072 50.7193 6.47885 34.9998 6.47885C19.2804 6.47885 6.53724 19.072 6.53724 34.6064C6.53724 50.1409 19.2804 62.734 34.9998 62.734Z" fill="white"/>
<path d="M63.4625 34.6064C63.4625 35.361 63.4365 36.1026 63.3715 36.8311C62.2148 22.351 49.933 10.9153 34.9998 10.9153C20.0667 10.9153 7.78493 22.351 6.62823 36.8311C6.57624 36.1026 6.53724 35.361 6.53724 34.6064C6.53724 19.0985 19.2999 6.47885 34.9998 6.47885C50.6868 6.47885 63.4625 19.0985 63.4625 34.6064Z" fill="#CED3E6"/>
<path d="M34.9999 37.5338C34.779 37.5338 34.571 37.4297 34.4281 37.2476L20.4697 18.6693C20.2357 18.3571 20.3007 17.9148 20.6126 17.6806C20.9245 17.4464 21.3795 17.5114 21.6134 17.8237L35.2338 35.9596L50.7129 29.2464C51.0768 29.0903 51.4926 29.2464 51.6486 29.6107C51.8046 29.962 51.6486 30.3783 51.2847 30.5344L35.2859 37.4817C35.1949 37.5208 35.0909 37.5338 34.9999 37.5338Z" fill="#39393B"/>
</svg>
