<svg width="24" height="24" viewBox="0 0 24 24" fill="none" xmlns="http://www.w3.org/2000/svg">
<path d="M17.6125 15.4913C18.7935 13.8785 19.4999 11.8975 19.4999 9.74998C19.4999 4.37403 15.1259 0 9.74993 0C4.37398 0 0 4.37403 0 9.74998C0 15.1259 4.37403 19.5 9.74998 19.5C11.8975 19.5 13.8787 18.7934 15.4915 17.6124L21.8789 23.9999L24 21.8788C24 21.8787 17.6125 15.4913 17.6125 15.4913ZM9.74998 16.4999C6.02781 16.4999 3.00001 13.4721 3.00001 9.74998C3.00001 6.02781 6.02781 3.00001 9.74998 3.00001C13.4721 3.00001 16.4999 6.02781 16.4999 9.74998C16.4999 13.4721 13.4721 16.4999 9.74998 16.4999Z" fill="#0F335E"/>
</svg>
