<svg width="150" height="85" viewBox="0 0 150 85" fill="none" xmlns="http://www.w3.org/2000/svg">
<path fill-rule="evenodd" clip-rule="evenodd" d="M7.0425 25.547C8.02394 26.5118 9.58376 26.497 10.5566 25.5293C22.2186 14.3125 34.4978 8.60699 47.0178 8.46402C59.2088 8.32649 71.525 13.6152 83.6087 24.0941C86.2947 26.3813 90.4465 31.1435 94.0987 36.7662C91.0342 41.174 88.9922 46.3939 87.9839 51.4229C86.4967 58.8504 87.5796 65.6797 90.0306 69.062C91.3887 70.935 93.14 72.0827 95.1876 72.5612C97.8086 73.1699 101.37 72.6268 105.457 69.1599C111.097 64.354 112.467 57.492 110.783 49.94C109.893 45.9699 108.097 41.8037 105.859 37.8C108.448 35.7331 111.67 34.5374 115.59 34.9679C123.889 35.8229 130.111 42.6372 134.537 50.6547C138.375 57.5907 143 67.8371 141.777 75.9789C141.363 78.7457 140.153 81.1236 142.436 83.3849C145.933 86.8835 149.137 83.2619 149.711 79.4617C150.939 71.2981 148.029 61.4643 145.157 53.9333C139.887 40.0745 129.996 27.6098 116.642 25.8914C110.381 25.1145 105.068 26.7793 100.765 29.8727C96.6808 24.2043 92.2757 19.5146 89.3853 17.1609C75.0835 5.74851 60.6899 0.441209 46.7637 1.24847C32.8512 2.04775 19.3581 8.87856 7.02485 22.0329C6.06 23.0143 6.06104 24.5821 7.0425 25.547ZM99.8064 47.7709C100.675 50.0741 101.262 52.337 101.434 54.4888C101.648 57.225 101.12 59.7624 98.9878 61.5657C98.6264 61.8666 98.1863 62.2868 97.825 62.5877C97.5532 61.6375 97.083 59.7685 97.0761 58.2225C97.0766 54.7718 97.861 50.6654 99.4356 46.841C99.5837 47.1614 99.702 47.4622 99.8064 47.7709Z" fill="#4D2C5E"/>
<path fill-rule="evenodd" clip-rule="evenodd" d="M97.4967 62.8501C97.2523 62.7144 97.018 62.6282 97.0367 62.8204C97.0655 63.0621 97.2279 63.0237 97.4967 62.8501Z" fill="#4D2C5E"/>
<path fill-rule="evenodd" clip-rule="evenodd" d="M13.8754 20.09C15.0117 17.5519 16.1096 14.8514 16.8929 12.2771C18.098 8.26011 18.6148 4.58509 17.6237 1.90977C17.3145 0.575244 15.969 -0.253235 14.6424 0.0698006C13.3079 0.378998 12.4795 1.72454 12.8025 3.05108C12.8709 3.71278 12.64 4.39959 12.4215 5.17159C11.9222 6.99135 10.8048 8.89116 9.58905 10.9401C8.03487 13.5534 6.16551 16.1642 4.5708 18.5795C3.11976 20.7642 1.90985 22.7913 1.14004 24.3982C-0.0755945 26.9268 -0.141432 29.0498 0.133664 30.2934C0.210427 30.6181 2.9057 35.4462 7.51532 33.5229C9.16329 32.8298 13.2474 30.8593 13.4492 30.7613C15.9029 29.4184 20.4607 26.9899 24.8017 25.7199C26.1735 25.3154 27.4979 24.9567 28.7047 24.9058C28.7686 25.0165 28.8326 25.1272 28.9103 25.2299C30.0373 26.8303 32.2292 27.2071 33.8376 26.0939C34.7291 25.5608 35.8919 24.0591 36.203 23.1599C36.7998 21.413 36.1354 20.0067 34.505 18.8446C32.284 17.2668 29.0711 16.8154 25.4591 17.1109C21.6629 17.439 17.3619 18.7782 13.8754 20.09ZM9.8661 28.1986C9.59689 28.723 9.50546 29.108 9.86856 29.1935C10.2753 29.2908 10.0046 28.5983 9.8661 28.1986Z" fill="#4D2C5E"/>
</svg>
