<svg width="16" height="9" viewBox="0 0 16 9" fill="none" xmlns="http://www.w3.org/2000/svg">
<path d="M0.907738 9C0.596854 9 0.285956 8.83542 0.12137 8.54282C-0.134652 8.10392 0.029938 7.55532 0.468833 7.2993C0.76143 7.13471 7.50946 3.33095 14.5684 2.78233C15.0804 2.74576 15.5193 3.11149 15.5559 3.62353C15.5924 4.13558 15.2267 4.57449 14.7147 4.61106C8.07636 5.12311 1.43806 8.85371 1.3832 8.89028C1.21861 8.96343 1.05404 9 0.907738 9Z" fill="#D96C63"/>
<path d="M12.1364 4.92181C11.9718 4.92181 11.8072 4.88522 11.661 4.79378C7.40001 2.21527 2.24298 1.81294 2.18812 1.81294C1.67607 1.77637 1.31034 1.33748 1.34692 0.843718C1.38349 0.331674 1.8041 -0.0340562 2.31614 0.0025184C2.53559 0.0208057 7.96691 0.423106 12.5936 3.23935C13.0325 3.49537 13.1605 4.06228 12.9045 4.50118C12.7399 4.7572 12.429 4.92181 12.1364 4.92181Z" fill="#D96C63"/>
</svg>
