<svg width="70" height="117" viewBox="0 0 70 117" fill="none" xmlns="http://www.w3.org/2000/svg">
<path d="M70.0002 92.3219L68.3374 116.079C68.3374 116.079 40.1107 112.048 26.2636 108.511C22.2238 107.484 17.7034 106.157 13.5467 103.947C5.89573 99.8767 -0.443308 92.79 0.0243228 78.9807C0.16721 74.5467 1.02459 69.4235 2.76522 63.4681C12.8453 28.9709 29.7319 0 29.7319 0C51.4638 9.31021 49.6322 24.8099 49.6322 24.8099C43.4361 41.3628 29.7319 76.6142 29.7319 76.6142C37.6947 86.3535 70.0002 92.3219 70.0002 92.3219Z" fill="#0875F7"/>
<path d="M29.7318 77.3683C29.6019 77.3683 29.4589 77.3293 29.342 77.2513C26.9389 75.769 20.4051 74.2216 20.3401 74.2086C19.9374 74.1176 19.6907 73.7144 19.7946 73.3244C19.8855 72.9213 20.2882 72.6872 20.6779 72.7782C20.9117 72.8303 25.497 73.9095 28.5236 75.2098C28.082 74.2216 27.3546 73.1683 26.3544 72.024C26.0816 71.712 26.1205 71.2569 26.4193 70.9838C26.7311 70.7107 27.1858 70.7497 27.4586 71.0488C29.1992 73.0253 30.1864 74.8197 30.4592 76.5231C30.5111 76.8092 30.3812 77.0953 30.1474 77.2513C30.0175 77.3293 29.8746 77.3683 29.7318 77.3683Z" fill="#084FC7"/>
<path d="M13.5467 103.96C5.89573 99.8898 -0.443308 92.8031 0.0243228 78.9938C6.09053 82.1666 16.6512 89.8514 13.5467 103.96Z" fill="#084FC7"/>
<path d="M52.2563 88.6811C52.1914 88.6811 52.1394 88.668 52.0744 88.655C38.0975 85.0402 29.6022 77.4984 29.2514 77.1733C29.0046 76.9523 28.9398 76.5882 29.0826 76.2891C39.0458 56.6675 45.3588 41.0897 48.9309 27.2545C49.0349 26.8644 49.4375 26.6173 49.8272 26.7213C50.2169 26.8254 50.4637 27.2285 50.3598 27.6186C46.7876 41.4408 40.5266 56.9535 30.6544 76.4321C32.5379 77.9925 40.5396 84.143 52.4382 87.2117C52.8279 87.3157 53.0746 87.7188 52.9707 88.1089C52.8798 88.46 52.5811 88.6811 52.2563 88.6811Z" fill="#084FC7"/>
<path d="M46.6574 38.2681C46.5015 38.2681 46.3327 38.2161 46.2028 38.112C45.8781 37.852 45.8261 37.3969 46.0859 37.0718L51.2687 30.5573C51.5285 30.2322 51.9832 30.1802 52.3079 30.4402C52.6327 30.7003 52.6847 31.1554 52.4249 31.4805L47.242 37.995C47.0861 38.1641 46.8652 38.2681 46.6574 38.2681Z" fill="#084FC7"/>
</svg>
