<svg width="82" height="73" viewBox="0 0 82 73" fill="none" xmlns="http://www.w3.org/2000/svg">
<path d="M40.8529 55.1333C62.5855 55.1333 80.2032 46.7823 80.2032 36.4808C80.2032 26.1793 62.5855 17.8283 40.8529 17.8283C19.1204 17.8283 1.50268 26.1793 1.50268 36.4808C1.50268 46.7823 19.1204 55.1333 40.8529 55.1333Z" stroke="#4D2C5E" stroke-opacity="0.1" stroke-width="3" stroke-miterlimit="10" stroke-linecap="round" stroke-linejoin="round"/>
<path d="M56.7663 46.2035C68.0672 27.6417 70.0959 8.25191 61.2974 2.89514C52.4989 -2.46163 36.2051 8.24316 24.9041 26.8049C13.6032 45.3667 11.5746 64.7565 20.3731 70.1133C29.1716 75.47 45.4654 64.7653 56.7663 46.2035Z" stroke="#4D2C5E" stroke-opacity="0.1" stroke-width="3" stroke-miterlimit="10" stroke-linecap="round" stroke-linejoin="round"/>
<path d="M61.2895 70.1049C70.088 64.7481 68.0594 45.3583 56.7585 26.7965C45.4576 8.23472 29.1638 -2.47004 20.3653 2.88673C11.5668 8.2435 13.5954 27.6333 24.8963 46.1951C36.1973 64.7569 52.4911 75.4616 61.2895 70.1049Z" stroke="#4D2C5E" stroke-opacity="0.1" stroke-width="3" stroke-miterlimit="10" stroke-linecap="round" stroke-linejoin="round"/>
<path d="M40.8528 41.4184C43.5798 41.4184 45.7904 39.2077 45.7904 36.4808C45.7904 33.7538 43.5798 31.5431 40.8528 31.5431C38.1259 31.5431 35.9152 33.7538 35.9152 36.4808C35.9152 39.2077 38.1259 41.4184 40.8528 41.4184Z" stroke="#4D2C5E" stroke-opacity="0.1" stroke-width="3" stroke-miterlimit="10" stroke-linecap="round" stroke-linejoin="round"/>
</svg>
