<svg width="147" height="150" viewBox="0 0 147 150" fill="none" xmlns="http://www.w3.org/2000/svg">
<path d="M70.1612 126.87L32.8101 114.184C28.8633 112.847 26.7561 108.558 28.0932 104.611C29.4302 100.664 33.7193 98.5573 37.6555 99.8943L75.0065 112.58C78.9534 113.917 81.0606 118.206 79.7235 122.142C78.3865 126.1 74.108 128.218 70.1612 126.87Z" fill="#4D2C5E" fill-opacity="0.5" stroke="white" stroke-opacity="0.1" stroke-width="3" stroke-miterlimit="10"/>
<path d="M65.2515 141.331L27.9005 128.646C23.9536 127.309 21.8465 123.019 23.1835 119.083C24.5205 115.136 28.8097 113.029 32.7565 114.366L70.1076 127.041C74.0544 128.378 76.1616 132.667 74.8245 136.614C73.4768 140.561 69.1984 142.668 65.2515 141.331Z" fill="#4D2C5E" fill-opacity="0.5" stroke="white" stroke-opacity="0.1" stroke-width="3" stroke-miterlimit="10"/>
<path d="M32.0507 60.8854C32.0935 61.0138 32.1256 61.1314 32.1684 61.2598C33.0027 63.9231 37.9229 80.8016 35.8692 99.5306L75.937 112.751C85.4352 96.4823 99.4365 85.8609 101.693 84.2137C101.8 84.1388 101.907 84.064 102.004 83.9891C103.095 83.2083 104.153 82.374 105.18 81.4862C111.213 76.2772 115.962 69.421 118.636 61.3133C126.519 37.4394 113.555 11.6938 89.6816 3.81072C65.8078 -4.07235 40.0621 8.8914 32.1791 32.7652C29.4943 40.8836 29.2269 49.2159 30.9811 56.992C31.2806 58.297 31.6336 59.6019 32.0507 60.8854Z" fill="#4D2C5E" fill-opacity="0.5" stroke="white" stroke-opacity="0.1" stroke-width="3" stroke-miterlimit="10"/>
<path d="M29.9435 129.523C29.4943 137.438 34.3717 144.979 42.2655 147.588C50.0523 150.156 58.3418 147.107 62.7487 140.657L29.9435 129.523Z" fill="#4D2C5E" fill-opacity="0.5" stroke="white" stroke-opacity="0.1" stroke-width="3" stroke-miterlimit="10"/>
<path d="M48.4158 103.456L60.3206 67.378C61.4972 63.8269 59.5612 59.9976 56.0101 58.8211C52.4589 57.6445 48.6297 59.5805 47.4531 63.1316C46.2766 66.6828 48.2126 70.512 51.7637 71.6886L66.0538 76.4056" fill="#4D2C5E" fill-opacity="0.5"/>
<path d="M48.4158 103.456L60.3206 67.378C61.4972 63.8269 59.5612 59.9976 56.0101 58.8211C52.4589 57.6445 48.6297 59.5805 47.4531 63.1316C46.2766 66.6828 48.2126 70.512 51.7637 71.6886L66.0538 76.4056" stroke="white" stroke-opacity="0.1" stroke-width="3" stroke-miterlimit="10"/>
<path d="M64.1176 108.644L76.0224 72.5657C77.199 69.0146 81.0283 67.0893 84.5794 68.2551C88.1305 69.4317 90.0558 73.2609 88.89 76.8121C87.7134 80.3632 83.8842 82.2885 80.333 81.1226L66.0429 76.4056" fill="#4D2C5E" fill-opacity="0.5"/>
<path d="M64.1176 108.644L76.0224 72.5657C77.199 69.0146 81.0283 67.0893 84.5794 68.2551C88.1305 69.4317 90.0558 73.2609 88.89 76.8121C87.7134 80.3632 83.8842 82.2885 80.333 81.1226L66.0429 76.4056" stroke="white" stroke-opacity="0.1" stroke-width="3" stroke-miterlimit="10"/>
<path d="M127.097 73.7422L139.162 77.7319" stroke="white" stroke-opacity="0.1" stroke-width="3" stroke-miterlimit="10" stroke-linecap="round"/>
<path d="M132.627 58.543L145.195 56.6498" stroke="white" stroke-opacity="0.1" stroke-width="3" stroke-miterlimit="10" stroke-linecap="round"/>
<path d="M118.657 86.7808L127.621 95.787" stroke="white" stroke-opacity="0.1" stroke-width="3" stroke-miterlimit="10" stroke-linecap="round"/>
<path d="M15.033 36.7549L2.96777 32.776" stroke="white" stroke-opacity="0.1" stroke-width="3" stroke-miterlimit="10" stroke-linecap="round"/>
<path d="M19.643 21.2455L10.6797 12.2393" stroke="white" stroke-opacity="0.1" stroke-width="3" stroke-miterlimit="10" stroke-linecap="round"/>
<path d="M14.0597 52.2537L1.50247 54.1469" stroke="white" stroke-opacity="0.1" stroke-width="3" stroke-miterlimit="10" stroke-linecap="round"/>
</svg>
