<svg width="341" height="428" viewBox="0 0 341 428" fill="none" xmlns="http://www.w3.org/2000/svg">
<path d="M175.334 428C266.725 428 340.813 423.475 340.813 417.894C340.813 412.313 266.725 407.788 175.334 407.788C83.942 407.788 9.85444 412.313 9.85444 417.894C9.85444 423.475 83.942 428 175.334 428Z" fill="#CED3E6"/>
<path d="M199.488 102.008L199.696 102.997L199.852 103.79L200.125 105.286C200.293 106.262 200.449 107.211 200.592 108.161C200.865 110.059 201.099 111.919 201.307 113.779C201.71 117.499 202.009 121.18 202.177 124.874C202.346 128.554 202.398 132.235 202.359 135.916C202.307 139.597 202.151 143.265 201.905 146.932C201.645 150.6 201.268 154.268 200.813 157.923C200.553 159.744 200.319 161.578 200.021 163.399C199.878 164.309 199.735 165.219 199.579 166.13L199.072 168.848C198.916 169.759 198.708 170.656 198.526 171.567C198.332 172.464 198.163 173.374 197.942 174.272C197.526 176.067 197.123 177.875 196.642 179.67C196.409 180.567 196.188 181.464 195.941 182.349L195.187 185.028L194.992 185.691L194.901 186.03L194.706 186.706C194.512 187.343 194.317 187.89 194.096 188.449C193.888 188.969 193.667 189.502 193.446 189.971C193.225 190.465 192.991 190.894 192.757 191.336L192.42 191.948C192.303 192.156 192.186 192.351 192.069 192.533L191.718 193.105L191.38 193.638C191.146 194.003 190.925 194.315 190.692 194.64C189.782 195.915 188.886 196.981 188.015 197.956C187.145 198.932 186.3 199.79 185.455 200.597C183.779 202.21 182.155 203.575 180.557 204.863C177.361 207.412 174.229 209.558 171.098 211.561C164.861 215.554 158.664 219.001 152.427 222.239C146.203 225.478 139.941 228.469 133.652 231.331C130.495 232.749 127.338 234.14 124.167 235.493C122.582 236.169 120.997 236.846 119.399 237.509L116.982 238.484L114.5 239.473L103.612 214.839L105.73 213.759L107.9 212.628L112.253 210.352C115.15 208.817 118.048 207.269 120.906 205.682C126.649 202.548 132.327 199.309 137.849 196.006C140.603 194.354 143.319 192.65 145.97 190.946C148.62 189.242 151.206 187.499 153.648 185.731C156.091 183.962 158.417 182.167 160.392 180.424C161.379 179.552 162.276 178.694 162.99 177.94C163.692 177.185 164.225 176.483 164.329 176.249C164.329 176.236 164.355 176.197 164.342 176.197C164.329 176.21 164.329 176.21 164.316 176.223L164.277 176.262C164.264 176.288 164.251 176.301 164.238 176.327C164.186 176.392 164.173 176.444 164.108 176.561C164.069 176.652 163.991 176.782 163.939 176.925C163.861 177.094 163.809 177.25 163.731 177.471L163.679 177.628C163.666 177.68 163.679 177.628 163.679 177.615L163.692 177.549L163.757 177.276L163.887 176.717L164.394 174.506C164.563 173.765 164.706 173.023 164.861 172.282C165.186 170.799 165.433 169.303 165.706 167.808C165.849 167.066 165.953 166.312 166.07 165.558C166.187 164.803 166.317 164.062 166.408 163.308C166.849 160.303 167.187 157.273 167.46 154.229C167.72 151.186 167.889 148.142 168.019 145.086C168.123 142.029 168.149 138.973 168.097 135.929C168.058 132.873 167.928 129.829 167.72 126.786C167.525 123.755 167.252 120.738 166.888 117.759C166.706 116.276 166.499 114.807 166.278 113.376C166.174 112.661 166.057 111.958 165.94 111.269L165.758 110.281L165.615 109.578L199.488 102.008Z" fill="#EA9B7A"/>
<path d="M163.276 110.398L157.092 157.351C166.33 162.527 175.087 166.234 183.143 167.704L163.276 110.398Z" fill="#A92F4B"/>
<path d="M176.412 182.986C176.282 182.986 176.139 182.96 176.022 182.882C171.215 180.268 164.602 178.07 164.537 178.044C164.108 177.901 163.874 177.432 164.017 177.003C164.16 176.574 164.628 176.34 165.056 176.483C165.329 176.574 171.878 178.746 176.815 181.438C177.218 181.66 177.361 182.154 177.14 182.557C176.984 182.83 176.711 182.986 176.412 182.986Z" fill="#D46A43"/>
<path d="M165.251 178.239C164.835 178.239 164.485 177.927 164.433 177.511C164.381 177.055 164.706 176.652 165.16 176.6C168.577 176.223 173.06 176.197 173.242 176.197C173.697 176.197 174.061 176.561 174.061 177.016C174.061 177.472 173.697 177.836 173.242 177.849C173.19 177.849 168.655 177.875 165.329 178.239C165.316 178.239 165.277 178.239 165.251 178.239Z" fill="#D46A43"/>
<path d="M76.2881 371.006L67.7517 384.949L51.4974 377.756L58.8774 362.76L76.2881 371.006Z" fill="#EA9B7A"/>
<path d="M0.0319984 385.677L61.502 412.913C62.3206 412.288 63.1002 411.209 63.8278 409.856C66.5173 404.823 68.5313 395.783 70.0385 390.177C70.2074 389.527 70.3763 388.916 70.5452 388.37C70.818 387.446 71.0779 386.679 71.3118 386.145C73.1958 381.866 69.103 380.93 69.103 380.93C60.1768 384.286 57.1883 372.008 51.7443 373.178C51.7443 373.178 49.4055 373.659 42.5842 375.896C35.7628 378.133 26.174 377.353 17.8065 377.184C6.99626 376.963 2.72156 379.629 1.05845 382.022C-0.279833 383.934 0.0319984 385.677 0.0319984 385.677Z" fill="#FAAF3A"/>
<path d="M0.0319315 385.677L61.502 412.912C62.3205 412.288 63.1001 411.209 63.8277 409.856L1.04539 382.035C-0.2799 383.934 0.0319315 385.677 0.0319315 385.677Z" fill="#C77E2E"/>
<path d="M55.2263 410.129L57.0584 410.936C56.1618 408.048 55.863 404.094 58.1108 399.62C61.0992 393.676 66.5563 391.192 70.0254 390.177C70.1943 389.527 70.3632 388.916 70.5321 388.369C66.8811 389.254 60.2546 391.777 56.6816 398.905C54.5377 403.184 54.5247 407.073 55.2263 410.129Z" fill="#C77E2E"/>
<path d="M41.9994 379.993C42.4541 380.189 42.9999 380.072 43.3247 379.655C43.7015 379.174 43.6105 378.472 43.1298 378.095L39.7126 375.441C39.2319 375.064 38.5303 375.155 38.1535 375.636C37.7767 376.118 37.8676 376.82 38.3484 377.197L41.7655 379.85C41.8435 379.915 41.9214 379.967 41.9994 379.993Z" fill="white"/>
<path d="M47.2358 378.485C47.6906 378.68 48.2363 378.563 48.5611 378.147C48.9379 377.665 48.847 376.963 48.3662 376.586L44.9491 373.932C44.4683 373.555 43.7667 373.646 43.3899 374.128C43.0131 374.609 43.1041 375.311 43.5848 375.688L47.002 378.342C47.0799 378.407 47.1579 378.459 47.2358 378.485Z" fill="white"/>
<path d="M37.1792 380.527C37.6339 380.722 38.1796 380.605 38.5044 380.189C38.8812 379.707 38.7903 379.005 38.3096 378.628L34.8924 375.974C34.4116 375.597 33.71 375.688 33.3332 376.17C32.9564 376.651 33.0474 377.353 33.5281 377.73L36.9453 380.384C37.0232 380.449 37.1012 380.501 37.1792 380.527Z" fill="white"/>
<path d="M32.3848 380.982C32.8396 381.177 33.3853 381.06 33.7101 380.644C34.0869 380.162 33.996 379.46 33.5152 379.083L30.098 376.43C29.6173 376.052 28.9157 376.143 28.5389 376.625C28.1621 377.106 28.253 377.808 28.7338 378.185L32.1509 380.839C32.2289 380.891 32.3069 380.943 32.3848 380.982Z" fill="white"/>
<path d="M27.3174 381.112C27.7721 381.307 28.3179 381.19 28.6427 380.774C29.0195 380.293 28.9285 379.59 28.4478 379.213L25.0306 376.56C24.5499 376.183 23.8483 376.274 23.4715 376.755C23.0947 377.236 23.1856 377.938 23.6664 378.316L27.0835 380.969C27.1615 381.034 27.2394 381.073 27.3174 381.112Z" fill="white"/>
<path d="M22.0292 380.787C22.4839 380.982 23.0296 380.865 23.3544 380.449C23.7312 379.967 23.6403 379.265 23.1595 378.888L19.7424 376.235C19.2616 375.857 18.56 375.948 18.1832 376.43C17.8064 376.911 17.8974 377.613 18.3781 377.991L21.7953 380.644C21.8732 380.709 21.9512 380.761 22.0292 380.787Z" fill="white"/>
<path d="M114.449 236.429C120.153 230.81 165.161 218.246 195.045 226.596C198.475 233.191 202.827 249.904 192.121 265.368C152.843 271.794 130.924 285.021 130.924 285.021C130.924 285.021 116.995 317.238 108.719 329.061C100.442 340.883 81.4595 378.433 81.4595 378.433L52.8618 366.207C52.8618 366.207 98.9221 251.725 114.449 236.429Z" fill="#39393B"/>
<path d="M84.5128 371.357C84.4088 371.357 84.3049 371.331 84.2009 371.292L56.214 359.652C55.7982 359.483 55.5903 358.988 55.7722 358.572C55.9411 358.156 56.4219 357.948 56.8506 358.13L84.8376 369.771C85.2534 369.94 85.4613 370.434 85.2794 370.85C85.1365 371.162 84.8376 371.357 84.5128 371.357Z" fill="#585859"/>
<path d="M79.8093 369.003C79.7054 369.003 79.6014 368.99 79.5105 368.951C79.0817 368.782 78.8868 368.301 79.0427 367.885C79.0947 367.742 84.9546 353.109 98.6102 332.364C112.175 311.762 126.363 276.918 126.506 276.567C126.675 276.151 127.156 275.943 127.585 276.112C128 276.281 128.208 276.762 128.039 277.191C127.897 277.542 113.656 312.53 100 333.275C86.4358 353.877 80.6409 368.353 80.5889 368.496C80.446 368.808 80.1341 369.003 79.8093 369.003Z" fill="#585859"/>
<path d="M148.451 373.465L146.294 389.67H128.52L129.209 372.983L148.451 373.465Z" fill="#EA9B7A"/>
<path d="M84.6684 417.777H151.894C152.388 416.867 152.661 415.579 152.778 414.044C153.194 408.348 151.388 399.269 150.491 393.546C150.387 392.883 150.296 392.259 150.218 391.686C150.088 390.724 150.023 389.931 150.023 389.345C150.023 384.676 145.892 385.469 145.892 385.469C139.083 392.142 131.391 382.127 126.896 385.417C126.896 385.417 124.96 386.809 119.62 391.608C114.28 396.421 105.21 399.581 97.4795 402.82C87.5009 406.995 84.6814 411.157 84.1227 414.031C83.6809 416.308 84.6684 417.777 84.6684 417.777Z" fill="#FAAF3A"/>
<path d="M84.6687 417.777H151.895C152.388 416.867 152.661 415.579 152.778 414.044H84.11C83.6812 416.308 84.6687 417.777 84.6687 417.777Z" fill="#C77E2E"/>
<path d="M145.034 417.777H147.035C145.047 415.501 143.176 412.003 143.423 407.008C143.748 400.362 147.737 395.875 150.504 393.546C150.4 392.883 150.31 392.259 150.232 391.687C147.243 393.976 142.215 398.97 141.825 406.93C141.578 411.69 143.15 415.254 145.034 417.777Z" fill="#C77E2E"/>
<path d="M120.75 395.575C121.244 395.575 121.699 395.237 121.829 394.73C121.972 394.132 121.621 393.533 121.023 393.39L116.826 392.35C116.229 392.207 115.631 392.558 115.488 393.156C115.345 393.755 115.709 394.353 116.294 394.496L120.49 395.536C120.568 395.562 120.659 395.575 120.75 395.575Z" fill="white"/>
<path d="M124.921 392.077C125.415 392.077 125.87 391.738 126 391.231C126.143 390.633 125.792 390.035 125.194 389.892L120.997 388.851C120.4 388.708 119.802 389.072 119.659 389.657C119.516 390.256 119.88 390.854 120.465 390.997L124.661 392.038C124.739 392.064 124.83 392.077 124.921 392.077Z" fill="white"/>
<path d="M116.554 398.02C117.047 398.02 117.502 397.682 117.632 397.175C117.775 396.577 117.424 395.978 116.826 395.835L112.63 394.795C112.032 394.652 111.434 395.003 111.291 395.601C111.148 396.2 111.499 396.798 112.097 396.941L116.294 397.981C116.372 398.007 116.463 398.02 116.554 398.02Z" fill="white"/>
<path d="M112.357 400.375C112.851 400.375 113.305 400.036 113.435 399.529C113.578 398.931 113.227 398.333 112.63 398.19L108.433 397.149C107.835 397.006 107.238 397.357 107.095 397.955C106.952 398.554 107.316 399.152 107.9 399.295L112.097 400.336C112.175 400.362 112.266 400.375 112.357 400.375Z" fill="white"/>
<path d="M107.77 402.547C108.264 402.547 108.719 402.209 108.849 401.701C108.992 401.103 108.628 400.505 108.043 400.362L103.846 399.321C103.249 399.178 102.651 399.529 102.508 400.128C102.365 400.726 102.729 401.324 103.314 401.467L107.51 402.508C107.588 402.534 107.679 402.547 107.77 402.547Z" fill="white"/>
<path d="M102.807 404.394C103.301 404.394 103.755 404.056 103.885 403.548C104.028 402.95 103.677 402.352 103.08 402.209L98.883 401.168C98.2853 401.025 97.6876 401.376 97.5447 401.975C97.4018 402.573 97.7656 403.171 98.3503 403.314L102.547 404.355C102.625 404.381 102.716 404.394 102.807 404.394Z" fill="white"/>
<path d="M283.137 239.356C283.111 239.629 283.072 239.889 283.046 240.136C282.903 240.24 282.773 240.344 282.644 240.448C272.21 248.46 260.036 253.793 247.601 256.823C247.16 256.927 246.731 257.031 246.289 257.136C244.158 257.63 242.014 258.059 239.87 258.41C236.973 258.891 234.076 259.269 231.204 259.516C228.657 259.737 226.124 259.88 223.629 259.919C212.871 260.114 202.671 258.709 194.044 255.965C193.719 255.861 193.381 255.757 193.057 255.64C190.77 254.872 188.613 254.014 186.586 253.065C186.274 252.921 185.962 252.778 185.664 252.622C184.403 252.011 183.195 251.348 182.051 250.658C182.233 246.509 182.285 241.541 182.246 236.234C182.246 235.792 182.246 235.35 182.233 234.908C182.155 227.52 181.935 219.547 181.649 212.264C181.623 211.912 181.61 211.574 181.61 211.236C181.454 207.425 181.272 203.809 181.116 200.597C181.09 200.259 181.077 199.907 181.064 199.582C180.921 196.864 180.778 194.432 180.648 192.442C180.609 191.935 180.583 191.44 180.544 190.933C180.518 190.543 180.492 190.153 180.466 189.776C180.362 188.371 180.245 187.005 180.128 185.653C179.947 183.493 179.739 181.399 179.518 179.37C179.258 177.055 178.985 174.792 178.699 172.62C178.374 170.279 178.05 168.016 177.699 165.844C177.322 163.516 176.932 161.279 176.516 159.133C175.074 151.563 173.45 145.06 171.826 139.441C171.709 139.051 171.605 138.686 171.488 138.296C170.825 136.059 170.176 133.991 169.539 132.04C169.396 131.611 169.253 131.195 169.123 130.766C165.511 120.035 162.523 113.558 162.471 109.214C162.367 100.175 168.967 97.2742 175.854 93.6324C176.179 93.4633 176.503 93.2943 176.828 93.1122C177.985 92.4879 179.154 91.8245 180.271 91.1092C180.752 90.81 181.22 90.4979 181.675 90.1727C181.999 89.9516 182.298 89.7175 182.597 89.4964C185.326 87.3894 187.716 84.7491 189.276 81.0032L215.301 75.5145C215.301 75.5145 217.795 76.8022 221.966 77.9207C222.356 78.0248 222.759 78.1288 223.187 78.2329C223.681 78.3499 224.188 78.467 224.721 78.571C225.045 78.6361 225.396 78.7011 225.734 78.7661C225.994 78.8182 226.267 78.8702 226.54 78.9092C229.034 79.2994 231.919 79.5465 235.18 79.4815C235.505 79.4685 235.843 79.4685 236.167 79.4555C236.401 79.4425 236.635 79.4295 236.869 79.4295C239.078 79.3124 241.183 79.5985 243.21 80.2489C243.599 80.3659 243.976 80.509 244.353 80.6651C252.812 84.0467 259.464 94.1657 263.765 109.708C264.96 114.026 266.142 118.24 267.286 122.35C267.416 122.806 267.533 123.248 267.663 123.69C267.909 124.588 268.156 125.485 268.403 126.382C268.494 126.708 268.585 127.033 268.676 127.358C269.56 130.545 270.417 133.692 271.249 136.801C271.249 136.801 271.249 136.801 271.249 136.814C271.34 137.139 271.431 137.477 271.508 137.802C271.508 137.802 271.508 137.802 271.508 137.815C271.56 137.997 271.599 138.166 271.651 138.335L272.119 140.156C275.004 151.277 277.407 161.994 278.953 172.802C279.278 175.052 279.564 177.302 279.798 179.566C279.863 180.112 279.928 180.723 279.993 181.412C280.006 181.542 280.019 181.66 280.032 181.79C280.058 182.024 280.084 182.258 280.11 182.505C280.123 182.622 280.136 182.752 280.149 182.869C280.565 186.966 281.097 192.637 281.63 198.893C281.656 199.218 281.695 199.556 281.721 199.894C282.916 214.41 283.995 231.734 283.137 239.356Z" fill="#DF615C"/>
<path d="M203.932 96.3117C214.326 94.1137 219.939 81.1073 220.173 80.535C220.329 80.1578 220.16 79.7156 219.783 79.5595C219.407 79.4034 218.965 79.5725 218.809 79.9497C218.757 80.0798 213.053 93.3333 203.022 94.9591C193.161 96.5588 189.237 89.3013 189.068 88.9891C188.873 88.625 188.431 88.4819 188.067 88.677C187.704 88.8721 187.561 89.3143 187.755 89.6785C187.794 89.7695 192.316 98.2107 203.269 96.4288C203.49 96.4028 203.711 96.3508 203.932 96.3117Z" fill="#A92F4B"/>
<path d="M214.469 234.752C224.24 232.697 234.336 227.663 244.431 219.768C258.282 208.934 267.377 196.37 267.468 196.24C267.702 195.902 267.637 195.446 267.299 195.199C266.961 194.965 266.493 195.03 266.259 195.368C266.168 195.498 257.177 207.906 243.496 218.611C230.944 228.43 211.741 238.784 191.576 232.332C191.186 232.202 190.77 232.423 190.64 232.814C190.51 233.204 190.731 233.62 191.121 233.75C198.553 236.13 206.401 236.455 214.469 234.752Z" fill="#A92F4B"/>
<path d="M208.622 227.286C208.635 227.286 208.635 227.286 208.622 227.286C223.85 223.813 232.022 200.818 232.373 199.842C232.503 199.452 232.308 199.036 231.919 198.893C231.529 198.763 231.113 198.958 230.97 199.348C230.892 199.582 222.719 222.539 208.31 225.829C207.907 225.92 207.661 226.323 207.751 226.727C207.842 227.117 208.232 227.364 208.622 227.286Z" fill="#A92F4B"/>
<path d="M180.518 190.92C182.402 189.62 184.182 188.007 185.585 186.173C188.977 181.751 189.431 177.224 186.872 173.427C186.352 172.672 185.884 171.983 185.442 171.333C180.206 163.685 179.661 162.891 180.115 150.314C180.258 146.36 179.141 143.239 176.802 141.08C175.23 139.61 173.307 138.765 171.462 138.27C171.579 138.648 171.683 139.025 171.8 139.415C173.333 139.883 174.866 140.638 176.126 141.808C178.244 143.772 179.245 146.633 179.115 150.288C178.647 163.191 179.323 164.179 184.611 171.905C185.053 172.555 185.52 173.245 186.04 173.999C189.158 178.59 186.599 183.22 184.793 185.575C183.584 187.148 182.064 188.579 180.44 189.763C180.466 190.14 180.505 190.53 180.518 190.92Z" fill="#A92F4B"/>
<path d="M280.136 182.817C278.109 184.001 276.147 184.742 274.276 185.145C269.222 186.212 264.843 184.677 262.024 181.842C258.658 178.447 257.346 172.607 261.361 168.029C265.233 163.594 263.57 161.24 261.465 158.248C259.386 155.309 256.8 151.641 259.49 145.203C261.036 141.496 263.414 138.96 266.558 137.685C268.13 137.048 269.728 136.788 271.236 136.749C271.327 137.074 271.417 137.412 271.495 137.737C270.027 137.75 268.455 137.984 266.922 138.609C264.037 139.779 261.842 142.133 260.399 145.58C257.918 151.511 260.14 154.632 262.27 157.663C264.44 160.745 266.493 163.659 262.101 168.666C258.866 172.36 259.113 177.485 262.725 181.113C266.363 184.781 272.847 186.056 280.019 181.699C280.045 181.933 280.071 182.167 280.097 182.414C280.11 182.57 280.123 182.7 280.136 182.817Z" fill="#A92F4B"/>
<path d="M212.26 186.563C214.768 190.881 220.199 192.949 225.162 191.506C225.916 191.284 226.708 190.998 227.501 190.66C233.88 187.929 241.234 181.491 244.054 173.999C246.224 168.224 245.561 162.306 242.118 156.909C237.025 148.923 234.075 141.496 233.582 135.461C233.283 131.884 230.827 129.114 227.332 128.399C223.811 127.683 220.459 129.27 218.783 132.444C218.692 132.613 218.601 132.782 218.51 132.951C214.222 141.327 216.782 147.388 219.042 152.734C221.407 158.326 223.447 163.152 216.989 169.421C211.117 175.117 209.35 181.53 212.26 186.563ZM217.691 170.123C224.655 163.373 222.369 158.001 219.965 152.33C217.678 146.933 215.326 141.366 219.406 133.393C219.497 133.224 219.575 133.055 219.666 132.899C220.446 131.429 221.628 130.35 223.031 129.751C224.279 129.218 225.695 129.062 227.137 129.361C230.203 129.998 232.347 132.418 232.607 135.539C232.906 139.051 233.932 142.888 235.712 147.037C237.116 150.327 238.987 153.787 241.299 157.429C244.613 162.631 245.223 168.081 243.144 173.648C240.091 181.79 231.464 188.631 224.902 190.543C220.355 191.87 215.417 189.984 213.131 186.056C210.454 181.452 212.156 175.495 217.691 170.123Z" fill="#A92F4B"/>
<path d="M169.084 130.74C169.227 131.156 169.357 131.572 169.5 132.001C172.969 133.393 176.166 133.341 178.712 132.795C180.011 132.522 181.142 132.118 182.064 131.728C188.418 128.984 192.732 123.092 192.628 119.528C192.589 118.188 191.913 117.213 190.731 116.784C183.896 114.287 181.116 109.773 180.076 99.5113C179.791 96.728 178.686 94.5689 176.776 93.0732C176.451 93.2423 176.127 93.4114 175.802 93.5935C175.88 93.6455 175.958 93.7105 176.049 93.7755C177.803 95.0892 178.816 97.0531 179.076 99.6154C180.154 110.346 183.117 115.08 190.38 117.72C191.185 118.019 191.588 118.618 191.614 119.554C191.705 122.793 187.469 128.294 181.649 130.818C178.972 132.001 174.308 133.159 169.084 130.74Z" fill="#A92F4B"/>
<path d="M204.36 132.391C205.582 133.718 207.556 134.212 209.518 133.809C210.168 133.666 210.818 133.432 211.428 133.094C214.573 131.351 215.742 127.709 214.56 123.365C213.325 118.839 215.677 116.667 217.951 114.573C219.952 112.739 222.005 110.84 220.381 107.588C219.133 105.091 216.821 103.92 213.728 104.207C210.077 104.558 206.881 106.795 205.166 110.203C202.255 115.964 199.462 127.085 204.36 132.391ZM206.049 110.645C207.427 107.9 209.96 105.936 212.806 105.338C213.143 105.273 213.481 105.221 213.819 105.182C216.522 104.922 218.432 105.884 219.497 108.017C220.796 110.606 219.315 111.958 217.275 113.831C215.014 115.912 212.208 118.501 213.598 123.612C214.651 127.488 213.663 130.701 210.948 132.209C208.908 133.341 206.387 133.133 205.088 131.715C200.54 126.786 203.256 116.172 206.049 110.645Z" fill="#A92F4B"/>
<path d="M189.743 167.6C190.302 170.227 191.355 172.36 193.174 173.427C195.902 175.026 198.579 175.651 200.554 175.235C201.411 175.052 202.126 174.675 202.672 174.103C204.283 172.373 203.75 169.265 201.216 165.571C198.28 161.292 200.853 158.573 203.594 155.686C205.92 153.228 208.337 150.692 206.985 147.219C206.011 144.722 203.776 143.564 200.515 143.85C195.045 144.344 190.536 148.741 189.795 154.32C189.211 158.664 188.912 163.685 189.743 167.6ZM190.77 154.463C191.082 152.109 192.121 149.989 193.628 148.337C195.149 146.686 197.137 145.502 199.358 145.034C199.761 144.943 200.164 144.891 200.593 144.852C203.438 144.605 205.231 145.489 206.05 147.583C207.18 150.47 205.088 152.681 202.879 155.01C200.125 157.91 197.007 161.201 200.398 166.143C202.646 169.408 203.217 172.074 201.944 173.427C200.528 174.948 197.137 174.597 193.68 172.568C190.51 170.708 189.471 164.27 190.77 154.463Z" fill="#A92F4B"/>
<path d="M181.635 212.25C185.624 210.807 186.963 212.81 188.899 215.71C190.64 218.298 192.796 221.524 197.643 222.669C199.293 223.059 200.878 223.046 202.372 222.734C206.283 221.914 209.479 218.988 211.013 215.71C213.079 211.301 212.169 206.905 208.622 204.226C207.076 203.068 206.27 201.962 206.114 200.857C205.906 199.296 207.076 197.787 208.323 196.188C210.051 193.964 212.013 191.453 210.506 188.228C209.324 185.691 207.102 184.183 204.243 183.962C199.488 183.61 194.161 186.836 190.666 192.156C187.677 196.708 183.896 198.698 181.025 199.556C181.038 199.881 181.064 200.233 181.077 200.571C184.156 199.686 188.275 197.592 191.484 192.702C194.135 188.67 197.864 185.913 201.502 185.145C202.398 184.95 203.295 184.885 204.165 184.95C206.647 185.132 208.57 186.446 209.596 188.644C210.831 191.31 209.22 193.378 207.518 195.563C206.205 197.254 204.841 198.997 205.101 200.974C205.283 202.353 206.231 203.666 207.985 205.006C211.74 207.841 211.532 212.172 210.077 215.281C208.128 219.443 203.295 222.981 197.838 221.693C193.368 220.64 191.406 217.726 189.691 215.151C187.755 212.25 186.066 209.727 181.557 211.21C181.609 211.561 181.622 211.899 181.635 212.25Z" fill="#A92F4B"/>
<path d="M232.152 200.194C232.49 201.923 233.53 203.107 235.063 203.523C235.881 203.744 236.791 203.744 237.752 203.549C239.896 203.094 242.248 201.637 244.171 199.452C246.146 197.215 248.121 197.501 250.849 197.891C253.5 198.269 256.8 198.75 261.01 196.838C265.687 194.705 266.467 190.283 265.22 187.07C264.076 184.17 260.997 181.647 256.917 182.999C253.994 183.962 252.097 185.457 250.408 186.758C247.835 188.761 245.626 190.491 240.546 190.179C238.025 190.023 235.998 190.699 234.556 192.182C231.75 195.056 232.126 199.933 232.139 200.129C232.152 200.168 232.152 200.181 232.152 200.194ZM233.127 200.038C233.101 199.66 232.867 195.342 235.271 192.884C236.505 191.622 238.259 191.05 240.481 191.18C245.925 191.505 248.394 189.593 251.005 187.551C252.707 186.225 254.461 184.859 257.229 183.936C260.698 182.791 263.323 184.95 264.284 187.434C265.376 190.218 264.687 194.068 260.594 195.928C256.644 197.722 253.63 197.293 250.979 196.916C249.446 196.695 248.043 196.5 246.692 196.786C245.561 197.02 244.483 197.605 243.417 198.802C240.91 201.637 237.57 203.198 235.31 202.587C234.153 202.249 233.4 201.377 233.127 200.038Z" fill="#A92F4B"/>
<path d="M275.653 224.125C272.249 229.77 273.678 236.052 277.056 238.875C278.68 240.227 280.603 240.761 282.643 240.448C282.773 240.344 282.903 240.24 283.046 240.136C283.085 239.889 283.111 239.629 283.15 239.356C281.149 239.837 279.278 239.434 277.693 238.107C274.653 235.558 273.366 229.822 276.511 224.646C279.694 219.391 277.186 217.765 274.536 216.049C272.106 214.462 269.572 212.836 269.962 208.115C270.157 205.786 271.093 203.914 272.769 202.548C274.224 201.364 276.082 200.675 277.901 200.285C279.252 199.999 280.59 199.882 281.734 199.843C281.708 199.504 281.682 199.179 281.656 198.841C278.836 198.945 274.899 199.53 272.145 201.781C270.261 203.315 269.196 205.422 268.988 208.037C268.559 213.343 271.586 215.307 274.016 216.881C276.602 218.572 278.33 219.703 275.653 224.125Z" fill="#A92F4B"/>
<path d="M193.057 255.627C193.381 255.744 193.706 255.848 194.044 255.952C194.083 254.417 194.447 251.127 196.721 248.916C198.618 247.082 201.45 246.353 205.14 246.757C210.038 247.303 212.26 249.332 214.209 251.127C217.496 254.144 219.783 255.575 228.359 249.969C231.62 247.836 234.647 246.587 237.285 246.028C241.547 245.131 244.821 246.015 246.536 247.784C248.641 249.956 248.537 253.403 246.289 257.123C246.731 257.019 247.159 256.915 247.601 256.811C249.641 252.987 249.537 249.436 247.263 247.082C244.21 243.934 236.83 243.232 227.826 249.124C219.471 254.599 217.743 253.013 214.885 250.385C212.923 248.577 210.467 246.327 205.244 245.755C201.242 245.313 198.137 246.132 196.019 248.2C193.628 250.554 193.134 253.845 193.057 255.627Z" fill="#A92F4B"/>
<path d="M248.836 239.629C250.083 242.295 254.189 244.493 258.022 243.687C258.191 243.648 258.36 243.609 258.516 243.557C264.362 241.905 267.728 237.158 267.987 230.199C268.182 224.815 267.689 219.534 262.712 217.245C262.686 217.232 262.66 217.219 262.621 217.219C262.387 217.167 256.878 215.827 253.448 218.155C252.006 219.131 251.148 220.614 250.902 222.539C250.447 225.946 251.486 228.04 252.227 229.562C253.162 231.435 253.578 232.293 250.72 234.244C248.602 235.714 247.913 237.678 248.836 239.629ZM251.278 235.09C254.683 232.762 254.189 231.318 253.123 229.146C252.396 227.663 251.473 225.803 251.876 222.695C252.097 221.056 252.812 219.807 254.007 218.988C256.93 216.998 261.829 218.064 262.336 218.181C265.896 219.833 267.247 223.319 266.987 230.16C266.818 234.752 265.155 240.644 258.243 242.607C254.8 243.57 250.837 241.58 249.732 239.213C249.018 237.691 249.55 236.273 251.278 235.09Z" fill="#A92F4B"/>
<path d="M185.663 252.609C185.962 252.765 186.274 252.908 186.586 253.052C188.665 250.619 189.522 247.966 189.12 245.196C188.47 240.695 184.715 236.924 182.233 234.895C182.246 235.337 182.246 235.779 182.246 236.221C184.559 238.263 187.599 241.567 188.145 245.339C188.509 247.862 187.703 250.268 185.754 252.518C185.715 252.544 185.689 252.583 185.663 252.609Z" fill="#A92F4B"/>
<path d="M166.525 36.1832C166.525 36.1832 151.778 33.0617 151.427 27.4299C151.115 22.2273 157.248 22.7736 157.248 22.7736C157.248 22.7736 150.089 11.0159 154.195 8.71373C158.3 6.39859 163.485 12.9928 163.485 12.9928C163.485 12.9928 159.73 -0.950011 164.745 0.0514792C169.76 1.05297 170.41 8.71373 170.41 8.71373C170.41 8.71373 187.08 2.76981 196.552 5.6182C203.009 7.55615 204.53 13.7732 204.53 13.7732C204.53 13.7732 208.362 11.4841 211.091 12.8888C213.807 14.2935 211.325 19.0798 211.325 19.0798C211.325 19.0798 215.535 22.3184 214.248 27.4689C212.962 32.6194 209.285 42.7904 209.285 42.7904L166.525 36.1832Z" fill="#39393B"/>
<path d="M187.34 77.1533L188.769 83.9426C189.692 84.4108 190.614 84.801 191.524 85.1132C204.776 89.7044 215.626 78.2718 215.626 78.2718L210.675 54.7563L190.12 74.487L187.34 77.1533Z" fill="#EA9B7A"/>
<path d="M187.34 77.1533L188.769 83.9426C189.692 84.4109 190.614 84.8011 191.524 85.1132C200.71 79.0262 205.79 66.9693 205.79 66.9693L190.133 74.487L187.34 77.1533Z" fill="#39393B"/>
<path d="M174.294 22.2274C174.294 22.2274 158.248 27.2219 167.772 43.1287C167.759 43.1157 175.607 26.6236 174.294 22.2274Z" fill="#39393B"/>
<path d="M172.54 48.8774C172.54 48.8774 167.733 45.1316 166.512 50.152C165.29 55.1595 168.902 64.0168 174.45 61.2855L172.54 48.8774Z" fill="#D46A43"/>
<path d="M171.8 65.7077C171.8 65.7077 174.736 79.7416 189.301 76.6331C203.776 73.5506 211.247 60.089 211.649 59.4517C211.662 59.4387 211.662 59.4387 211.662 59.4387L211.195 56.4602L208.791 40.9826L207.505 32.7106C207.505 32.7106 206.257 17.5972 191.718 17.8573C181.09 18.0524 171.878 21.7722 168.162 28.1193C166.797 30.4605 166.174 33.1658 166.512 36.1833L169.149 50.9715L169.799 54.6003L171.8 65.7077Z" fill="#EA9B7A"/>
<path d="M201.515 42.8034C201.515 42.8034 199.371 51.4137 194.629 51.0235C189.886 50.6203 184.624 51.1665 180.96 53.9109C180.96 53.9109 173.619 52.8183 170.15 56.4731C167.824 58.9313 173.294 77.2183 183.442 77.8686C193.589 78.5319 205.79 72.432 206.998 62.7292C208.207 53.0264 206.388 45.3657 206.388 45.3657L201.515 42.8034Z" fill="#39393B"/>
<path d="M177.971 58.0079C177.971 58.0079 186.17 57.1625 190.185 54.8604C190.185 54.8604 191.978 62.8723 185.053 63.5616C179.492 64.1209 177.971 58.0079 177.971 58.0079Z" fill="white"/>
<path d="M188.548 48.7605C188.769 49.788 191.042 50.1652 193.628 49.619C196.214 49.0727 198.15 47.7981 197.929 46.7836C197.708 45.7561 195.434 45.3789 192.848 45.9251C190.263 46.4714 188.34 47.733 188.548 48.7605Z" fill="#D46A43"/>
<path d="M169.812 54.5872C170.176 54.5482 170.566 54.4831 170.956 54.4051C173.541 53.8588 175.477 52.5842 175.256 51.5697C175.035 50.5552 172.762 50.165 170.176 50.7113C169.825 50.7893 169.487 50.8674 169.162 50.9714L169.812 54.5872Z" fill="#D46A43"/>
<path d="M187.521 43.1027C187.82 44.5074 188.691 45.5089 189.47 45.3398C190.25 45.1707 190.653 43.9091 190.354 42.5044C190.055 41.0997 189.184 40.0983 188.405 40.2673C187.625 40.4364 187.222 41.698 187.521 43.1027Z" fill="#39393B"/>
<path d="M173.658 46.0292C173.956 47.4339 174.827 48.4354 175.606 48.2663C176.386 48.0972 176.789 46.8356 176.49 45.4309C176.191 44.0262 175.321 43.0247 174.541 43.1938C173.761 43.3629 173.359 44.6245 173.658 46.0292Z" fill="#39393B"/>
<path d="M182.272 51.5829C182.597 51.5179 182.792 51.2057 182.727 50.8806C182.662 50.5684 182.35 50.3603 182.025 50.4254C179.907 50.8676 178.686 49.9701 178.244 49.5409C179.544 44.3124 180.817 39.0448 180.83 38.9928C180.908 38.6806 180.713 38.3554 180.401 38.2774C180.089 38.1994 179.764 38.3945 179.687 38.7066C179.674 38.7586 178.348 44.2213 177.023 49.554C176.984 49.723 177.023 49.9051 177.127 50.0482C177.205 50.1652 178.855 52.3113 182.272 51.5829Z" fill="#39393B"/>
<path d="M193.173 35.1948C192.537 33.7771 190.718 31.2669 185.949 32.0473C185.364 32.1383 184.923 32.6326 184.897 33.2179C184.858 33.9592 185.442 34.5835 186.183 34.5705C187.482 34.5315 189.444 34.8307 190.925 36.6646C191.38 37.2368 192.251 37.2628 192.77 36.7556L192.887 36.6385C193.29 36.2614 193.394 35.6891 193.173 35.1948Z" fill="#39393B"/>
<path d="M168.941 40.3065C168.954 38.7587 169.591 35.7152 174.281 34.5056C174.853 34.3625 175.451 34.6357 175.724 35.1559C176.061 35.8193 175.776 36.6257 175.087 36.9118C173.879 37.406 172.202 38.4725 171.592 40.7357C171.397 41.438 170.63 41.8152 169.942 41.5681L169.786 41.516C169.266 41.334 168.941 40.8397 168.941 40.3065Z" fill="#39393B"/>
<path d="M205.881 54.7172C205.985 54.8603 208.726 58.7492 211.637 59.4516C211.65 59.4386 211.65 59.4386 211.65 59.4386L211.182 56.4601C211.195 56.4471 208.817 56.5381 205.881 54.7172Z" fill="#39393B"/>
<path d="M206.4 44.4424C206.4 44.4424 210.415 35.7281 215.768 40.7876C220.173 44.9496 216.457 59.0095 208.843 56.0701L206.4 44.4424Z" fill="#EA9B7A"/>
<path d="M209.142 53.6248C209.428 53.5598 209.636 53.2867 209.61 52.9875C209.038 47.1607 213.391 44.1562 213.572 44.0391C213.845 43.8571 213.91 43.4929 213.728 43.2197C213.546 42.9466 213.183 42.8816 212.91 43.0507C212.702 43.1937 207.778 46.5494 208.427 53.0916C208.453 53.4167 208.752 53.6509 209.077 53.6248C209.09 53.6378 209.116 53.6378 209.142 53.6248Z" fill="#39393B"/>
<path d="M213.78 48.9944C213.949 48.9554 214.092 48.8513 214.183 48.6823C214.326 48.3961 214.222 48.0319 213.923 47.8889C213.65 47.7458 211.247 46.5492 209.61 47.3686C209.324 47.5117 209.194 47.8629 209.337 48.162C209.48 48.4482 209.831 48.5782 210.129 48.4352C211.065 47.9669 212.845 48.6693 213.391 48.9554C213.508 49.0074 213.65 49.0204 213.78 48.9944Z" fill="#39393B"/>
<path d="M168.175 28.1193C168.383 28.5875 168.682 28.9647 169.072 29.2379C172.528 31.618 178.998 29.1468 184.793 25.9212C190.588 22.6957 195.889 26.2854 195.889 26.2854C195.422 32.5935 201.359 31.8391 201.061 36.6125C200.762 41.3858 202.49 47.2257 202.49 47.2257L206.024 45.9771C206.362 43.701 207.778 41.9581 208.778 40.9826L207.492 32.7106C207.492 32.7106 206.245 17.5972 191.706 17.8573C181.103 18.0524 171.878 21.7592 168.175 28.1193Z" fill="#39393B"/>
<path d="M276.719 227.052C276.719 227.052 290.595 281.848 218.653 281.848C180.232 281.848 161.964 278.141 161.964 278.141C161.964 278.141 161.042 312.1 159.249 326.433C157.456 340.766 151.128 376.456 151.128 376.456L120.867 378.797C120.867 378.797 116.034 254.456 134.575 243.011C153.116 231.565 179.791 231.227 225.578 226.818C225.591 226.818 266.701 219.859 276.719 227.052Z" fill="#39393B"/>
<path d="M146.996 366.519C146.931 366.519 146.866 366.506 146.801 366.493C146.359 366.389 146.086 365.947 146.19 365.505C150.374 348.011 152.037 322.961 153.363 302.827C154.675 282.979 155.467 272.535 157.52 270.714C159.794 268.711 166.524 269.427 177.685 270.61C191.523 272.08 212.416 274.304 234.959 271.716C246.159 270.428 254.734 266.045 260.464 258.67C270.742 245.443 268.39 226.883 268.364 226.701C268.299 226.245 268.624 225.829 269.065 225.777C269.52 225.712 269.936 226.037 269.988 226.479C270.092 227.26 272.47 245.898 261.763 259.672C255.748 267.411 246.795 272.015 235.141 273.354C212.416 275.969 191.406 273.732 177.504 272.249C167.902 271.221 160.327 270.415 158.599 271.95C158.209 272.301 157.429 274.005 156.637 281.535C156.039 287.102 155.558 294.438 155 302.944C153.661 323.143 151.998 348.271 147.776 365.895C147.698 366.272 147.36 366.519 146.996 366.519Z" fill="#585859"/>
<path d="M121.205 368.99C120.776 368.99 120.413 368.652 120.387 368.21C120.361 367.755 120.711 367.365 121.153 367.339L152.103 365.466C152.557 365.44 152.947 365.791 152.973 366.233C152.999 366.688 152.648 367.078 152.206 367.104L121.257 368.977C121.231 368.99 121.218 368.99 121.205 368.99Z" fill="#585859"/>
<path d="M204.451 242.737H113.799C113.591 242.737 113.422 242.568 113.422 242.36V231.188C113.422 230.98 113.591 230.811 113.799 230.811H204.451C204.659 230.811 204.828 230.98 204.828 231.188V242.36C204.828 242.568 204.659 242.737 204.451 242.737Z" fill="#CED3E6"/>
<path d="M103.885 242.737C100.442 242.737 97.4405 240.422 96.544 237.093L79.4452 173.01C78.4057 169.095 81.3551 165.246 85.396 165.246H126.324C129.079 165.246 131.508 167.079 132.262 169.746L152.739 242.724H103.885V242.737Z" fill="white"/>
<path d="M132.275 169.759L152.583 242.139H157.26L136.952 169.759C136.199 167.092 133.782 165.259 131.014 165.259H126.337C129.091 165.246 131.521 167.092 132.275 169.759Z" fill="#CED3E6"/>
<path d="M120.711 205.032C121.646 209.051 119.139 212.316 115.111 212.316C111.096 212.316 107.081 209.051 106.146 205.032C105.21 201.013 107.718 197.749 111.746 197.749C115.76 197.749 119.775 201.013 120.711 205.032Z" fill="#CED3E6"/>
<path d="M176.529 216.621C176.529 216.621 157.975 217.895 152.051 223.579L155.663 236.429C155.663 236.429 166.759 231.89 169.825 232.332C172.904 232.774 174.736 237.821 185.014 234.751L176.529 216.621Z" fill="#EA9B7A"/>
<path d="M176.62 215.775L178.712 214.917L180.882 214.006C182.337 213.395 183.78 212.758 185.235 212.108C188.132 210.82 191.004 209.493 193.862 208.115C199.566 205.37 205.166 202.457 210.558 199.374C215.95 196.279 221.174 193.001 225.929 189.489C227.111 188.605 228.281 187.721 229.398 186.823C230.516 185.913 231.594 185.002 232.633 184.079C234.673 182.232 236.544 180.333 238.013 178.486C238.74 177.576 239.39 176.652 239.871 175.846C240.299 175.104 240.715 174.285 241.079 173.362C241.807 171.528 242.378 169.356 242.768 166.975C243.535 162.189 243.561 156.661 243.067 151.004C242.573 145.333 241.573 139.48 240.26 133.666C239.598 130.753 238.844 127.839 238.026 124.965C237.61 123.521 237.181 122.09 236.739 120.686C236.518 119.983 236.284 119.281 236.064 118.592L235.726 117.59L235.557 117.109L235.479 116.888L235.44 116.784L235.427 116.745C231.516 108.577 234.959 98.77 243.119 94.8551C251.278 90.9401 261.075 94.3868 264.986 102.555C265.363 103.348 265.675 104.155 265.922 104.961L266.415 106.665L266.545 107.12L266.649 107.484L266.844 108.187L267.195 109.539C267.416 110.437 267.637 111.308 267.845 112.193C268.26 113.948 268.65 115.691 269.001 117.434C269.729 120.933 270.352 124.432 270.885 127.969C271.937 135.045 272.652 142.237 272.743 149.677C272.795 153.397 272.665 157.182 272.327 161.032C271.976 164.894 271.379 168.835 270.404 172.867C269.417 176.899 268.026 181.022 265.974 185.132C264.934 187.187 263.726 189.216 262.31 191.18C260.932 193.079 259.529 194.718 258.087 196.266C255.202 199.335 252.227 201.885 249.226 204.213C246.224 206.515 243.184 208.583 240.13 210.508C234.024 214.332 227.852 217.583 221.628 220.562C215.405 223.527 209.129 226.206 202.814 228.691C199.657 229.926 196.487 231.123 193.291 232.267C191.692 232.84 190.094 233.399 188.483 233.945L186.053 234.765L183.52 235.584C178.024 237.353 172.125 234.335 170.345 228.834C168.656 223.592 171.306 217.999 176.322 215.931L176.62 215.775Z" fill="#EA9B7A"/>
<path d="M252.539 180.515C252.474 180.515 252.409 180.502 252.357 180.489C246.029 178.59 238.961 178.876 238.896 178.889C238.533 178.902 238.234 178.629 238.221 178.265C238.208 177.901 238.481 177.602 238.844 177.589C239.143 177.576 246.198 177.276 252.747 179.24C253.085 179.345 253.28 179.709 253.189 180.047C253.072 180.333 252.812 180.515 252.539 180.515Z" fill="#D46A43"/>
<path d="M240.481 178.863C240.299 178.863 240.117 178.785 239.988 178.642C239.754 178.369 239.78 177.966 240.052 177.719C242.417 175.677 245.38 174.779 245.51 174.74C245.847 174.636 246.211 174.831 246.315 175.182C246.419 175.521 246.224 175.885 245.873 175.989C245.847 176.002 243.041 176.847 240.897 178.694C240.793 178.811 240.637 178.863 240.481 178.863Z" fill="#D46A43"/>
<path d="M275.666 139.09L262.219 142.784L261.231 143.057L251.941 145.606L250.811 145.918L238.857 149.196L237.935 144.956L237.727 143.941L235.57 133.978L235.349 132.977L231.282 114.183C230.178 109.838 229.45 104.402 230.061 99.9666C230.957 93.3984 236.713 84.8792 247.329 84.3069C249.226 84.2028 251.006 84.489 252.669 85.1003C253.007 85.2043 253.344 85.3474 253.669 85.4905C256.878 86.9472 259.659 89.6265 262.05 93.0732C262.245 93.3463 262.426 93.6195 262.595 93.9056C267.143 100.825 270.248 110.502 272.327 119.554C272.418 119.905 272.496 120.257 272.574 120.608C273.535 124.913 274.263 129.062 274.809 132.652C274.9 133.211 274.978 133.757 275.043 134.29C275.303 136.085 275.51 137.698 275.666 139.09Z" fill="#DF615C"/>
<path d="M274.809 132.651C273.211 131.195 271.054 130.18 267.728 130.779C263.778 131.481 260.672 130.206 259.425 127.358C258.477 125.225 258.918 122.728 260.438 121.557C263.479 119.216 268.143 119.411 272.574 120.608C272.496 120.256 272.418 119.905 272.327 119.554C267.78 118.396 263.024 118.318 259.828 120.764C258.399 121.869 257.736 123.794 257.97 125.784C258.048 126.447 258.23 127.111 258.503 127.761C259.958 131.052 263.479 132.547 267.909 131.754C271.483 131.104 273.457 132.495 275.043 134.29C274.978 133.77 274.9 133.224 274.809 132.651Z" fill="#A92F4B"/>
<path d="M260.763 103.231C258.009 99.2382 260.075 96.5979 262.595 93.9186C262.426 93.6324 262.245 93.3593 262.05 93.0861C259.386 95.8825 256.697 99.0951 259.945 103.803C262.193 107.068 262.751 109.721 261.491 111.087C260.075 112.609 256.671 112.258 253.227 110.229C250.057 108.356 249.031 101.93 250.317 92.1237C250.629 89.7695 251.668 87.6495 253.175 85.9977C253.331 85.8286 253.5 85.6595 253.669 85.5034C253.344 85.3604 253.007 85.2173 252.669 85.1132C250.889 86.9471 249.693 89.3273 249.33 91.9806C248.771 96.3117 248.472 101.345 249.291 105.247C249.849 107.874 250.902 110.007 252.721 111.087C255.449 112.687 258.139 113.311 260.101 112.895C260.958 112.713 261.686 112.336 262.219 111.763C263.83 110.033 263.297 106.925 260.763 103.231Z" fill="#A92F4B"/>
<path d="M235.596 133.107C233.387 119.957 230.594 107.653 230.568 107.523C230.503 107.263 230.243 107.094 229.983 107.159C229.723 107.224 229.554 107.484 229.619 107.744C229.645 107.874 232.426 120.113 234.621 133.198C234.764 133.705 235.596 133.731 235.596 133.107Z" fill="#A92F4B"/>
<path d="M232.036 117.239C231.945 117.239 231.854 117.213 231.776 117.161L226.709 113.909C226.488 113.766 226.41 113.467 226.566 113.233C226.709 112.999 227.007 112.934 227.241 113.09L232.309 116.341C232.53 116.485 232.607 116.784 232.452 117.018C232.361 117.161 232.192 117.239 232.036 117.239Z" fill="#A92F4B"/>
<path d="M199.189 118.644C197.474 118.644 195.902 118.019 194.499 116.784C186.482 109.721 186.521 84.0466 186.521 82.954C186.521 82.4468 186.937 82.0306 187.457 82.0306C187.976 82.0306 188.392 82.4468 188.379 82.967C188.379 83.2272 188.34 108.876 195.72 115.379C196.98 116.484 198.358 116.927 199.904 116.719C209.766 115.418 214.248 86.6869 215.145 75.7225C215.184 75.2153 215.638 74.8251 216.145 74.8641C216.652 74.9031 217.042 75.3583 217.003 75.8656C216.99 75.9696 216.145 86.0886 213.741 96.2986C210.428 110.319 205.855 117.811 200.151 118.565C199.839 118.631 199.514 118.644 199.189 118.644Z" fill="white"/>
<path d="M273.678 358.455H176.516C174.242 358.455 172.397 356.608 172.397 354.332C172.397 352.056 174.242 350.209 176.516 350.209H273.678C275.952 350.209 277.797 352.056 277.797 354.332C277.797 356.608 275.952 358.455 273.678 358.455Z" fill="#084FC7"/>
<path d="M167.577 421.367C167.395 421.367 167.213 421.354 167.031 421.328C164.783 421.029 163.198 418.948 163.497 416.698L181.194 284.423C181.467 282.381 183.208 280.846 185.273 280.846H264.544C266.61 280.846 268.351 282.381 268.624 284.423L286.047 416.711C286.346 418.961 284.761 421.042 282.5 421.328C280.253 421.627 278.174 420.04 277.888 417.777L260.932 289.079H188.873L171.657 417.79C171.371 419.871 169.604 421.367 167.577 421.367Z" fill="#0875F7"/>
<path d="M208.232 284.969H259.711C276.017 284.969 293.493 276.034 295.987 259.906C299.34 238.328 300.158 217.44 299.236 198.269C298.183 176.587 289.764 156.453 272.73 143.018C272.73 143.018 280.084 226.649 273.444 249.748C264.596 280.612 208.232 284.969 208.232 284.969Z" fill="#0875F7"/>
<path d="M50.6786 112.752V137.49C50.6786 140.755 53.3292 143.408 56.5905 143.408H101.468L115.02 148.272C116.41 148.766 117.749 147.401 117.203 146.022L112.084 132.769V112.739C112.084 109.474 109.433 106.821 106.159 106.821H56.5905C53.3292 106.821 50.6786 109.474 50.6786 112.752Z" fill="#0875F7"/>
<path d="M89.6577 125.823C89.6577 128.19 91.5677 130.102 93.9324 130.102C96.2971 130.102 98.2071 128.177 98.2071 125.823C98.2071 123.456 96.2971 121.544 93.9324 121.544C91.5807 121.531 89.6577 123.456 89.6577 125.823Z" fill="#084FC7"/>
<path d="M76.1188 125.823C76.1188 128.19 78.0288 130.102 80.3935 130.102C82.7583 130.102 84.6683 128.177 84.6683 125.823C84.6683 123.456 82.7583 121.544 80.3935 121.544C78.0288 121.531 76.1188 123.456 76.1188 125.823Z" fill="#084FC7"/>
<path d="M62.5673 125.823C62.5673 128.19 64.4902 130.102 66.842 130.102C69.2067 130.102 71.1167 128.177 71.1167 125.823C71.1167 123.456 69.1937 121.544 66.842 121.544C64.4773 121.531 62.5673 123.456 62.5673 125.823Z" fill="#084FC7"/>
</svg>
