<svg width="38" height="69" viewBox="0 0 38 69" fill="none" xmlns="http://www.w3.org/2000/svg">
<path d="M10.942 7.4033L3.98582 8.46871L12.0263 60.9656L18.9825 59.9002L10.942 7.4033Z" fill="#FAAF3A"/>
<path d="M10.9558 7.37567L4.00782 8.4446L5.53995 3.1356L6.32383 0.374236L7.9094 2.76149L10.9558 7.37567Z" fill="#EA9B7A"/>
<path d="M18.3915 56.0787L11.4353 57.1442L12.0206 60.9656L18.9768 59.9002L18.3915 56.0787Z" fill="#39393B"/>
<path d="M19.0088 62.9776L12.9694 63.9041C12.72 63.9397 12.4706 63.7615 12.435 63.5121L12.043 60.9289L19.0088 59.8599L19.4008 62.4432C19.4364 62.7104 19.2583 62.942 19.0088 62.9776Z" fill="#DF615C"/>
<path d="M7.9099 2.76149L5.54045 3.1356L6.32434 0.374236L7.9099 2.76149Z" fill="#39393B"/>
<path d="M17.998 53.3357L11.0418 54.4011L11.4599 57.1307L18.416 56.0653L17.998 53.3357Z" fill="#C77E2E"/>
<path d="M6.12849 10.7605L12.0788 49.6337C12.1323 49.9366 12.3995 50.1326 12.6846 50.0791C12.9696 50.0257 13.1834 49.7584 13.1299 49.4734L7.17959 10.6002C7.12614 10.3152 6.85892 10.1014 6.57387 10.1548C6.28883 10.1905 6.07504 10.4755 6.12849 10.7605Z" fill="#C77E2E"/>
<path d="M8.85447 10.3507L14.8048 49.2238C14.8583 49.5089 15.1255 49.7226 15.4105 49.6692C15.7134 49.6158 15.9094 49.3485 15.8559 49.0635L9.90559 10.1903C9.85214 9.9053 9.5849 9.69152 9.29986 9.74496C9.01481 9.78059 8.80103 10.0478 8.85447 10.3507Z" fill="#C77E2E"/>
<path d="M23.5543 7.61552L16.5172 7.63866L16.6918 60.7464L23.7289 60.7232L23.5543 7.61552Z" fill="#21B573"/>
<path d="M23.5519 7.62498L16.5148 7.64282L18.813 2.61886L20.0066 0L21.2181 2.60106L23.5519 7.62498Z" fill="#EA9B7A"/>
<path d="M23.7069 56.8755L16.6698 56.8986L16.6825 60.7646L23.7196 60.7414L23.7069 56.8755Z" fill="#39393B"/>
<path d="M23.2666 63.797L17.1559 63.8148C16.8887 63.8148 16.6927 63.601 16.6927 63.3516V60.7505L23.7298 60.7327V63.3338C23.7298 63.5832 23.5339 63.797 23.2666 63.797Z" fill="#DF615C"/>
<path d="M21.2181 2.60106L18.813 2.61886L20.0066 0L21.2181 2.60106Z" fill="#39393B"/>
<path d="M23.6907 54.0962L16.6536 54.1194L16.6627 56.8807L23.6998 56.8576L23.6907 54.0962Z" fill="#217C58"/>
<path d="M18.2606 10.2618L18.3853 49.5803C18.3853 49.8832 18.6347 50.1148 18.9197 50.1148C19.2226 50.1148 19.4542 49.8654 19.4542 49.5803L19.3295 10.2618C19.3295 9.95889 19.0801 9.72731 18.795 9.72731C18.51 9.7095 18.2606 9.95889 18.2606 10.2618Z" fill="#217C58"/>
<path d="M21.0222 10.2439L21.147 49.5624C21.147 49.8652 21.3964 50.0969 21.6814 50.0969C21.9843 50.0969 22.2159 49.8474 22.2159 49.5624L22.0912 10.2439C22.0912 9.94099 21.8418 9.70936 21.5567 9.70936C21.2717 9.70936 21.0222 9.94099 21.0222 10.2439Z" fill="#217C58"/>
<path d="M28.7454 7.35246L21.2784 59.9344L28.2458 60.9238L35.7128 8.34188L28.7454 7.35246Z" fill="#0875F7"/>
<path d="M35.7021 8.37336L28.7363 7.37571L31.7292 2.72589L33.297 0.320826L34.1165 3.06438L35.7021 8.37336Z" fill="#EA9B7A"/>
<path d="M28.8061 57.1442L21.8387 56.1548L21.2951 59.9824L28.2625 60.9718L28.8061 57.1442Z" fill="#39393B"/>
<path d="M27.3467 63.9217L21.3072 63.0666C21.0578 63.031 20.8797 62.7994 20.9153 62.5321L21.2894 59.9489L28.2553 60.9466L27.8811 63.5298C27.8277 63.7792 27.5961 63.9574 27.3467 63.9217Z" fill="#DF615C"/>
<path d="M34.1164 3.06438L31.7292 2.72589L33.2969 0.320826L34.1164 3.06438Z" fill="#39393B"/>
<path d="M22.2164 53.3902L21.8279 56.1243L28.7953 57.1144L29.1839 54.3803L22.2164 53.3902Z" fill="#084FC7"/>
<path d="M30.0901 10.2084L24.5674 49.1351C24.5317 49.4379 24.7277 49.7052 25.0306 49.7408C25.3334 49.7764 25.6006 49.5804 25.6363 49.2776L31.1591 10.351C31.1947 10.0481 30.9987 9.7809 30.6959 9.74527C30.4108 9.70964 30.1436 9.92339 30.0901 10.2084Z" fill="#084FC7"/>
<path d="M32.8337 10.6005L27.3109 49.5271C27.2753 49.83 27.4713 50.0972 27.7741 50.1328C28.077 50.1685 28.3442 49.9725 28.3799 49.6696L33.9026 10.743C33.9383 10.4402 33.7423 10.1729 33.4394 10.1373C33.1366 10.1016 32.8693 10.2976 32.8337 10.6005Z" fill="#084FC7"/>
<path d="M38.0002 28.6293L37.6261 31.4798L37.2876 34.063L36.7888 37.9824L36.4503 40.5478L35.9515 44.5028L35.613 47.0326L35.0963 51.0232L34.7756 53.5174L34.259 57.5437L33.9383 60.0022L33.4217 64.0641L33.101 66.487L32.8338 68.5892H5.14865L4.88143 66.487L4.56075 64.0641L4.0441 60.0022L3.72342 57.5437L3.20678 53.5174L2.8861 51.0232L2.36945 47.0326L2.04877 44.5028L1.53212 40.5478L1.21145 37.9824L0.694799 34.063L0.356316 31.4798L0 28.6293H38.0002Z" fill="#DF615C"/>
<path d="M37.6262 31.4796L37.2877 34.0629H0.694875L0.356392 31.4796H37.6262Z" fill="#B11722"/>
<path d="M36.7888 37.9826L36.4503 40.548H1.53212L1.21144 37.9826H36.7888Z" fill="#B11722"/>
<path d="M35.9516 44.5031L35.6131 47.0329H2.36957L2.04889 44.5031H35.9516Z" fill="#B11722"/>
<path d="M35.0966 51.0231L34.7759 53.5173H3.20701L2.88634 51.0231H35.0966Z" fill="#B11722"/>
<path d="M34.2589 57.5436L33.9382 60.0021H4.04397L3.7233 57.5436H34.2589Z" fill="#B11722"/>
<path d="M33.4217 64.0642L33.101 66.4871H4.88142L4.56074 64.0642H33.4217Z" fill="#B11722"/>
</svg>
