<svg width="107" height="94" viewBox="0 0 107 94" fill="none" xmlns="http://www.w3.org/2000/svg">
<path d="M78.3186 87.9441L8.82555 67.1851C3.77129 65.6771 0.902491 60.3578 2.41052 55.3035L16.2891 8.82554C17.7971 3.77128 23.1165 0.902492 28.1707 2.41052L97.6638 23.1695C102.718 24.6775 105.587 29.9969 104.079 35.0511L90.2003 81.5291C88.6864 86.5775 83.367 89.4521 78.3186 87.9441Z" stroke="#4D2C5E" stroke-opacity="0.1" stroke-width="4" stroke-miterlimit="10" stroke-linecap="round"/>
<path d="M4.04806 49.8074L91.8378 76.033" stroke="#4D2C5E" stroke-opacity="0.1" stroke-width="4" stroke-miterlimit="10" stroke-linecap="round"/>
<path d="M48.1583 70.5369C47.7812 71.7976 46.45 72.5162 45.1893 72.1392C43.9287 71.7622 43.2101 70.4309 43.5871 69.1703C43.9641 67.9097 45.2954 67.191 46.556 67.568C47.8166 67.945 48.5353 69.2763 48.1583 70.5369Z" fill="#4D2C5E" fill-opacity="0.5"/>
<path d="M53.4207 80.5137L33.7383 74.6349L31.0863 83.5137L50.7687 89.3926L53.4207 80.5137Z" stroke="#4D2C5E" stroke-opacity="0.1" stroke-width="4" stroke-miterlimit="10" stroke-linecap="round"/>
<path d="M23.7882 81.8414L57.7661 91.9911" stroke="#4D2C5E" stroke-opacity="0.1" stroke-width="4" stroke-miterlimit="10" stroke-linecap="round"/>
</svg>
