<svg width="137" height="150" viewBox="0 0 137 150" fill="none" xmlns="http://www.w3.org/2000/svg">
<path d="M135.923 112.06C135.709 112.701 135.459 113.289 135.175 113.841C135.068 114.055 134.961 114.269 134.854 114.465C132.093 119.576 127.837 124.011 124.257 127.163C123.509 127.822 122.797 128.41 122.138 128.944C120.82 130.013 119.698 130.85 118.932 131.402C118.219 131.901 117.81 132.168 117.81 132.168C117.81 132.221 117.81 132.257 117.792 132.328C117.756 132.702 117.721 133.112 117.685 133.539C117.561 135.16 117.454 137.083 117.382 139.292C117.311 141.055 117.258 142.996 117.222 145.098C117.204 146.647 117.169 148.268 117.151 149.942C88.0672 136.941 28.1545 145.151 4.02202 149.212C4.46727 147.128 4.85909 145.08 5.23309 143.085C6.94285 133.877 7.90459 125.596 8.2786 118.169C8.84851 107.127 7.88679 90.528 5.53587 73.377C5.39339 72.255 5.2331 71.1508 5.07281 70.0466C4.96595 69.3164 4.85909 68.604 4.73442 67.8737C3.91516 62.4951 2.95342 57.0987 1.86701 51.8626C-2.88824 29.0302 0.442226 5.07583 23.5952 2.24404C25.2693 2.03033 26.9256 1.85224 28.5463 1.67414C39.446 0.516493 48.4222 0.10685 50.9156 0.0178002C51.3787 -9.7829e-06 51.6102 0 51.6102 0L96.3488 13.0013L100.605 14.2301C103.045 15.0138 105.307 15.7796 107.409 16.5276C108.299 16.8482 109.172 17.1688 109.991 17.4716C112.164 18.2908 114.123 19.0745 115.922 19.8759C119.502 21.461 122.334 23.0105 124.578 24.5955C134.391 31.5592 132.877 39.4312 132.628 54.9793C132.628 55.0506 132.628 55.1218 132.628 55.193C132.628 55.3889 132.628 55.5849 132.628 55.7986C132.628 55.8876 132.628 55.9767 132.628 56.0657C132.628 56.7069 132.628 57.3303 132.628 57.9714C132.646 59.9839 132.717 61.9786 132.841 63.9734C133.002 66.912 133.269 69.8328 133.589 72.6824C133.714 73.8223 133.839 74.9621 133.981 76.1019C134.106 77.1705 134.248 78.2213 134.391 79.2721C136.136 92.8789 138.363 104.812 135.923 112.06Z" fill="#0875F7"/>
</svg>
